<?xml version="1.0" encoding="utf-8"?>
<!-- Generator: Adobe Illustrator 27.6.0, SVG Export Plug-In . SVG Version: 6.00 Build 0)  -->
<svg version="1.1" id="Layer_1" xmlns="http://www.w3.org/2000/svg" xmlns:xlink="http://www.w3.org/1999/xlink" x="0px" y="0px"
	 viewBox="0 0 177 26" style="enable-background:new 0 0 177 26;" xml:space="preserve">
<style type="text/css">
	.st0{fill:url(#SVGID_1_);}
	.st1{fill:url(#SVGID_00000178183635163137821780000005899064768443433389_);}
</style>
<radialGradient id="SVGID_1_" cx="30.9791" cy="19.337" r="104.6887" gradientUnits="userSpaceOnUse">
	<stop  offset="2.066799e-05" style="stop-color:#191654"/>
	<stop  offset="1" style="stop-color:#43C6AC"/>
</radialGradient>
<path class="st0" d="M43.9,17c1-0.4,1.7-1,2.2-1.8s0.8-1.7,0.8-2.8c0-1.1-0.3-2-0.8-2.8c-0.5-0.8-1.3-1.4-2.2-1.8
	c-0.9-0.4-2-0.6-3.3-0.6h-6.3v14.4h3.4v-4h2.9c0,0,0,0,0.1,0l2.8,4.1h3.7L43.9,17C43.9,17,43.9,17,43.9,17z M42.7,10.6
	c0.5,0.5,0.8,1.1,0.8,1.9c0,0.7-0.3,1.4-0.8,1.8c-0.5,0.5-1.3,0.7-2.3,0.7h-2.7V9.9h2.7C41.4,9.9,42.2,10.1,42.7,10.6z M57.3,11.2
	c-0.8-0.5-1.8-0.7-2.9-0.7c-1.1,0-2.1,0.2-3,0.7c-0.9,0.5-1.6,1.1-2.1,2c-0.5,0.9-0.8,1.9-0.8,3c0,1.1,0.3,2,0.8,2.9
	c0.5,0.8,1.2,1.5,2.2,2c0.9,0.5,2,0.7,3.3,0.7c1,0,1.9-0.1,2.6-0.3c0.8-0.3,1.4-0.7,1.9-1.3l-1.7-1.9c-0.3,0.4-0.7,0.6-1.2,0.8
	c-0.5,0.2-1,0.3-1.6,0.3s-1.2-0.2-1.7-0.4c-0.5-0.3-0.8-0.6-1.1-1.1c-0.2-0.3-0.3-0.5-0.3-0.8h8.5c0-0.1,0-0.2,0-0.4
	c0-0.1,0-0.3,0-0.4c0-1.2-0.3-2.2-0.8-3.1C58.9,12.3,58.2,11.7,57.3,11.2z M53,13.3c0.5-0.3,0.9-0.4,1.5-0.4c0.5,0,1,0.2,1.4,0.4
	c0.4,0.2,0.8,0.6,1,1c0.2,0.3,0.3,0.6,0.4,0.9h-5.6c0.1-0.3,0.2-0.6,0.3-0.9C52.3,13.9,52.6,13.5,53,13.3z M66.4,10.4
	c-0.9,0-1.7,0.2-2.6,0.4c-0.9,0.2-1.6,0.6-2.2,1l1.2,2.3c0.4-0.4,0.9-0.6,1.5-0.8c0.5-0.2,1.1-0.3,1.7-0.3c0.9,0,1.6,0.1,2,0.5
	s0.6,0.9,0.6,1.6v0.1H66c-1.1,0-2,0.1-2.7,0.4c-0.7,0.3-1.2,0.7-1.5,1.2s-0.5,1-0.5,1.7c0,0.6,0.2,1.2,0.5,1.7s0.8,0.9,1.4,1.2
	c0.6,0.3,1.3,0.4,2.2,0.4c1,0,1.8-0.2,2.3-0.5c0.5-0.2,0.8-0.6,1.1-1.1v1.4h2.9v-6.3c0-1.7-0.5-2.9-1.4-3.7
	C69.4,10.8,68.1,10.4,66.4,10.4z M67.6,19.3c-0.4,0.3-0.9,0.4-1.4,0.4s-1-0.2-1.3-0.4c-0.3-0.3-0.5-0.6-0.5-1c0-0.3,0.1-0.7,0.4-0.9
	c0.3-0.3,0.8-0.4,1.6-0.4h2.2v1.5l-0.1-0.3C68.3,18.7,68,19,67.6,19.3z M77.7,14.4c-0.3,0.5-0.4,1-0.4,1.7c0,0.6,0.1,1.2,0.4,1.7
	s0.6,0.8,1,1.1c0.4,0.2,0.9,0.4,1.5,0.4c0.5,0,1-0.1,1.4-0.4c0.4-0.2,0.8-0.6,1.1-1.2l2.5,1.4c-0.4,0.9-1.1,1.6-1.9,2.1
	c-1,0.4-2,0.6-3.1,0.6c-1.2,0-2.3-0.2-3.2-0.7s-1.7-1.2-2.2-2c-0.5-0.9-0.8-1.9-0.8-3c0-1.1,0.3-2.1,0.8-3c0.5-0.9,1.3-1.5,2.2-2
	c0.9-0.5,2-0.7,3.2-0.7s2.2,0.2,3.1,0.7c0.9,0.5,1.5,1.2,1.9,2.1l-2.5,1.3c-0.3-0.5-0.7-0.9-1.1-1.2c-0.4-0.2-0.9-0.4-1.4-0.4
	c-0.6,0-1,0.1-1.5,0.4C78.3,13.5,77.9,13.9,77.7,14.4z M96.7,9.9h-4.6v11.7h-3.4V9.9h-4.6V7.2h12.6V9.9z M105.5,11.2
	c-0.9-0.5-1.9-0.7-3.1-0.7c-1.1,0-2.2,0.2-3.1,0.7c-0.9,0.5-1.7,1.1-2.2,2c-0.5,0.9-0.8,1.9-0.8,3c0,1.1,0.3,2,0.8,2.9
	c0.6,0.8,1.3,1.5,2.2,2c0.9,0.5,1.9,0.7,3.1,0.7c1.2,0,2.1-0.2,3.1-0.7s1.7-1.1,2.2-2c0.5-0.8,0.8-1.8,0.8-2.9c0-1.2-0.3-2.1-0.8-3
	C107.1,12.4,106.4,11.7,105.5,11.2z M104.8,17.7c-0.2,0.5-0.6,0.9-1,1.1c-0.4,0.3-0.9,0.4-1.4,0.4s-1-0.1-1.4-0.4s-0.7-0.6-1-1.1
	c-0.3-0.4-0.4-1-0.4-1.6c0-0.7,0.1-1.2,0.4-1.7c0.2-0.5,0.6-0.9,1-1.1c0.4-0.3,0.9-0.4,1.4-0.4s1,0.2,1.4,0.4c0.4,0.3,0.8,0.6,1,1.1
	c0.3,0.5,0.4,1.1,0.4,1.7C105.2,16.7,105,17.2,104.8,17.7z M118.6,10.6h3.2v11.1h-3.1v-1.3c-0.3,0.3-0.6,0.6-1,0.8
	c-0.7,0.4-1.5,0.6-2.3,0.6c-0.9,0-1.7-0.2-2.5-0.5c-0.7-0.4-1.3-0.9-1.7-1.6c-0.4-0.7-0.6-1.7-0.6-2.8v-6.3h3.2v5.8
	c0,0.9,0.2,1.6,0.6,2c0.4,0.4,0.9,0.7,1.7,0.7c0.5,0,0.9-0.1,1.3-0.3c0.4-0.2,0.7-0.5,0.9-1c0.2-0.4,0.3-1,0.3-1.7V10.6z
	 M131.9,10.4v3c-0.1,0-0.3,0-0.4,0s-0.2,0-0.4,0c-0.9,0-1.6,0.3-2.1,0.8s-0.8,1.3-0.8,2.3v5.2h-3.3V10.6h3.1v1.5
	c0.3-0.4,0.7-0.8,1.2-1.1C129.9,10.6,130.8,10.4,131.9,10.4z"/>
<radialGradient id="SVGID_00000056401725522644037400000017111811060283636629_" cx="25.8259" cy="12.7911" r="26.1201" gradientUnits="userSpaceOnUse">
	<stop  offset="2.066799e-05" style="stop-color:#191654"/>
	<stop  offset="1" style="stop-color:#43C6AC"/>
</radialGradient>
<path style="fill:url(#SVGID_00000056401725522644037400000017111811060283636629_);" d="M17.2,16.1C17.3,16.1,17.3,16.1,17.2,16.1
	c1.2-0.5,2-1.2,2.6-2.2c0.6-0.9,0.9-2,0.9-3.3s-0.3-2.4-0.9-3.4S18.3,5.5,17.2,5s-2.5-0.8-4-0.8H5.8v3.3c0.7,1.6,2.5,2.6,4.3,2.3
	c0.7-0.1,1.4-0.2,2.2-0.2C12.1,9,12,8.4,11.8,7.8c-0.1-0.6-0.3-1.2-0.5-1.9c0.6,0.1,1.1,0,1.4,0.6C13.4,7.3,14,8.1,14.6,9
	c0.1,0.2,0.3,0.3,0.5,0.3c1.2-0.1,2.4-0.1,3.6-0.1c0.6,0,0.9,0.3,1,0.8c0,0.4-0.3,0.8-0.8,0.9c-1.2,0.2-2.4,0.5-3.6,0.7
	c-0.1,0-0.2,0.2-0.3,0.3c-0.4,1-0.7,1.9-1,2.9c-0.2,0.7-0.7,0.8-1.4,1c0-0.2,0-0.3,0-0.4c0-1,0-2.1,0-3.1c0-0.3,0-0.4-0.4-0.4
	c-0.9,0.1-1.8,0.3-2.7,0.3c-1.8,0.1-3.1,1.1-3.7,2.5v7.1h4V17h3.5c0.1,0,0.1,0,0.2,0l3.3,4.8h4.3L17.2,16.1z"/>
</svg>
