<svg xmlns="http://www.w3.org/2000/svg" height="30" xml:space="preserve" id="Layer_1" x="0" y="0" version="1.1" viewBox="0 0 177 26"><style>.st1{fill:url(#SVGID_00000125598377482512511680000011967836893470203275_)}</style><radialGradient id="SVGID_1_" cx="158.983" cy="7.592" r="62.572" gradientUnits="userSpaceOnUse"><stop offset="0" stop-color="#191654"/><stop offset="1" stop-color="#43c6ac"/></radialGradient><path fill="url(#SVGID_1_)" d="M43.9 17c1-.4 1.7-1 2.2-1.8s.8-1.7.8-2.8c0-1.1-.3-2-.8-2.8-.5-.8-1.3-1.4-2.2-1.8-.9-.4-2-.6-3.3-.6h-6.3v14.4h3.4v-4h3l2.8 4.1h3.7L43.9 17zm-1.2-6.4c.5.5.8 1.1.8 1.9 0 .7-.3 1.4-.8 1.8-.5.5-1.3.7-2.3.7h-2.7V9.9h2.7c1 0 1.8.2 2.3.7zm14.6.6c-.8-.5-1.8-.7-2.9-.7-1.1 0-2.1.2-3 .7-.9.5-1.6 1.1-2.1 2-.5.9-.8 1.9-.8 3s.3 2 .8 2.9c.5.8 1.2 1.5 2.2 2 .9.5 2 .7 3.3.7 1 0 1.9-.1 2.6-.3.8-.3 1.4-.7 1.9-1.3l-1.7-1.9c-.3.4-.7.6-1.2.8-.5.2-1 .3-1.6.3s-1.2-.2-1.7-.4c-.5-.3-.8-.6-1.1-1.1-.2-.3-.3-.5-.3-.8h8.5v-.8c0-1.2-.3-2.2-.8-3.1-.5-.9-1.2-1.5-2.1-2zM53 13.3c.5-.3.9-.4 1.5-.4.5 0 1 .2 1.4.4.4.2.8.6 1 1 .2.3.3.6.4.9h-5.6l.3-.9c.3-.4.6-.8 1-1zm13.4-2.9c-.9 0-1.7.2-2.6.4-.9.2-1.6.6-2.2 1l1.2 2.3c.4-.4.9-.6 1.5-.8.5-.2 1.1-.3 1.7-.3.9 0 1.6.1 2 .5s.6.9.6 1.6v.1H66c-1.1 0-2 .1-2.7.4-.7.3-1.2.7-1.5 1.2s-.5 1-.5 1.7c0 .6.2 1.2.5 1.7s.8.9 1.4 1.2c.6.3 1.3.4 2.2.4 1 0 1.8-.2 2.3-.5.5-.2.8-.6 1.1-1.1v1.4h2.9v-6.3c0-1.7-.5-2.9-1.4-3.7-.9-.8-2.2-1.2-3.9-1.2zm1.2 8.9c-.4.3-.9.4-1.4.4s-1-.2-1.3-.4c-.3-.3-.5-.6-.5-1 0-.3.1-.7.4-.9.3-.3.8-.4 1.6-.4h2.2v1.5l-.1-.3c-.2.5-.5.8-.9 1.1zm10.1-4.9c-.3.5-.4 1-.4 1.7 0 .6.1 1.2.4 1.7s.6.8 1 1.1c.4.2.9.4 1.5.4.5 0 1-.1 1.4-.4.4-.2.8-.6 1.1-1.2l2.5 1.4c-.4.9-1.1 1.6-1.9 2.1-1 .4-2 .6-3.1.6-1.2 0-2.3-.2-3.2-.7s-1.7-1.2-2.2-2c-.5-.9-.8-1.9-.8-3s.3-2.1.8-3c.5-.9 1.3-1.5 2.2-2 .9-.5 2-.7 3.2-.7s2.2.2 3.1.7c.9.5 1.5 1.2 1.9 2.1l-2.5 1.3c-.3-.5-.7-.9-1.1-1.2-.4-.2-.9-.4-1.4-.4-.6 0-1 .1-1.5.4-.4.2-.8.6-1 1.1zm19-4.5h-4.6v11.7h-3.4V9.9h-4.6V7.2h12.6v2.7zm8.8 1.3c-.9-.5-1.9-.7-3.1-.7-1.1 0-2.2.2-3.1.7-.9.5-1.7 1.1-2.2 2-.5.9-.8 1.9-.8 3s.3 2 .8 2.9c.6.8 1.3 1.5 2.2 2 .9.5 1.9.7 3.1.7 1.2 0 2.1-.2 3.1-.7s1.7-1.1 2.2-2c.5-.8.8-1.8.8-2.9 0-1.2-.3-2.1-.8-3-.6-.8-1.3-1.5-2.2-2zm-.7 6.5c-.2.5-.6.9-1 1.1-.4.3-.9.4-1.4.4s-1-.1-1.4-.4-.7-.6-1-1.1c-.3-.4-.4-1-.4-1.6 0-.7.1-1.2.4-1.7.2-.5.6-.9 1-1.1.4-.3.9-.4 1.4-.4s1 .2 1.4.4c.4.3.8.6 1 1.1.3.5.4 1.1.4 1.7 0 .6-.2 1.1-.4 1.6zm13.8-7.1h3.2v11.1h-3.1v-1.3c-.3.3-.6.6-1 .8-.7.4-1.5.6-2.3.6-.9 0-1.7-.2-2.5-.5-.7-.4-1.3-.9-1.7-1.6-.4-.7-.6-1.7-.6-2.8v-6.3h3.2v5.8c0 .9.2 1.6.6 2 .4.4.9.7 1.7.7.5 0 .9-.1 1.3-.3.4-.2.7-.5.9-1 .2-.4.3-1 .3-1.7v-5.5zm13.3-.2v3h-.8c-.9 0-1.6.3-2.1.8s-.8 1.3-.8 2.3v5.2h-3.3V10.6h3.1v1.5c.3-.4.7-.8 1.2-1.1.7-.4 1.6-.6 2.7-.6z"/><radialGradient id="SVGID_00000180362633070197200410000007403127353874546049_" cx="-4.751" cy="15.955" r="28.737" gradientUnits="userSpaceOnUse"><stop offset="0" stop-color="#191654"/><stop offset="1" stop-color="#43c6ac"/></radialGradient><path fill="url(#SVGID_00000180362633070197200410000007403127353874546049_)" d="M17.2 16.1c.1 0 .1 0 0 0 1.2-.5 2-1.2 2.6-2.2.6-.9.9-2 .9-3.3s-.3-2.4-.9-3.4-1.5-1.7-2.6-2.2-2.5-.8-4-.8H5.8v3.3c.7 1.6 2.5 2.6 4.3 2.3.7-.1 1.4-.2 2.2-.2-.2-.6-.3-1.2-.5-1.8-.1-.6-.3-1.2-.5-1.9.6.1 1.1 0 1.4.6.7.8 1.3 1.6 1.9 2.5.1.2.3.3.5.3 1.2-.1 2.4-.1 3.6-.1.6 0 .9.3 1 .8 0 .4-.3.8-.8.9-1.2.2-2.4.5-3.6.7-.1 0-.2.2-.3.3-.4 1-.7 1.9-1 2.9-.2.7-.7.8-1.4 1v-3.5c0-.3 0-.4-.4-.4-.9.1-1.8.3-2.7.3-1.8.1-3.1 1.1-3.7 2.5v7.1h4V17h3.7l3.3 4.8h4.3l-3.9-5.7z"/></svg>