<?xml version="1.0" encoding="utf-8"?>
<!-- Generator: Adobe Illustrator 25.4.1, SVG Export Plug-In . SVG Version: 6.00 Build 0)  -->
<svg version="1.1" id="Layer_1" xmlns="http://www.w3.org/2000/svg" xmlns:xlink="http://www.w3.org/1999/xlink" x="0px" y="0px"
	 viewBox="0 0 364 419.2" style="enable-background:new 0 0 364 419.2;" xml:space="preserve">
<style type="text/css">
	.st0{fill:#92A8B4;}
	.st1{opacity:0.2;fill:#FFFFFF;enable-background:new    ;}
	.st2{fill:#FFFFFF;}
	.st3{fill:#FFFFFF;fill-opacity:0.2;stroke:#FFFFFF;stroke-width:2;stroke-miterlimit:10;}
	.st4{fill:#8E949A;}
	.st5{fill:#FFFFFF;fill-opacity:0.2;stroke:#FFFFFF;stroke-width:2;stroke-miterlimit:10.0003;}
</style>
<circle class="st0" cx="182" cy="185" r="146.1"/>
<path class="st1" d="M276.2,157.1c-1.3-10.8-2.2-37.8-24-44.7c-21.8-6.9-40.3-10-70.1-10s-48.3,3.1-70.1,10s-22.7,33.9-24,44.7
	c-1.3,10.8,9.8,10.4,9.8,10.4h168.8C266.5,167.5,277.6,167.9,276.2,157.1z"/>
<path class="st2" d="M291.1,155v9.7l-2.9,1.9c0,0-6.2-38-12-48.8S236.7,89.9,182,89.9s-88.4,17-94.2,27.9c-5.8,10.8-12,48.8-12,48.8
	l-2.9-1.9V155c0-6.7-13.7-7.3-13.7,0.4v13.4c0,8.7,13.7,6.9,13.7,1.9l1.8,1.9c0,0,0.4,1.3,0,5.2s5.8,5.3,5.8,5.3h203
	c0,0,6.1-1.4,5.8-5.3c-0.4-3.9,0-5.2,0-5.2l1.8-1.9c0,5,13.7,6.8,13.7-1.9v-13.4C304.8,147.8,291.1,148.3,291.1,155z M270.1,171.3
	h-176c0,0-11.6,0.5-10.2-11.6s2.3-42.2,25-49.9s42.1-11.1,73.2-11.1s50.4,3.5,73.2,11.1s23.7,37.8,25,49.9
	C281.7,171.7,270.1,171.3,270.1,171.3L270.1,171.3z"/>
<g>
	<path class="st2" d="M199.3,226c-0.6-0.2-1.1-0.4-1.7-0.5l0.3-1.2c1.3-6.3,0.4-11.3-2.4-13c-2.8-1.6-7.3,0.1-11.8,4
		c-0.4,0.4-0.9,0.8-1.3,1.2c-0.3-0.3-0.6-0.5-0.9-0.8c-4.8-4.2-9.6-6-12.4-4.4c-2.8,1.6-3.6,6.3-2.4,12.3c0.1,0.6,0.2,1.2,0.4,1.8
		c-0.7,0.2-1.3,0.4-2,0.6c-5.6,2-9.2,5-9.2,8.2c0,3.3,3.8,6.6,9.7,8.6c0.5,0.2,1,0.3,1.4,0.4c-0.2,0.6-0.3,1.3-0.4,1.9
		c-1.1,5.8-0.2,10.5,2.5,12c2.8,1.6,7.6,0,12.3-4.1c0.4-0.3,0.7-0.7,1.1-1c0.5,0.4,0.9,0.9,1.4,1.3c4.5,3.9,8.9,5.4,11.7,3.8
		c2.8-1.6,3.8-6.6,2.6-12.7c-0.1-0.5-0.2-0.9-0.3-1.4c0.3-0.1,0.7-0.2,1-0.3c6.1-2,10-5.3,10-8.6C208.7,231.1,205.1,228,199.3,226
		L199.3,226z M185.1,217.1c3.9-3.4,7.6-4.7,9.2-3.8c1.8,1,2.5,5.1,1.3,10.6c-0.1,0.4-0.2,0.7-0.2,1.1c-2.2-0.5-4.6-0.9-7.1-1.1
		c-1.5-2.1-3-4-4.5-5.6C184.3,217.8,184.7,217.4,185.1,217.1z M171.4,237l1.5,2.7c0.5,0.9,1.1,1.8,1.7,2.7c-1.7-0.2-3.4-0.5-4.9-0.8
		C170.2,240.1,170.8,238.6,171.4,237L171.4,237z M171.4,231.6c-0.7-1.6-1.2-3.1-1.7-4.6c1.5-0.3,3.1-0.6,4.8-0.8
		c-0.6,0.9-1.1,1.8-1.6,2.7L171.4,231.6L171.4,231.6z M172.6,234.3c0.7-1.5,1.4-2.9,2.3-4.3c0.8-1.4,1.7-2.8,2.6-4.1
		c1.6-0.1,3.2-0.2,4.8-0.2s3.3,0.1,4.8,0.2c0.9,1.3,1.7,2.7,2.6,4.1c0.8,1.4,1.6,2.8,2.3,4.2c-0.7,1.5-1.5,2.9-2.3,4.3
		c-0.8,1.4-1.6,2.8-2.5,4.1c-1.6,0.1-3.2,0.2-4.8,0.2s-3.2-0.1-4.8-0.2c-0.9-1.3-1.8-2.7-2.6-4.1
		C174.1,237.2,173.3,235.7,172.6,234.3L172.6,234.3z M191.6,239.7c0.5-0.9,1-1.9,1.5-2.8c0.7,1.6,1.3,3.2,1.8,4.7
		c-1.5,0.4-3.2,0.6-4.9,0.8C190.6,241.5,191.1,240.6,191.6,239.7L191.6,239.7z M193.1,231.6c-0.5-0.9-1-1.8-1.5-2.8
		c-0.5-0.9-1.1-1.8-1.6-2.6c1.7,0.2,3.3,0.5,4.8,0.8C194.4,228.5,193.8,230.1,193.1,231.6z M182.3,219.8c1,1.1,2.1,2.4,3.1,3.8
		c-2.1-0.1-4.2-0.1-6.3,0C180.2,222.2,181.2,221,182.3,219.8z M170.1,213.4c1.8-1,5.7,0.4,9.8,4.1c0.3,0.2,0.5,0.5,0.8,0.7
		c-1.5,1.7-3.1,3.5-4.5,5.6c-2.5,0.2-4.9,0.6-7.1,1.1c-0.1-0.5-0.3-1.1-0.4-1.6C167.8,218.2,168.4,214.3,170.1,213.4L170.1,213.4z
		 M167.5,241.1c-0.4-0.1-0.9-0.3-1.3-0.4c-2.6-0.9-4.7-2-6.2-3.3c-1.3-1.1-2-2.2-2-3.1c0-1.9,2.9-4.4,7.7-6.1l1.8-0.6
		c0.7,2.2,1.5,4.4,2.6,6.7C169.1,236.6,168.2,238.9,167.5,241.1L167.5,241.1z M179.8,251.4c-2.1,1.8-4.1,3.1-5.9,3.7
		c-1.6,0.6-2.9,0.6-3.7,0.1c-1.7-1-2.4-4.7-1.4-9.7c0.1-0.6,0.2-1.2,0.4-1.8c2.2,0.5,4.6,0.8,7.1,1c1.5,2.1,3,4,4.5,5.6
		C180.5,250.8,180.1,251.1,179.8,251.4L179.8,251.4z M182.4,248.8c-1.1-1.2-2.1-2.4-3.2-3.8c1,0,2,0.1,3.1,0.1s2.1,0,3.2-0.1
		C184.4,246.4,183.4,247.7,182.4,248.8z M196.1,252c-0.3,1.7-0.9,2.8-1.7,3.3c-1.7,1-5.2-0.3-9.1-3.6c-0.4-0.4-0.9-0.8-1.3-1.2
		c1.5-1.6,3-3.5,4.4-5.6c2.6-0.2,5-0.6,7.2-1.1c0.1,0.4,0.2,0.9,0.3,1.3C196.4,247.7,196.5,250.1,196.1,252L196.1,252z M198,240.7
		l-0.9,0.3c-0.7-2.1-1.6-4.4-2.7-6.7c1.1-2.3,1.9-4.5,2.6-6.6c0.5,0.2,1.1,0.3,1.6,0.5c4.9,1.7,7.9,4.2,7.9,6.1
		C206.5,236.3,203.3,238.9,198,240.7L198,240.7z"/>
	<circle class="st2" cx="182.3" cy="234.2" r="4.7"/>
</g>
<circle class="st3" cx="105.4" cy="235.6" r="16.7"/>
<path class="st2" d="M113.4,207H99.9c-2.2,0-4.1-1.8-4.1-4.1v-6c0-2.2,1.8-4.1,4.1-4.1h13.6L113.4,207L113.4,207z M250.3,207h13.6
	c2.2,0,4.1-1.8,4.1-4.1v-6c0-2.2-1.8-4.1-4.1-4.1h-13.6L250.3,207L250.3,207z"/>
<path class="st4" d="M107.7,326.9H84.4c-2.7,0-4.8-2.1-4.8-4.8v-25.7c0-2.7,2.1-4.8,4.8-4.8h23.3c2.7,0,4.8,2.1,4.8,4.8v25.7
	C112.5,324.7,110.4,326.9,107.7,326.9z M279.4,326.9H256c-2.7,0-4.8-2.1-4.8-4.8v-25.7c0-2.7,2.1-4.8,4.8-4.8h23.3
	c2.7,0,4.8,2.1,4.8,4.8v25.7C284.2,324.7,282,326.9,279.4,326.9L279.4,326.9z"/>
<path class="st2" d="M293.5,295.8H70.3c-2.1,0-3.9-1.7-3.9-3.9v-10c0-2.1,1.7-3.9,3.9-3.9h223.1c2.1,0,3.9,1.7,3.9,3.9v10
	C297.3,294.1,295.6,295.8,293.5,295.8L293.5,295.8z"/>
<ellipse transform="matrix(0.4641 -0.8858 0.8858 0.4641 -70.3657 354.881)" class="st5" cx="258.1" cy="235.6" rx="16.7" ry="16.7"/>
<g>
	<g>
		<circle class="st2" cx="272.3" cy="67.3" r="20.4"/>
	</g>
	<g>
		
			<ellipse transform="matrix(0.1735 -0.9848 0.9848 0.1735 158.7759 323.7934)" class="st4" cx="272.3" cy="67.3" rx="17.7" ry="17.7"/>
		<g>
			<path class="st2" d="M268.9,66.6c-0.3,0.3-0.4,0.7-0.8,0.9c-0.2,0.8-0.5,1.4-0.6,2.2c-0.4,0.8-0.4,1.9-1,2.5
				c-0.1,0.4-0.2,1-0.6,1.3c0,0,0,0.1,0,0.1c0,0.2-0.1,0.4-0.1,0.6c-0.6,0.4-1,1.2-1.7,1.4c-0.2-0.2-0.4-0.4-0.7-0.6
				c-0.1-0.8-0.1-1.5-0.2-2.3c-0.1-0.4-0.3-0.8-0.3-1.2c0-0.1,0-0.2,0-0.3c-0.3-0.4-0.1-1.2-0.5-1.6c0,0,0.1-0.1,0.1-0.1
				c0-0.1,0-0.2,0-0.3c0,0,0-0.1,0-0.1c-0.3-0.3-0.2-0.6-0.2-0.9c0-0.1-0.1-0.2-0.1-0.2c0-0.1,0-0.1,0.1-0.1
				c-0.2-0.3-0.4-0.8-0.6-1.1c0-0.2,0.2-0.3,0.2-0.4h0.4c0.8,1.5,1.1,3.1,1.4,4.8c0.1,0.5,0.2,1,0.3,1.4c0,0.1,0.1,0.2,0.1,0.3
				c0,0.1,0,0.1,0,0.2c0.2,0.1,0.2,0.5,0.3,0.7c0.4,0,0.6-0.8,0.9-1.1c0-0.2,0.1-0.4,0.1-0.6c0.2-0.3,0.3-0.5,0.4-0.9
				c0.1-0.1,0.1-0.1,0.2-0.1c0-0.5,0.2-0.9,0.4-1.3c0-0.4,0.2-0.8,0.3-1.2c0.1-0.1,0.2-0.3,0.2-0.4c0-0.1,0-0.1,0-0.2
				c0-0.1,0.1-0.2,0.2-0.3c0-0.4,0.1-0.8,0.3-1.1c0.1-0.6,0.2-1.2,0.5-1.7h0.5c0-0.1,0.1-0.3,0.2-0.3c0.1,0,0.2,0,0.3,0.1
				c0.1,0.4,0.2,0.9,0.2,1.3C269,66.1,269,66.4,268.9,66.6z"/>
			<path class="st2" d="M270.7,73.4c0,0.5-0.4,0.9-0.6,1.4l-0.1,0c-0.5,0-0.9,0.3-1.4,0.3c0-0.3-0.1-0.5-0.4-0.5
				c-0.1-0.3,0-0.6-0.1-0.9c0.3-0.2,0.5-0.6,0.8-0.9c0.1,0,0.2,0,0.3,0c0.3,0,0.5-0.1,0.8-0.1c0.1,0,0.3,0,0.4,0.1
				C270.5,73.1,270.4,73.4,270.7,73.4L270.7,73.4z"/>
			<path class="st2" d="M285.2,71.3C285.1,71.3,285.1,71.3,285.2,71.3c-0.1,0-0.1-0.1-0.2-0.1c-0.9,0.5-2.2,0.7-2.9,1.4
				c-0.3,0-0.6,0.1-0.8,0.4h0c-0.1,0-0.1-0.1-0.2-0.1c-0.2,0-0.1,0.3-0.3,0.3c0,0-0.1-0.1-0.2-0.1c-0.6,0.4-1.4,0.7-1.9,1.2
				c0,0,0,0-0.1,0c0,0,0,0-0.1,0c0,0-0.1,0-0.1,0c-0.8,0.7-1.8,1.1-2.6,1.8c-0.5,0-1,0.4-1.4,0.4c-0.2,0-0.4-0.1-0.6-0.3
				c-0.1,0-0.1,0.1-0.1,0.1c-0.1,0-0.2-0.2-0.4-0.1c-0.2-0.3-0.3-0.7-0.4-1c0-0.7,0.3-1.3,0.4-2c0.3-0.3,0.3-0.9,0.6-1.2
				c0.1-0.5,0.4-1,0.5-1.5c0.1-0.1,0.2-0.2,0.3-0.3v-0.1c0-0.1,0-0.1-0.1-0.2c0.3-0.6,0.6-1.1,0.7-1.8c0.3-0.2,0.2-0.8,0.6-0.9
				c0,0,0-0.1,0-0.1c0-0.2,0.1-0.3,0.1-0.5c0-0.1,0-0.1,0-0.1c0.3-0.7,0.7-1.4,0.9-2.2c0.2-0.1,0.2-0.3,0.3-0.4v-0.1
				c0-0.3,0.1-0.7,0.3-1c0.1-0.6,0.2-1.3,0.4-1.9c0-0.1-0.1-0.2-0.1-0.4c-0.2,0.1-0.5,0.2-0.8,0.3c-0.1,0-0.2,0.1-0.3,0.1
				c-0.1,0-0.1,0.2-0.1,0.3c-0.4,0-0.5,0.4-0.8,0.5c-0.2,0.2-0.3,0.3-0.6,0.4c-0.2,0.1-0.3,0.5-0.5,0.4c-0.1,0.3-0.5,0.4-0.4,0.8
				c0,0-0.1,0-0.1,0s-0.1,0-0.1,0c-0.1,0.4-0.4,0.5-0.7,0.8c-0.3,0-0.4-0.2-0.8-0.2c0-0.1-0.1-0.1-0.1-0.2c0-0.3,0-0.9,0.1-1.1
				c0.2-0.4,1-0.5,1.3-1c0,0,0,0,0.1,0c0.1,0,0.1,0,0.2-0.1c0.1-0.2,0.3-0.2,0.4-0.3c0.1-0.1,0-0.1,0.1-0.2c0.1-0.1,0.2-0.1,0.3-0.2
				c0.1-0.1,0.1-0.2,0.2-0.3c0.1-0.1,0.3-0.1,0.5-0.2c0.2-0.1,0.3-0.3,0.4-0.4c0.3-0.2,0.7-0.3,1-0.5c0.3-0.2,0.6-0.6,1-0.6
				c0.5,0,0.5,0.4,0.9,0.5c0.4,0.5,0.2,1.3,0.3,1.9c-0.1,0.3-0.3,0.6-0.3,0.9c0,0.1,0,0.1,0,0.1H279c-0.1,1.2-0.9,2.2-1.2,3.3
				c0,0.1-0.1,0.1-0.2,0.2c-0.1,0.2-0.1,0.4-0.2,0.6c-0.2,0.4-0.3,0.9-0.5,1.3V68c0,0,0,0.1,0,0.1c-0.3,0.4-0.5,0.8-0.6,1.3
				c-0.1,0.1-0.2,0.3-0.3,0.4c-0.3,1-0.9,1.9-1.1,2.9c-0.4,0.3-0.4,1-0.6,1.5l-0.1,0.5v0.3c0,0.1,0,0.2-0.1,0.3
				c0,0.1,0.1,0.2,0.1,0.3c0.1,0.1,0.3,0.1,0.4,0.2c0.1,0,0.1-0.2,0.2-0.3c0.3-0.4,1.4-1,1.9-1.4h0.2c0.6-0.4,1.2-0.8,1.9-1.1
				c0.3-0.4,1.1-0.4,1.4-0.9c0.2,0,0.5-0.1,0.6-0.2h0.1c0.1,0,0.1,0,0.1,0.1c0.1,0,0.1-0.2,0.2-0.3c0.5-0.2,1-0.4,1.6-0.7
				c0.2,0,0.6,0,0.8-0.3c0,0,0,0,0.1,0c0.4,0,0.8-0.3,1.2-0.3h0c0,0,0-0.1,0-0.1c0,0,0-0.1,0.1,0c0,0,0.1,0,0.1,0
				c0.4,0,0.6,0.4,1,0.5c0,0.1,0,0.1,0,0.2c0,0.1,0,0.2,0.1,0.2C285.8,71.2,285.4,71.1,285.2,71.3z"/>
		</g>
	</g>
</g>
<g>
	<g>
		<path class="st0" d="M113.5,381.3l3,3.9c0.5,0.8,1.1,0.8,1.8,0.8c0.6,2.4-0.5,3.2-2.2,3.2c-1.7,0-2.4-0.9-3.1-2l-3.4-5.2h-3.4
			c0,0.8-0.1,4.3,0,5.2c0.1,1.3-0.2,1.7-1.3,1.7h-1.5c-1.4,0-1.4-1.2-1.4-2.2c0.1-2.4,0.1-15.2,0.1-15.9c0-1-0.3-2.4,1.6-2.4h6.2
			c5.1,0,7.8,2.8,7.8,6.9C117.7,378.3,115.8,380.3,113.5,381.3z M109.7,371.3h-3.6c-0.1,1.7,0,6.6,0,7.8h3.5c2.4,0,3.9-1.4,3.9-3.9
			C113.6,373.4,112.5,371.3,109.7,371.3z"/>
		<path class="st0" d="M123.9,368.4h10.8c1.1,0,1.2,0.5,1.2,1.3v1.1c0,0.8-0.4,1.2-1.3,1.1h-7.9l0,5.2c2.2,0,6.1,0,6.8,0
			c0.5,0,1,0.2,1,1v1.2c0,0.8-0.2,0.9-0.9,0.9c-0.9,0-4.6,0-6.9,0c0,2,0,3.6,0.1,5.2c2.3,0,7,0,7.9-0.1c0.9-0.1,1.3,0.4,1.3,1.2v1.4
			c0,0.8-0.2,1-1.2,1H124c-1.4,0-1.4-1.2-1.4-2.2c0.1-2.4-0.1-15.2-0.1-15.9C122.5,369.8,122.1,368.4,123.9,368.4z"/>
		<path class="st0" d="M146.9,368.4h2.7c1.3,0,1.8,0.7,2.1,1.7c0.2,1,4.9,15.5,5.2,17.1c0.2,1,0.1,1.7-1,1.7h-1.2
			c-1.4,0-1.5-1-1.7-1.5c-0.2-0.5-0.5-1.7-1.1-3.2h-7.6c-0.5,1.6-1,2.7-1.1,3.1c-0.2,1.1-0.5,1.6-1.5,1.6H140
			c-0.8,0-1.1-0.7-0.8-1.6c0.7-2.5,5.4-16.1,5.7-17.2C145.1,369,145.5,368.4,146.9,368.4z M145,381.3h6.2c-1.2-4-2.7-8.7-3-10H148
			C147.7,372.7,146.3,377.3,145,381.3z"/>
		<path class="st0" d="M174.5,372c-0.5,0.8-0.9,1-0.9,1s-1.5-1.5-4.6-1.5c-3.9,0-5.7,3.2-5.7,7.1c0,3.9,2,7.1,5.6,7.1
			c1.8,0,3-0.6,3.6-1.1c0.5-0.3,0.9-0.5,1.4,0.2l0.8,1.4c0.3,0.5,0.5,0.8-0.1,1.3c-0.8,0.6-2.7,1.7-5.8,1.7c-6.5,0-9.7-4.5-9.6-10.6
			c0-6,3.1-10.6,9.6-10.6c3.3,0,4.9,1,5.5,1.4C174.8,369.8,175.4,370.6,174.5,372z"/>
	</g>
	<g>
		<path class="st4" d="M200.6,358.3c-0.5-0.5-1.1-0.8-1.6-1.1c-0.5,0.1-0.9,0.4-1.4,0.4c-0.2,0-0.3-0.1-0.5-0.2
			c-0.7,0.6-2.2,0.4-2.6,1.3c-0.1-0.2-0.6,0-0.6-0.2c-2.9,1-6.1,1.3-8.8,2.8c0,0,0,0.1,0,0.1c0,0.4,0.2,0.8,0.3,1.2
			c-0.8,2.8-0.9,5.7-1.4,8.5v0.1c0,0.2,0.3,0.3,0.3,0.5l0,0.1c-0.2,0.1-0.3,0.4-0.3,0.7c0,0.1,0,0.3,0.1,0.4c-0.8,2.6-0.8,5.3-1.2,8
			l-0.3,2.3c-0.1,0.2-0.2,0.5-0.2,0.8c0,1.4,0.4,2.8,0.2,4.3c0.2,0.3,0.3,0.6,0.3,0.9c0,0.2,0,0.5-0.1,0.7c0.6,0.6,1.5,0.7,2.1,1.2
			v0.1c0,0.5-0.1,0.9-0.2,1.3c-0.1,0.4-0.2,1.2-0.4,1.5c-0.2,0.3-0.7,0.6-1.1,0.6c-0.1,0-0.5-0.2-0.6-0.3c-0.2,0-0.6,0.4-1,0.4
			c-0.2,0-0.3,0-0.5-0.1c-0.2-0.5-0.6-0.8-1-1.1c0-0.7-0.3-0.8-0.6-1.4c-0.1-0.6,0-1.6-0.6-2c0.1-0.2,0.1-0.4,0.1-0.7
			c0-0.2,0-0.5-0.2-0.7v-0.1c0-0.2,0.2-0.3,0.2-0.5v-0.1c-0.1-0.8-0.2-1.5-0.2-2.3c0-1.5,0.1-3,0.1-4.5c0.6-0.5,0.6-2.2,0.6-2.9
			c0.2-2.6,0.9-5.1,1-7.7c0.5-0.7,0-2.5,0.6-3.4c0-1.3,0.4-2.6,0.4-3.9c0-0.3,0-0.6-0.1-1c-0.2-0.1-0.4-0.1-0.6-0.1
			c-0.5,0-1.1,0.2-1.3,0.6c-1,0-1.9,0.4-2.9,0.4c-0.2,0-0.4,0-0.6,0c-0.3,0.1-0.8,0.1-0.7,0.6c-2.8,0.2-5.3,2.1-8.1,2.3
			c-0.3,0.1-0.4,0.4-0.5,0.7c-1-0.1-1.6-0.6-2.5-1c-0.1-0.5-0.2-0.9-0.2-1.4c0-1.1,0.5-2.3,1.4-2.8c0.2,0,0.4,0.1,0.6,0.1
			c0.7,0,1.5-0.4,2.2-0.4c0.1,0,0.2,0,0.4,0.1c0.6-0.4,2-0.2,2.2-1.1c0.2,0.2,0.5,0.2,0.8,0.2c0.6,0,1.3-0.2,1.6-0.7
			c0.2,0.2,0.5,0.2,0.7,0.2c0.7,0,1.3-0.5,1.9-0.5c0.2,0,0.4,0.1,0.5,0.2c1-0.9,2.9-0.7,3.7-1.6c0.2,0,0.4,0,0.5,0
			c0.8,0,1.5-0.3,2.2-0.5l0.7-0.1c0.7-0.1,1.2-0.7,2.1-0.6c2.2-1.2,5-0.9,7.3-2.3h0.1c0.9,0,1.8-0.4,2.6-0.9c0.1,0,0.3,0,0.5,0
			c1.3,0,2.5-0.6,3.8-0.6c1.5,0,1.6,1,2.9,1.3c0.4,0.8,0.3,1.7,0.4,2.6C202.2,357.9,201,357.6,200.6,358.3z"/>
		<path class="st4" d="M213.8,371.7c0,0.5,0,1.1,0,1.6v0.5c-0.1,0.3-0.3,0.7-0.4,1c-0.3,0.8-0.5,1.6-0.5,2.5v0.1
			c-0.4,1.1-0.9,1.6-0.9,2.9c-0.6,1.6-1.8,2.8-2.8,4.2c-0.9,0.4-1.8,1-2.5,1.7c-1.4,0.4-2.8,1-3.9,2c-0.9,0.1-1.8,0.3-2.6,0.6h-0.4
			c-0.2,0-0.4,0-0.5-0.1c-0.6,0.3-1.3,0.4-1.9,0.4c-0.8,0-1.6-0.1-2.4-0.3c-0.5-0.7-1.4-0.9-2.1-1.2c-1.3-1.8-1.7-3.4-2.3-5.5
			c0.1-0.7,0.4-1.3,0.4-2c0.8-2.3,2.2-4.2,3.9-6c0-0.3,0.2-0.4,0.1-0.7c0,0,0.1,0,0.1,0c0.4,0,0.4-0.2,0.4-0.5
			c1.6-1,2.8-2.6,4.6-3.5c0.1-0.4,0.6-0.6,0.7-1c1.4-0.4,2.6-1.4,3.9-2c0.7-0.4,1.4-0.5,2.1-0.7c0.3-0.1,0.5-0.1,0.7-0.1
			c0.8,0,1.6,0.5,2.4,0.5c0.2,0,0.3,0,0.5-0.1c0.4,0.5,0.9,0.8,1.5,1.1c0.5,1.3,1.8,1.9,2,3.4C213.8,370.7,213.8,371.2,213.8,371.7z
			 M210.6,371.8c-0.4-0.1-0.8-0.5-1.3-0.5c-0.2,0-0.3,0-0.5,0.1c-0.1-0.6-0.9-0.5-1.2-0.9c-0.1-0.4-0.2-0.8-0.6-1
			c-0.8,0.8-2.3,0.9-3,1.9h-0.6c-0.3,0.5-0.9,0.6-1.2,1.1c-1.5,0.8-2.4,2.2-3.7,3.2c-1.2,2.6-3.1,3.4-3.1,6.7c0,0.2,0,0.5,0,0.7
			c0.6,0.6,0.8,1.5,1.7,1.8c0.9,0.3,2,0.1,2.9,0.4c2.2-0.4,4.2-1.4,6-2.7c0.3-0.2,0.7-0.5,0.9-0.7c0.2-0.2,0.4-0.6,0.5-0.8
			c0.4-0.6,0.8-1.2,1.3-1.7c0.5-2,1.6-3.6,1.6-5.7c0-0.2,0-0.5-0.1-0.7c0.2-0.2,0.3-0.6,0.3-0.8
			C210.7,371.9,210.7,371.9,210.6,371.8z"/>
		<path class="st4" d="M235,387h-0.5c-3.8,0-3.7-4.2-4.5-6.9c-1.1,0.9-1.3,2.6-2.8,3c-0.1,0.3-0.3,0.6-0.3,1c-2,1.1-3.2,3.2-5.3,4.1
			c0,0-0.1,0-0.1,0c-0.5,0-0.9,0.4-1.5,0.4c-0.7,0-1.2-0.7-1.9-0.6c-0.5-0.8-1.4-1.4-1.6-2.3c-0.1-0.4-0.1-0.8-0.2-1.3
			c-0.1-0.7-0.4-1.4-0.6-2.1c0.5-2.5,0.7-6.1,2.3-8.1l0-0.2c0-1.5,1.4-2.4,1.1-3.8c0.6-0.3,1.2-0.5,1.8-0.5c0.3,0,0.5,0,0.8,0.1
			c0,0.1,0.1,0.3,0.2,0.4v0.1c0,1.9-1.1,3.6-1.4,5.4c-0.4,0.1-0.2,0.6-0.6,0.6c-0.3,1.6-0.6,3.1-0.6,4.7c0,1,0.1,2,0.6,2.9l0.1,0
			c0.5,0,0.7,0.3,1.2,0.5c0.4-0.1,0.8-0.2,0.7-0.6c1.2-0.1,1.4-1.2,2.5-1.5c0-0.5,0.6-0.5,0.5-1.1c1.1-0.1,1.1-1,1.9-1.5
			c0.6-1.4,2.6-5,2.6-6.2c0-0.2-0.2-0.3-0.1-0.6v-0.1c0.7-0.9,1.1-2.3,2.3-2.7c0.7,0.2,1.5,0.2,2.2,0.5c0,1.2,0.2,2.9,0.6,3.9
			c0,0.6,0,1.1,0,1.7c0,0.9,0,1.9,0.3,2.7c-0.2,0.4-0.2,0.7-0.2,1.1c0,1,0.5,2,0.6,3c0.3,0.4,0.7,0.6,1.2,0.6c0.2,0,0.4,0,0.6-0.1
			c0.4,0.4,0.6,0.8,1,1.1C237.4,385.9,236,386.3,235,387z"/>
		<path class="st4" d="M281.7,385.5c-0.2-0.1-0.4-0.1-0.6-0.1c-1.4-0.1-2.6,0.6-4,0.7c-0.4,0-0.8,0-1.2,0.1
			c-2.9,0.4-6.7,0.5-9.4,1.5c-0.1-0.1-0.3-0.2-0.5-0.2c-0.5,0-0.8,0.2-1.3,0.1c-0.9,0.6-2.1,0.3-3,1c-0.4-0.2-1.1-0.1-1.2-0.4
			c-1.1,0.5-2.3,0.6-3.4,0.6c-1.5-0.1-4.3-0.7-5.2-2.1c-0.3-0.4-0.3-1.1-0.8-1.4c0.2-1.1,0.4-2.1,0.5-3c0.9-0.8,1.7-1.6,2.5-2.6
			c1.7-0.9,2.9-2.5,4.7-3.4c0.3-0.6,1.1-0.7,1.3-1.5c1.6-0.9,2.9-2.4,3.3-4.3c-0.8-0.6-1.8-0.8-2.8-0.8c-0.9,0-1.9,0-2.9,0
			c-2,0.6-4.3,0.1-6.2,1.2c-0.2,0-0.4,0-0.5-0.1c-1.5-0.1-2.7,0.8-4,1.3c0,0.1,0,0.1,0,0.2c0,0.3,0.1,0.5,0.1,0.8c0,0,0,0.1,0,0.1
			c-0.1,0.2-0.2,0.4-0.2,0.6c-0.2,0.7-0.4,1.4-0.4,2.2c0,1.2,0,2.3,0,3.5c0,0.7-0.1,1.4-0.4,2.1c0.4,2.2,0.7,4.8,1.9,6.8
			c-0.1,0.2,0.4,0.1,0.5,0.1c0.1,0,0.2,0,0.1,0.1c0.1,0.1,0.1,0.3,0.2,0.4c0,0.1,0,0.1,0,0.2c0,0.9-0.7,1.6-0.7,2.6
			c-0.2,0.1-0.5,0.1-0.7,0.1c-1.5-0.1-2.3-1.8-3.3-2.6c-0.3-1.2-0.5-3-1.2-4.1c0.1-0.2,0.1-0.5,0.1-0.8c0-0.9-0.2-1.8-0.2-2.7
			c0-0.5,0.2-0.9,0.2-1.5c0-0.8-0.3-1.5-0.2-2.3c0-0.4,0.1-0.7,0.4-1c-0.1-0.3-0.1-0.6-0.1-0.8c0-0.7,0.2-1.4,0.2-2.1
			c0-0.4,0-0.7-0.1-1c-0.1-0.1-0.2-0.1-0.3-0.1c-0.6,0-0.9,0.7-1.2,0.7c-0.1,0-0.2-0.1-0.3-0.1c-0.1,0-1.2,0.8-1.6,0.9
			c-0.9-0.1-1.1-1.2-1.9-1.1c-0.1-0.3-0.1-0.6-0.1-0.9l0-0.5c0.6-1.2,2.2-1.4,3.2-2.2h0.3c1.6,0.1,2.3-1.7,3.8-2.2
			c0.5,0.2,1.1,0.4,1.6,0.4c0.6,0,1.3-0.1,1.7-0.6c0.2,0.1,0.4,0.1,0.6,0.1c0.7,0,1.4-0.3,2-0.6c1.8,0.1,3.5-0.8,5.4-0.7
			c1.5,0.1,2.9-0.4,4.5-0.3c1.1,0,2.1,0.2,3.1,0.1c0.6,0.3,1,0.5,1.7,0.5c0.7,0.6,1.4,1.3,2,2.1c0,0.2,0,0.4,0,0.6
			c-0.1,2.1-1.4,4-2.2,5.9c-3,2.7-5.9,5.4-9,7.8c-0.1,0.4-0.3,0.8-0.4,1.2c0,0.1,0,0.2,0,0.3c0.3,0.1,0.6,0.3,0.6,0.8l0.3,0
			c0.1,0,0.2,0,0.2,0.1l0.5,0c3.5,0.1,6.9-0.8,10.4-0.9c0.4-0.1,0.9-0.2,1.3-0.4c0,0,0.1,0,0.1,0c0.3,0,0.4,0.3,0.7,0.3
			c0.2,0,0.5-0.1,0.8-0.2c0.7-0.2,1.4-0.2,2.1-0.3c2.6-0.2,5.2-0.1,7.8-0.7c0.5,0.7,1.9,0.3,2.2,1.1
			C282.7,384.8,282.2,385.1,281.7,385.5z"/>
	</g>
</g>
</svg>
