<?xml version="1.0" encoding="utf-8"?>
<!-- Generator: Adobe Illustrator 25.4.1, SVG Export Plug-In . SVG Version: 6.00 Build 0)  -->
<svg version="1.1" id="Layer_1" xmlns="http://www.w3.org/2000/svg" xmlns:xlink="http://www.w3.org/1999/xlink" x="0px" y="0px"
	 viewBox="0 0 364 419.2" style="enable-background:new 0 0 364 419.2;" xml:space="preserve">
<circle style="fill:#92A8B4;" cx="182" cy="185" r="109.28"/>
<g>
	<path style="opacity:0.2;fill:#FFFFFF;enable-background:new    ;" d="M251.08,181.82c-1.5-8-3.48-28.11-20.09-32.2
		c-16.61-4.09-30.57-5.5-52.81-4.05c-22.24,1.45-35.9,4.67-51.84,10.88s-15.29,26.41-15.74,34.53c-0.44,8.12,7.82,7.29,7.82,7.29
		l125.99-8.22C244.34,190.06,252.65,189.82,251.08,181.82z"/>
	<path style="fill:#FFFFFF;" d="M262.09,179.53l0.47,7.24l-2.07,1.56c0,0-6.48-28.06-11.33-35.84s-30.84-18.9-71.67-16.24
		s-65.15,17-68.95,25.41c-3.8,8.34-6.58,37.01-6.58,37.01l-2.26-1.28l-0.47-7.24c-0.33-5-10.58-4.78-10.21,0.97l0.65,10
		c0.42,6.49,10.56,4.48,10.32,0.75l1.44,1.33c0,0,0.36,0.95,0.25,3.88s4.59,3.67,4.59,3.67l151.52-9.89c0,0,4.48-1.34,4.07-4.24
		c-0.49-2.89-0.25-3.88-0.25-3.88l1.25-1.51c0.24,3.73,10.56,4.41,10.13-2.09l-0.65-10C271.97,173.49,261.77,174.53,262.09,179.53z
		 M247.21,192.72l-131.37,8.57c0,0-8.63,0.94-8.18-8.16c0.46-9.1-0.34-31.61,16.23-38.46s30.88-10.34,54.1-11.85
		s37.79,0.16,55.18,4.72s19.53,27.06,21.09,36.03C255.89,192.45,247.21,192.72,247.21,192.72L247.21,192.72z"/>
</g>
<path style="fill:#FFFFFF;" d="M234.19,217.17l10.08-0.66c1.64-0.11,3.15,1.14,3.26,2.86l0.29,4.48c0.11,1.64-1.14,3.15-2.86,3.26
	l-10.15,0.66L234.19,217.17L234.19,217.17z M132.01,223.84l-10.15,0.66c-1.64,0.11-2.97,1.54-2.86,3.26l0.29,4.48
	c0.11,1.64,1.54,2.97,3.26,2.86l10.15-0.66L132.01,223.84L132.01,223.84z"/>
<path style="fill:#8E949A;" d="M131.28,278.07l-17.39,1.13c-2.02,0.13-3.69-1.33-3.82-3.35l-1.25-19.18
	c-0.13-2.02,1.33-3.69,3.35-3.82l17.39-1.13c2.02-0.13,3.69,1.33,3.82,3.35l1.25,19.18C134.75,276.19,133.29,277.93,131.28,278.07z
	 M259.43,269.7l-17.47,1.14c-2.02,0.13-3.69-1.33-3.82-3.35l-1.25-19.18c-0.13-2.02,1.33-3.69,3.35-3.82l17.39-1.13
	c2.02-0.13,3.69,1.33,3.82,3.35l1.25,19.18C262.91,267.83,261.37,269.58,259.43,269.7L259.43,269.7z"/>
<path style="fill:#FFFFFF;" d="M262.35,245.93L107.9,256.01c-1.45,0.09-2.75-0.66-2.82-1.74l-0.32-4.92c-0.07-1.03,1.05-2,2.57-2.1
	l154.38-10.08c1.45-0.09,2.75,0.66,2.82,1.74l0.32,4.92C264.92,244.92,263.8,245.84,262.35,245.93L262.35,245.93z"/>
<g>
	<g>
		<g>
			<path style="fill:#92A8B4;" d="M124.9,321.1l2.6,3.4c0.4,0.7,0.9,0.7,1.6,0.7c0.5,2.1-0.4,2.8-1.9,2.8c-1.5,0-2.1-0.8-2.7-1.8
				l-3-4.5h-2.9c0,0.7-0.1,3.8,0,4.5c0.1,1.1-0.2,1.5-1.1,1.5h-1.3c-1.2,0-1.2-1.1-1.2-1.9c0.1-2.1,0.1-13.2,0.1-13.9
				c0-0.9-0.2-2.1,1.4-2.1h5.4c4.5,0,6.8,2.5,6.8,6C128.6,318.5,127,320.3,124.9,321.1z M121.6,312.4h-3.1c-0.1,1.5,0,5.8,0,6.8h3.1
				c2,0,3.4-1.2,3.4-3.4C125.1,314.2,124.1,312.4,121.6,312.4z"/>
			<path style="fill:#92A8B4;" d="M134,309.8h9.4c0.9,0,1.1,0.4,1.1,1.1v0.9c0,0.7-0.4,1-1.1,1h-6.9v4.6c1.9,0,5.3,0,5.9,0
				c0.5,0,0.9,0.2,0.9,0.8v1.1c0,0.7-0.2,0.8-0.8,0.8c-0.8,0-4,0-6,0c0,1.7,0,3.2,0.1,4.5c2,0,6.1,0,6.9-0.1
				c0.8-0.1,1.1,0.3,1.1,1.1v1.2c0,0.7-0.2,0.8-1.1,0.8h-9.3c-1.2,0-1.2-1.1-1.2-1.9c0.1-2.1-0.1-13.2-0.1-13.8
				C132.8,311.1,132.4,309.8,134,309.8z"/>
			<path style="fill:#92A8B4;" d="M154,309.8h2.4c1.1,0,1.5,0.6,1.8,1.5c0.2,0.9,4.2,13.5,4.6,14.9c0.2,0.9,0.1,1.5-0.8,1.5h-1.1
				c-1.2,0-1.3-0.9-1.5-1.3s-0.4-1.5-1-2.8h-6.6c-0.5,1.4-0.8,2.4-0.9,2.7c-0.2,0.9-0.4,1.4-1.3,1.4h-1.5c-0.7,0-1-0.6-0.7-1.4
				c0.6-2.2,4.7-14,4.9-15C152.5,310.4,152.8,309.8,154,309.8z M152.4,321.1h5.4c-1.1-3.5-2.3-7.6-2.6-8.7H155
				C154.7,313.6,153.5,317.7,152.4,321.1z"/>
			<path style="fill:#92A8B4;" d="M178,313c-0.4,0.7-0.8,0.9-0.8,0.9s-1.3-1.3-4-1.3c-3.4,0-4.9,2.8-4.9,6.1c0,3.4,1.8,6.2,4.9,6.2
				c1.6,0,2.6-0.5,3.2-0.9c0.4-0.3,0.8-0.5,1.2,0.2l0.7,1.2c0.2,0.4,0.4,0.7-0.1,1.1c-0.7,0.6-2.4,1.4-5,1.4c-5.6,0-8.4-3.9-8.4-9.2
				c0-5.2,2.7-9.2,8.3-9.2c2.8,0,4.3,0.9,4.8,1.2C178.3,311.1,178.9,311.8,178,313z"/>
			<path style="fill:#92A8B4;" d="M194.9,310.9v1.1c0,0.7-0.1,0.8-1.1,0.8h-4.3c-0.1,3.6-0.1,12.1-0.1,12.6c0,0.9,0.5,2.1-1.1,2.1
				H187c-1.2,0-1.3-1.1-1.2-1.9s0.2-9.9,0.1-12.9c-0.8,0-3.8,0-4.2,0c-0.8,0.1-1-0.3-1-1v-1.2c0-0.7,0.1-0.8,1.1-0.8
				c0,0,10.7,0.1,12.2,0C194.7,309.8,194.9,310.2,194.9,310.9z"/>
			<path style="fill:#92A8B4;" d="M204.2,328c-5.5,0-8.1-3.9-8.1-9.2c0-5.2,2.6-9.2,8-9.2c5.2,0,8,4,8,9.2
				C212.2,324,209.4,328,204.2,328z M204.2,312.6c-3.3,0-4.4,2.9-4.4,6.2c0,3.3,1.1,6.2,4.4,6.2c3.3,0,4.4-3,4.4-6.2
				C208.6,315.4,207.5,312.6,204.2,312.6z"/>
			<path style="fill:#92A8B4;" d="M223.2,328c-6,0-7.3-3.3-7.4-8.5c-0.1-3.5,0-7.1,0-7.8c0-0.9-0.3-1.8,1.1-1.8h1.3
				c1.2,0,1.3,0.8,1.2,1.6c-0.1,0.9-0.1,4.7-0.1,8c0,3.5,0.9,5.5,3.8,5.5c2.8,0,3.7-1.9,3.7-5.6c0-3.4,0-7,0-7.7
				c0-0.9-0.3-1.8,1.1-1.8h1.3c1.2,0,1.3,0.8,1.3,1.6c0,0.9-0.1,6.7-0.2,8C230.2,324.6,228.8,328,223.2,328z"/>
			<path style="fill:#92A8B4;" d="M244.7,321.1l2.6,3.4c0.4,0.7,0.9,0.7,1.6,0.7c0.5,2.1-0.4,2.8-1.9,2.8s-2.1-0.8-2.7-1.8l-3-4.5
				h-2.9c0,0.7-0.1,3.8,0,4.5c0.1,1.1-0.2,1.5-1.1,1.5H236c-1.2,0-1.2-1.1-1.2-1.9c0.1-2.1,0.1-13.2,0.1-13.9c0-0.9-0.2-2.1,1.4-2.1
				h5.4c4.5,0,6.8,2.5,6.8,6C248.4,318.5,246.7,320.3,244.7,321.1z M241.4,312.4h-3.1c-0.1,1.5,0,5.8,0,6.8h3.1c2,0,3.4-1.2,3.4-3.4
				C244.8,314.2,243.9,312.4,241.4,312.4z"/>
		</g>
	</g>
	<g>
		<path style="fill:#8E949A;" d="M173.02,336.08c-0.88,1.38-1.38,3.03-2.58,4.2c0.02,0.02,0.02,0.05,0.02,0.07
			c0.01,0.12-0.16,0.19-0.11,0.31c-0.52,0.62-1.05,1.22-1.42,1.95c-0.27,0.15-0.44,0.37-0.56,0.66c-0.14,0.01-0.17,0.1-0.28,0.15
			c-0.64,0.93-1.37,1.79-2.21,2.53c-0.31,0.27-0.64,0.49-0.93,0.74c-0.2,0.16-0.37,0.38-0.55,0.55c-0.59,0.61-1.17,1.04-2.01,1.25
			c-0.09,0.53,0.16,1.12-0.04,1.64l0,0.05c0.02,0.23,0.19,0.42,0.21,0.65c0.01,0.09-0.02,0.16-0.09,0.22l0.43-0.04
			c0.03,0.31,0.34,0.51,0.35,0.63c0.03,0.38,0.06,0.94-0.32,1.13l0.01,0.1c0.02,0.23,0,0.45-0.14,0.66
			c-0.12,0.01-0.24,0.04-0.36,0.05c-0.45,0.04-0.89-0.03-1.29-0.22c-0.29-0.57-0.42-1.2-0.47-1.83c-0.1-1.23,0.05-2.47,0.05-3.71
			l0.2-0.51c-0.02-1.29,0.31-2.57,0.16-3.85c0.12-0.39,0.17-0.85,0.14-1.25c-0.02-0.23-0.06-0.45-0.18-0.65
			c0.13-0.1,0.13-0.27,0.21-0.38c0-0.87-0.03-1.74-0.1-2.61c-0.04-0.47-0.1-0.93-0.19-1.4c-0.03-0.17-0.14-0.46-0.16-0.6
			c-0.02-0.19,0-0.38-0.01-0.57c-0.02-0.23-0.07-0.45-0.21-0.63c-1.03,0.4-1.8,1.04-2.63,1.76c-0.32,0.29-0.76,0.73-1.13,0.93
			c-0.07,0.04-0.19,0.07-0.26,0.07c-0.23,0.02-0.44-0.01-0.65,0c-0.17-0.14-0.37-0.25-0.59-0.32c-0.05-0.14-0.08-0.29-0.09-0.45
			c-0.03-0.31,0.02-0.61,0.1-0.9c0.54-0.25,1.21-0.5,1.44-1.1c0.06,0.03,0.11,0.04,0.18,0.04c0.1-0.01,0.21-0.05,0.31-0.08
			c0.38-0.29,0.77-0.61,1.2-0.83c0.13-0.06,0.13-0.12,0.1-0.25c0.51-0.2,1.1-0.44,1.46-0.86l0.29-0.02
			c0.63-0.56,1.55-0.69,2.16-1.28c0.05-0.02,0.12-0.04,0.17-0.05c0.07-0.01,0.14,0.01,0.19,0.02c0.21-0.14,0.36-0.33,0.51-0.53
			c0.74-0.08,1.1-0.37,1.7-0.75c0.12,0.02,0.17,0.11,0.32,0.09c0.44-0.37,1.07-0.3,1.46-0.67c0.73-0.06,1.45-0.17,2.18-0.24
			c1.04-0.09,2.17-0.1,3.09,0.45c0.21,0.38,0.48,0.73,0.82,0.98c0.07,0.22,0.14,0.44,0.25,0.64c-0.07,0.18-0.09,0.38-0.07,0.56
			c0.03,0.4,0.19,0.79,0.22,1.17C173.45,334.56,173.1,335.3,173.02,336.08z M171.59,332.78c-0.31-0.2-0.44-0.63-0.75-0.79
			c-0.22-0.1-0.65-0.05-0.92-0.1c-0.28-0.06-0.29-0.19-0.62-0.16c-0.28,0.02-0.53,0.13-0.81,0.16c-0.23,0.02-0.43-0.08-0.65-0.07
			c-0.26,0.02-0.41,0.28-0.71,0.23c-0.24,0.26,0.07,0.24-0.43,0.28c-0.49,0.04-1,0.21-1.33,0.55c-0.07-0.01-0.12-0.02-0.19-0.02
			c-0.38,0.03-0.68,0.39-1.12,0.42c-0.51,0.6-1.59,0.64-1.91,1.38c0,0.19,0.21,0.16,0.22,0.33c0.01,0.16-0.05,0.41-0.03,0.63
			c0.04,0.52,0.24,1.01,0.39,1.5c-0.12,0.08-0.1,0.24-0.22,0.32c0.2,0.46,0.32,0.93,0.37,1.43c0.07,0.78-0.11,1.56-0.11,2.35
			c0.01,0.16,0.15,0.14,0.16,0.27c0,0.04,0,0.05-0.01,0.09c-0.11,1.55-0.24,3.11-0.27,4.67l0.14-0.01c0.59-0.05,1-0.5,1.3-0.97
			l0.26-0.02c1.49-1.56,2.91-3.18,4.1-5.01c0.17-0.01,0.2-0.16,0.35-0.21c0.41-0.7,0.86-1.4,1.42-2.02
			c0.01-0.49,0.42-0.66,0.39-1.19c0.12-0.06,0.25-0.11,0.35-0.22c0.02-0.23,0.17-0.42,0.16-0.64c0-0.05-0.03-0.1-0.05-0.15
			c0.72-0.41,0.58-1.62,0.73-2.33C171.64,333.3,171.59,333.02,171.59,332.78z"/>
		<path style="fill:#8E949A;" d="M182.32,344.58c0,0.05,0.04,0.12,0.08,0.17c-0.31,0.03-0.34,0.29-0.44,0.53
			c-0.38,0.01-0.4,0.03-0.53,0.36c-0.85,0.26-1.46,0.96-2.26,1.29c-0.09,0.18-0.23,0.33-0.4,0.45l-0.05,0
			c-0.1,0.03-0.2-0.05-0.3-0.04c-0.02,0-0.05,0-0.07,0.02c-0.33,0.27-0.7,0.39-1.1,0.42c-0.23,0.02-0.44,0-0.64,0.02
			c-0.16,0.01,0,0.19-0.26,0.21c-0.26,0.02-0.49-0.06-0.77,0c-0.53-0.23-0.82-0.42-1.11-0.94c-0.14-0.25-0.39-0.44-0.5-0.69
			c-0.07-0.19-0.3-1.08-0.31-1.25c-0.02-0.28,0.01-0.54,0.02-0.8c0.07-0.86-0.03-1.76,0.22-2.6c-0.07-0.24-0.08-0.48-0.1-0.73
			c-0.02-0.19-0.05-0.36-0.13-0.53c0.07-0.15,0.11-0.32,0.1-0.5c-0.02-0.19-0.1-0.32-0.29-0.34l0-0.05
			c-0.02-0.23-0.12-0.41-0.29-0.53c-0.07-0.78,0.34-1.15,0.97-1.5c0.03-0.05,0.06-0.11,0.04-0.18c0.14,0.04,0.29,0.08,0.43,0.07
			c0.1-0.01,0.22-0.04,0.31-0.08c0.09,0.27,0.44,0.24,0.64,0.31l0.02,0.21c0.03,0.37,0.14,0.67,0.33,0.98
			c-0.05,0.2-0.05,0.39-0.04,0.58c0.02,0.28,0.08,0.54,0.1,0.79c0.02,0.28,0.01,0.56-0.18,0.78c0.01,0.57,0.14,1.59-0.19,2.09
			c0.01,0.35,0.02,0.7,0.05,1.02c0.04,0.49,0.16,1.28,0.42,1.69c0.12,0.18,0.54,0.23,0.75,0.22c0.24-0.02,0.53-0.12,0.64-0.33
			c0.14,0,0.15,0.16,0.28,0.22c1.24-0.65,2.5-1.22,3.67-1.97c0.11,0.04,0.2,0.05,0.3,0.04c0.22-0.02,0.44-0.11,0.67-0.13l0.12-0.01
			c0.02,0.05,0.04,0.1,0.05,0.15C182.58,344.29,182.3,344.39,182.32,344.58z"/>
		<path style="fill:#8E949A;" d="M193.89,346.97c-0.1,0.01-0.21,0-0.31,0.01c-0.12,0.01-0.06,0.16-0.16,0.21
			c-0.12-0.02-0.25-0.03-0.35-0.02c-0.14,0.01-0.29,0.04-0.43,0.05c-0.35,0.03-0.29-0.15-0.53-0.24c-0.16-0.06-0.22,0.07-0.44-0.08
			c-0.56-0.39-0.85-1.32-1.43-1.83l-0.14,0.01c-0.19,0.02-0.32,0.1-0.4,0.28c-0.13-0.06-0.24-0.15-0.38-0.21
			c-0.51,0.2-1.07,0.37-1.62,0.42c-0.16,0.01-0.31,0.03-0.47,0c-0.2,0.1-0.36,0.29-0.58,0.31c-0.09,0.01-0.18-0.02-0.25-0.05
			c-0.12,0.01-0.02,0.18-0.18,0.19l-0.16,0.01c-0.31,0.03-0.62,0.09-0.93,0.11c-0.22,0.02-0.45,0-0.67-0.03
			c-0.05,0.04-0.12,0.06-0.19,0.07c-0.17,0.12-0.09,0.43-0.39,0.4c-0.01,0.28-0.28,0.39-0.25,0.7c-0.46,0.3-0.51,0.95-0.99,1.24
			c-0.06,0.09-0.05,0.21-0.03,0.32c-0.24,0.23-0.61,0.45-0.94,0.48c-0.35,0.03-0.57-0.16-0.72-0.46c-0.02-0.45-0.02-1.1,0.45-1.33
			c-0.02-0.19-0.23-0.19-0.23-0.4c1.18-0.69,1.48-2.13,2.38-3.08l-0.03-0.36c0.3-0.36,0.49-0.79,0.56-1.27
			c0.24-0.07,0.29-0.29,0.27-0.51c0.1-0.01,0.09-0.18,0.23-0.14c0.31-1.11,0.94-1.86,1.01-3.09c0.29-0.04,0.25-0.4,0.26-0.63
			c0.61-0.68,0.42-1.87,1-2.65l0-0.05c-0.01-0.1-0.15-0.08-0.16-0.2c0,0,0.02-0.02,0.01-0.04c0.25-0.14,0.29-0.48,0.56-0.61
			c0.5,0.32,0.78,0.33,1.37,0.32c0.32,0.3,0.33,0.78,0.47,1.18c0.23,0.7,0.55,1.35,0.72,2.07c0.11,0.43,0.38,0.77,0.47,1.18
			c0.08,0.31,0.01,0.75,0.16,1.03l0.15,0.27c0.12,0.25,0.23,0.5,0.33,0.78c0.23,0.66,0.4,1.48,0.77,2.1
			c0.26,0.41,1.09,0.24,1.48,0.21c0.12-0.01,0.24-0.02,0.37,0c0.04,0.07,0.08,0.15,0.09,0.24c0.02,0.28-0.23,0.4-0.21,0.61
			c0.01,0.07,0.05,0.14,0.08,0.18c-0.07-0.01-0.14,0-0.21,0c-0.24,0.02-0.52,0.1-0.75,0.2c0.21,0.37,0.56,0.58,0.92,0.78
			c0.1-0.09,0.21-0.16,0.33-0.17c0.28-0.02,0.52,0.13,0.78,0.11c0.09-0.01,0.16-0.01,0.22-0.05c0.19,0.18,0.3,0.39,0.49,0.57
			C195.21,346.73,194.39,346.92,193.89,346.97z M189.46,343.12c-0.11-0.31-0.16-0.69-0.26-1.01c-0.2-0.75-0.46-1.52-0.82-2.22
			c0.03-0.05,0.06-0.13,0.05-0.2l0-0.05c-0.44-0.42-0.39-1.35-0.94-1.63c-0.03,0.07-0.04,0.14-0.03,0.23
			c0.01,0.16,0.08,0.29,0.09,0.45c-0.22,0.12-0.24,0.42-0.44,0.58c-0.26,1.47-1.24,2.65-1.54,4.11c-0.26,0.21-0.32,0.57-0.29,0.88
			c0.44,0.21,1.04-0.14,1.41,0.2c0.27-0.11,0.69-0.15,0.9-0.32c0.23,0.07,0.48,0.08,0.74,0.06c0.26-0.02,0.53-0.1,0.77-0.19
			c0.2,0.04,0.28,0.17,0.5,0.13c0.1-0.1,0.09-0.22,0.17-0.31C189.7,343.45,189.55,343.37,189.46,343.12z"/>
		<path style="fill:#8E949A;" d="M203.02,335.37c0.01,0.12,0.08,0.15,0.09,0.22l0.01,0.09c-0.41,0.47-0.31,1.13-0.47,1.68
			c-0.08,0.27-0.27,0.46-0.38,0.71c-0.16,0.42-0.13,0.88-0.38,1.25l0.01,0.09c-0.01,0.09,0.03,0.15,0.09,0.2
			c-0.77,1.18-0.63,3.33-0.84,4.73c0.16,0.49,0.48,0.88,0.72,1.33c0.46,0.07,0.94,0.2,1.17,0.63c0.01,0.47-0.27,0.69-0.6,0.98
			c-0.27-0.07-0.38-0.14-0.67-0.07c-0.46-0.29-0.85-0.36-1.19-0.82c-0.04-0.07-0.16-0.04-0.25-0.03c-0.25-0.52-0.84-1.24-0.88-1.79
			c-0.1-1.14,0.12-2.31,0.02-3.48l-0.01-0.17c-0.44,0.14-0.85,0.44-1.29,0.6c-0.15,0.06-0.11,0.18-0.22,0.26
			c-0.21,0.04-0.41,0.07-0.6,0.09c-0.78,0.07-1.73,0.02-2.32-0.57c-0.05,0.02-0.12,0.06-0.17,0.07c-0.07,0.01-0.14-0.02-0.2-0.04
			c-0.4-0.45-0.52-1.16-0.99-1.56c-0.05-0.21-0.09-0.4-0.1-0.6c-0.03-0.4,0-0.79,0.08-1.18c-0.11-0.27-0.17-0.56-0.2-0.86
			c-0.06-0.68,0.11-1.58,0.94-1.65c0.45-0.04,0.84,0.24,1.23,0.46c0.07,0.26,0.11,0.51,0.14,0.79c0.05,0.55,0.01,1.12,0.05,1.67
			c0.05,0.57,0.22,1.1,0.63,1.5l0.07-0.01c0.17-0.03,0.32,0.09,0.48,0.08c0.16-0.01,0.21-0.21,0.35-0.22
			c0.14-0.01,0.2,0.05,0.25,0.05c0.23-0.02,0.62-0.28,0.69-0.5c0.05,0.03,0.11,0.04,0.16,0.04c0.19-0.02,0.3-0.2,0.56-0.22
			c0.12-0.01,0-0.26,0.1-0.31c0.27-0.13,0.63-0.44,0.81-0.5c0.08-0.3,0.25-0.58,0.42-0.82c0.05-1.07,0.73-1.95,0.79-3
			c0.22-0.26,0.33-0.59,0.41-0.89c0.22-0.09,0.64-0.12,0.86-0.14l0.29-0.03c0.08,0.13,0.23,0.23,0.33,0.34
			c-0.08,0.15-0.11,0.32-0.1,0.48c0.02,0.26,0.16,0.47,0.32,0.67C203.24,335.14,203.01,335.3,203.02,335.37z"/>
		<path style="fill:#8E949A;" d="M220.5,336.44l-0.03,0.02c-0.17,0.01-0.14-0.25-0.28-0.24c-0.24,0.02-0.48,0.11-0.71,0.13
			c-0.16,0.01-0.31,0.01-0.46-0.03c-0.15,0.05-0.08,0.27-0.22,0.33c-0.12,0.05-0.29,0.04-0.43,0.09c-0.36,0.1-0.71,0.27-1.08,0.3
			c-0.09,0.01-0.16,0.01-0.23,0c-0.61,0.61-1.77,0.48-2.41,1.23c-0.07-0.01-0.16-0.02-0.25-0.01c-0.28,0.02-0.49,0.22-0.72,0.34
			c-0.12,0.06-0.22,0.05-0.34,0.1c-0.14,0.05-0.12,0.18-0.22,0.26c0.07,0.81,0.38,1.59,0.45,2.41l0.01,0.07
			c0.07,0.36,0.39,0.66,0.42,1.01c0,0.05-0.01,0.12-0.02,0.18c1.2,0.16,0.65,2.09,1.92,2.21c0.07,0.22,0.11,0.46,0.13,0.69
			c0.03,0.31,0,0.65-0.18,0.91c-0.33,0.05-0.4,0.02-0.72,0.18c-0.93-0.46-1.48-1.36-2.2-2.07c-1.14,0.38-2.4,0.57-3.61,0.67
			c-0.1,0.08-0.4,0.02-0.35,0.2c-0.15-0.07-0.38-0.09-0.53-0.08c-0.12,0.01-0.23,0.02-0.32,0.1c-0.86-0.09-1.69-0.37-2.54-0.47
			c-0.01-0.17-0.14-0.22-0.22-0.35c-0.99-0.53-1.82-1.26-1.8-2.47l-0.14-0.23c-0.01-0.14-0.01-0.28,0.09-0.39
			c-0.06-0.1-0.15-0.16-0.26-0.22c0.18-0.33,0.31-0.69,0.35-1.06c0.01-0.1,0-0.21,0.03-0.32c0.04-0.14,0.11-0.32,0.17-0.47
			c0.28-0.79,0.63-1.59,1.27-2.15c0.02-0.79,0.74-1,0.89-1.66c0.42-0.42,0.89-0.79,1.18-1.32c0.39-0.15,0.75-0.39,0.97-0.76
			c0.55-0.08,1.05-0.35,1.62-0.4c0.26-0.02,0.68,0.03,0.88,0.26c0.08,0.08,0.02,0.28,0.19,0.23c0.04,0.49,0.04,1.08-0.42,1.38
			c-0.16-0.04-0.32-0.04-0.47-0.03c-0.88,0.07-1.39,0.9-2.19,1.16c-0.02,0.18-0.06,0.32-0.01,0.49c-0.1,0.01-0.16-0.04-0.25-0.03
			c-0.16,0.01-0.17,0.28-0.21,0.38c-0.84,0.42-0.87,1.54-1.67,1.97c-0.11,0.73-0.21,1.45-0.38,2.16c0.05,0.14,0.08,0.29,0.09,0.43
			c0.01,0.16,0.01,0.33-0.01,0.49c0.27,0.33,0.6,1.08,0.91,1.27c0.26,0.17,0.89,0.2,1.32,0.5c0.05,0,0.12-0.03,0.17-0.03
			c0.28-0.02,0.68,0.15,0.76,0.14c1.25-0.11,2.86-0.45,4.09-0.78c0.01-0.09,0.02-0.19,0.01-0.3c-0.02-0.28-0.14-0.58-0.34-0.77
			c-0.03-0.33-0.04-0.68-0.07-1.01c-0.05-0.57-0.12-1.25-0.36-1.77l-0.04,0c-0.29,0.03-0.5,0.27-0.74,0.29
			c-0.05,0-0.12-0.01-0.18-0.04c-0.5,0.67-1.57,0.67-2.22,1.24c-0.07-0.03-0.16-0.04-0.25-0.03c-0.16,0.01-0.31,0.06-0.48,0.09
			c-0.24-0.17-0.39-0.44-0.41-0.73c-0.03-0.31,0.07-0.63,0.22-0.91c0.21-0.16,0.69-0.06,0.7-0.42c0.02,0.03,0.04,0.05,0.07,0.05
			c0.05,0,0.08-0.04,0.14-0.05c0.05,0,0.09,0.06,0.1,0.09c1.84-1.2,4.01-1.72,6.04-2.52c0.13-0.15,0.33-0.2,0.46-0.35
			c0.09,0.04,0.2,0.05,0.28,0.04c0.31-0.03,0.72-0.2,0.96-0.39c0.09,0.01,0.17,0,0.24,0c0.43-0.04,0.84-0.23,1.18-0.48l0.09-0.01
			c0.69-0.06,1.37-0.36,2.08-0.42c0.43-0.04,0.86,0.03,1.24,0.26l0.02,0.21c0.01,0.16,0.03,0.31,0.11,0.46
			C221.26,336.11,220.53,335.97,220.5,336.44z"/>
		<path style="fill:#8E949A;" d="M238.21,341.4c-0.11-0.03-0.21-0.04-0.32-0.03c-0.7,0.02-1.28,0.39-1.93,0.53
			c-0.21,0.04-0.4,0.05-0.6,0.09c-1.42,0.33-3.29,0.52-4.58,1.16c-0.07-0.05-0.15-0.09-0.23-0.09c-0.23,0-0.41,0.14-0.62,0.12
			c-0.43,0.33-1.04,0.23-1.43,0.61c-0.18-0.07-0.53-0.01-0.62-0.16c-0.52,0.29-1.1,0.39-1.67,0.42c-0.77,0.03-2.16-0.18-2.67-0.8
			c-0.17-0.19-0.2-0.52-0.47-0.64c0.04-0.53,0.09-1.04,0.13-1.53c0.42-0.42,0.78-0.89,1.12-1.39c0.81-0.51,1.35-1.35,2.16-1.88
			c0.11-0.32,0.52-0.41,0.58-0.8c0.74-0.53,1.34-1.32,1.43-2.25c-0.42-0.26-0.93-0.3-1.44-0.3c-0.47,0.02-0.95,0.1-1.44,0.11
			c-0.98,0.4-2.13,0.23-3,0.85c-0.09,0.01-0.17,0-0.26-0.01c-0.73,0.03-1.3,0.49-1.9,0.82c-0.01,0.04-0.01,0.07-0.01,0.11
			c-0.01,0.14,0.09,0.25,0.1,0.39c0,0.02,0,0.05-0.01,0.05c-0.03,0.11-0.07,0.22-0.08,0.32c-0.09,0.38-0.13,0.73-0.12,1.09
			c0.03,0.57,0.11,1.14,0.14,1.72c0.01,0.35-0.01,0.7-0.09,1.04c0.3,1.07,0.53,2.36,1.22,3.3c-0.03,0.11,0.2,0.05,0.23,0.05
			c0.05,0,0.09,0.01,0.08,0.06c0.04,0.07,0.06,0.13,0.14,0.16c0.02,0.03,0.02,0.07,0.01,0.12c0.02,0.45-0.26,0.84-0.26,1.3
			c-0.12,0.04-0.24,0.07-0.36,0.06c-0.76,0.03-1.2-0.77-1.75-1.14c-0.19-0.59-0.37-1.47-0.76-1.96c0.04-0.13,0.05-0.27,0.04-0.39
			c-0.02-0.45-0.2-0.89-0.22-1.34c-0.02-0.24,0.05-0.48,0.04-0.74c-0.01-0.38-0.2-0.73-0.22-1.12c0-0.17,0.04-0.37,0.15-0.5
			c-0.06-0.13-0.09-0.27-0.09-0.39c-0.01-0.37,0.04-0.7,0.03-1.05c0-0.18-0.03-0.35-0.09-0.5c-0.05-0.03-0.11-0.04-0.16-0.04
			c-0.28,0.01-0.42,0.37-0.54,0.38c-0.05,0-0.11-0.03-0.16-0.02c-0.07,0.01-0.57,0.47-0.74,0.52c-0.47-0.03-0.57-0.53-1-0.44
			c-0.08-0.13-0.08-0.31-0.09-0.46l0-0.26c0.26-0.62,1.04-0.77,1.49-1.21l0.14-0.01c0.8-0.03,1.09-0.93,1.76-1.23
			c0.25,0.08,0.54,0.15,0.81,0.14c0.3-0.01,0.64-0.12,0.81-0.38c0.11,0.03,0.19,0.02,0.3,0.03c0.35-0.01,0.68-0.2,0.98-0.4
			c0.91-0.04,1.72-0.53,2.62-0.57c0.75-0.03,1.44-0.33,2.19-0.36c0.52-0.03,1.03,0,1.55-0.06c0.31,0.11,0.52,0.22,0.87,0.17
			c0.39,0.28,0.75,0.6,1.06,0.97c0.03,0.1,0.02,0.19,0.02,0.28c0.05,1.06-0.51,2.05-0.86,3.01c-1.36,1.44-2.69,2.9-4.15,4.24
			c-0.02,0.21-0.12,0.39-0.12,0.6c0,0.05,0.01,0.09,0.03,0.14c0.16,0.04,0.33,0.15,0.31,0.36l0.15-0.03c0.04,0,0.09,0.01,0.09,0.06
			l0.26,0c1.74-0.08,3.4-0.69,5.13-0.87c0.18-0.08,0.44-0.12,0.61-0.26c0.02-0.02,0.03-0.02,0.05-0.02c0.16-0.01,0.2,0.12,0.36,0.13
			c0.12-0.01,0.24-0.09,0.37-0.12c0.32-0.11,0.67-0.16,1.01-0.22c1.27-0.21,2.58-0.27,3.84-0.67c0.25,0.31,0.93,0.06,1.12,0.45
			C238.66,341.05,238.45,341.21,238.21,341.4z"/>
		<path style="fill:#8E949A;" d="M243.92,334.04c0.02,0.26,0.06,0.52,0.08,0.78l0.02,0.24c-0.04,0.16-0.13,0.34-0.17,0.5
			c-0.12,0.41-0.16,0.83-0.12,1.27l0,0.03c-0.16,0.57-0.4,0.86-0.31,1.49c-0.23,0.82-0.78,1.46-1.21,2.18
			c-0.45,0.23-0.83,0.56-1.14,0.95c-0.68,0.27-1.36,0.6-1.86,1.13c-0.43,0.09-0.86,0.21-1.26,0.42l-0.19,0.02
			c-0.09,0.01-0.17,0-0.23-0.05c-0.28,0.18-0.61,0.26-0.92,0.29c-0.4,0.03-0.8,0-1.21-0.04c-0.25-0.31-0.73-0.39-1.07-0.52
			c-0.73-0.84-0.99-1.63-1.39-2.64c0.01-0.33,0.16-0.64,0.11-0.99c0.3-1.2,0.92-2.19,1.69-3.15c-0.01-0.14,0.07-0.2,0.02-0.37
			c0.02,0.02,0.05,0.01,0.07,0.01c0.17-0.01,0.18-0.14,0.15-0.27c0.77-0.57,1.29-1.42,2.11-1.94c0.05-0.2,0.25-0.32,0.32-0.52
			c0.69-0.27,1.21-0.78,1.82-1.17c0.35-0.22,0.66-0.3,1.03-0.42c0.14-0.05,0.22-0.09,0.36-0.1c0.42-0.04,0.8,0.16,1.21,0.12
			c0.09-0.01,0.17-0.03,0.26-0.06c0.23,0.23,0.49,0.38,0.77,0.48c0.32,0.64,0.96,0.84,1.13,1.62
			C243.88,333.55,243.91,333.83,243.92,334.04z M242.35,334.22c-0.21-0.05-0.44-0.19-0.68-0.17c-0.09,0.01-0.16,0.03-0.24,0.07
			c-0.06-0.31-0.46-0.22-0.64-0.38c-0.08-0.17-0.16-0.39-0.35-0.46c-0.38,0.43-1.12,0.53-1.43,1.05l-0.31,0.03
			c-0.12,0.25-0.41,0.35-0.56,0.59c-0.7,0.44-1.09,1.17-1.69,1.73c-0.48,1.31-1.38,1.83-1.25,3.44c0.01,0.1,0.02,0.23,0.05,0.34
			c0.3,0.29,0.46,0.71,0.93,0.83s0.98-0.03,1.47,0.07c1.06-0.28,2.04-0.87,2.87-1.59c0.13-0.12,0.33-0.27,0.44-0.4
			c0.1-0.11,0.15-0.29,0.23-0.4c0.17-0.31,0.37-0.62,0.59-0.91c0.14-0.99,0.66-1.87,0.57-2.91c-0.01-0.12-0.04-0.24-0.07-0.36
			c0.08-0.13,0.11-0.29,0.1-0.43C242.38,334.31,242.37,334.28,242.35,334.22z"/>
		<path style="fill:#8E949A;" d="M255.02,340.75l-0.22,0.02c-1.87,0.16-2.01-1.92-2.49-3.21c-0.52,0.48-0.51,1.35-1.28,1.63
			c-0.06,0.16-0.13,0.33-0.13,0.5c-0.94,0.6-1.44,1.71-2.45,2.23c-0.02-0.02-0.05-0.01-0.07-0.01c-0.26,0.02-0.45,0.23-0.73,0.25
			c-0.35,0.03-0.6-0.3-0.96-0.21c-0.26-0.38-0.77-0.65-0.9-1.09c-0.05-0.21-0.07-0.41-0.14-0.63c-0.1-0.34-0.27-0.68-0.37-1.03
			c0.12-1.25,0.07-3.06,0.82-4.1l-0.03-0.12c-0.08-0.74,0.58-1.24,0.39-1.94c0.27-0.16,0.55-0.29,0.86-0.32
			c0.14-0.01,0.26,0,0.4,0.04c-0.01,0.07,0.05,0.15,0.14,0.16l0,0.05c0.08,0.94-0.39,1.81-0.45,2.74c-0.17,0.07-0.08,0.32-0.27,0.32
			c-0.07,0.79-0.18,1.57-0.11,2.37c0.04,0.49,0.15,0.98,0.43,1.41l0.07-0.02c0.26-0.02,0.38,0.12,0.61,0.21
			c0.17-0.05,0.37-0.14,0.34-0.34c0.6-0.09,0.66-0.65,1.15-0.83c0-0.24,0.29-0.25,0.2-0.56c0.52-0.08,0.51-0.55,0.86-0.81
			c0.24-0.7,1.07-2.57,1.02-3.18c-0.01-0.1-0.1-0.17-0.09-0.29l0-0.05c0.33-0.48,0.44-1.17,1.03-1.43c0.37,0.09,0.76,0.06,1.11,0.15
			c0.07,0.57,0.22,1.41,0.48,1.92c0.02,0.28,0.03,0.56,0.05,0.83c0.04,0.45,0.1,0.93,0.25,1.34c-0.07,0.18-0.09,0.36-0.08,0.55
			c0.04,0.5,0.31,0.95,0.42,1.45c0.15,0.18,0.37,0.27,0.6,0.25c0.1-0.01,0.19-0.03,0.27-0.08c0.19,0.18,0.33,0.37,0.55,0.51
			C256.21,340.1,255.51,340.36,255.02,340.75z"/>
		<path style="fill:#8E949A;" d="M267.26,330.77c-0.43,0.09-0.39,0.58-0.61,0.86c0.24,0.8,0.3,1.65,0.45,2.46
			c0.19,1.01,0.6,1.99,0.69,3.03c0.02,0.29,0.03,0.57,0.05,0.85c0.02,0.19,0.05,0.38,0.07,0.57c0.06,0.66-0.12,1.32-0.15,1.99
			c-0.48,0.55-0.59,1.27-1.4,1.46c-0.05,0.23-0.29,0.32-0.39,0.52l-0.03,0c-1.14,0.1-1.57-0.58-2.54-0.76
			c-0.67-0.47-1.2-1.12-1.89-1.55c-0.18-0.44-0.51-0.65-0.78-1c-0.12-0.15-0.18-0.28-0.27-0.45c-0.08-0.15-0.26-0.19-0.39-0.26
			c-0.23-0.68-0.63-1.24-1.12-1.74c-0.25,0.51-0.16,1.18-0.47,1.68l0,0.05c0.01,0.1,0.15,0.09,0.16,0.2c0,0.02-0.01,0.04-0.01,0.05
			c-0.11,0.1-0.1,0.29-0.27,0.32c0.03,0.1,0.04,0.22,0.05,0.33c0.06,0.66-0.12,1.32-0.06,2c0.01,0.14,0.03,0.29,0.05,0.43
			c0.05,0.14,0.2,0.28,0.21,0.38c0.01,0.09-0.04,0.16-0.09,0.22c0.33,0.22,0.9,0.48,0.93,0.93c0.06,0.76-1.12,0.6-1.57,1.07l-0.05,0
			c-0.28,0.02-0.37-0.21-0.63-0.19c-0.49-0.66-0.69-1.58-0.76-2.38c-0.17-1.96,0.42-3.89,0.73-5.82c0-0.02,0.01-0.04,0.01-0.05
			c-0.01-0.09-0.1-0.11-0.1-0.2c0-0.02,0-0.04,0.01-0.04c0.05-0.23,0.12-0.45,0.15-0.68c0.17-1.32-0.1-2.66,0-3.98
			c0.18-0.19,0.29-0.43,0.51-0.6c0.47-0.02,0.93,0.04,1.37,0.25c0.34,0.95,0.44,1.94,0.78,2.87l0,0.05
			c0.01,0.12,0.18,0.04,0.25,0.12c-0.05,0.07-0.04,0.18-0.03,0.26l0.02,0.28c0.07,0.17,0.12,0.43,0.33,0.46
			c0.36,1.42,1.14,2.3,1.95,3.45c1.22,0.77,1.6,2.24,3.32,2.29c0.19-0.22,0.12-0.67,0.42-0.82c-0.02-0.63-0.04-1.32,0.14-1.92
			c-0.08-0.12-0.11-0.23-0.12-0.37c-0.02-0.21,0.02-0.42,0-0.63c-0.02-0.19-0.07-0.36-0.18-0.51c-0.01-0.16-0.01-0.35,0.08-0.5
			c-0.21-0.45-0.38-0.95-0.42-1.45c-0.01-0.16-0.01-0.31,0.01-0.47c-0.35-0.65-0.23-1.95-0.76-2.38c0.06-0.11,0.08-0.25,0.07-0.37
			c-0.04-0.43-0.28-0.83-0.32-1.26c-0.01-0.17,0.01-0.33,0.06-0.48c0.49-0.02,0.98,0.04,1.47,0c0.27,0.36,0.85,0.31,1.11,0.69
			C267.29,330.32,267.2,330.48,267.26,330.77z"/>
		<path style="fill:#8E949A;" d="M280.42,332.16c0.01,0.07,0.08,0.1,0.09,0.18l0.01,0.07c-0.33,2.65-1.73,3.9-3.52,5.66
			c-0.26,0.25-0.52,0.5-0.76,0.76l-0.35,0.39c-0.02,0.02-0.32,0.17-0.37,0.19c-0.32,0.17-0.67,0.35-0.91,0.65
			c-0.43,0.04-0.71,0.22-1.06,0.46c-0.24,0.02-0.31-0.18-0.62-0.07c-0.32-0.43-0.62-0.73-1.16-0.76c-0.1-0.38-0.4-0.54-0.67-0.75
			c-0.11-0.29-0.13-0.77-0.55-0.74c-0.03-0.14,0.17-0.08,0.16-0.21c-0.01-0.14-0.09-0.27-0.1-0.41c-0.01-0.1,0.02-0.21,0.04-0.32
			c-0.06-0.31-0.1-0.62-0.13-0.93c-0.1-1.21,0.06-2.42-0.04-3.63c-0.05-0.54-0.14-1.07-0.34-1.58c-0.49,0.15-1.04,0.31-1.47,0.61
			c-0.26-0.14-0.55-0.11-0.82-0.18c-0.08-0.13-0.15-0.3-0.16-0.47c-0.03-0.31,0.09-0.62,0.17-0.92c0.54-0.17,1.04-0.46,1.56-0.69
			c0.17-0.07,0.51-0.17,0.63-0.23c0.15-0.08,0.17-0.31,0.26-0.46l0.28-0.02c0.14-0.01,0.31-0.03,0.46,0.03
			c0.8-0.28,1.61-0.36,2.43-0.54c0.19-0.03,0.82-0.23,0.94-0.24c0.04,0,0.05,0,0.06,0.05l0.29-0.03c0.95-0.08,1.92,0.17,2.85,0.32
			c0.39,0.28,0.8,0.58,1.29,0.75c0.13,0.36,0.43,0.52,0.72,0.72c0.27,0.55,0.96,1.28,1.01,1.87
			C280.64,331.93,280.4,331.95,280.42,332.16z M278.16,330.58c-0.41-0.07-0.92-0.15-1.1-0.57c-0.03,0.02-0.07,0.02-0.12,0.03
			c-0.21,0.02-0.37-0.2-0.56-0.22c-0.35-0.06-1.38-0.04-1.75-0.01c-0.19,0.02-0.38,0.05-0.57,0.08c-0.19,0.02-0.17,0.1-0.3,0.15
			c-0.12-0.02-0.25-0.01-0.38,0c-0.49,0.04-0.94,0.24-1.35,0.51l0.01,0.07c0.02,0.19,0.24,0.12,0.27,0.27
			c-0.1,0.01-0.17,0-0.16,0.14c0.02,0.23,0.11,0.51,0.14,0.77c0.02,0.21,0.03,0.54-0.13,0.69c0.13,0.09,0.18,0.25,0.19,0.4
			c0.02,0.23-0.05,0.49-0.17,0.7c0.03,0.96-0.08,1.94,0,2.9c0.04,0.47,0.13,0.93,0.31,1.35c0.26,0.22,0.57,0.32,0.89,0.41l0,0.05
			c0.01,0.07-0.13,0.15-0.12,0.25c0,0.03,0.06,0.06,0.08,0.06c0.91-0.36,1.72-0.75,2.39-1.48c0.03-0.04,0.05-0.06,0.1-0.06
			c0.05,0,0.14,0.02,0.21,0.03l-0.02-0.07c-0.02-0.26,0.34-0.48,0.45-0.7c0.17-0.05,0.19-0.26,0.4-0.28
			c0.01-0.26,0.29-0.34,0.32-0.58c0.86-0.6,1.24-1.61,1.75-2.47l-0.01-0.07c-0.03-0.35,0.13-0.55,0.17-0.87
			C278.76,331.6,278.54,331.02,278.16,330.58z"/>
	</g>
</g>
<circle style="fill:#FFFFFF;fill-opacity:0.2;stroke:#FFFFFF;stroke-width:1.496;stroke-miterlimit:10;" cx="218.74" cy="160.25" r="12.49"/>
<ellipse transform="matrix(0.5466 -0.8374 0.8374 0.5466 -81.4714 196.2704)" style="fill:#FFFFFF;fill-opacity:0.2;stroke:#FFFFFF;stroke-width:1.496;stroke-miterlimit:10.0005;" cx="140.52" cy="173.37" rx="12.49" ry="12.49"/>
</svg>
