<?xml version="1.0" encoding="utf-8"?>
<!-- Generator: Adobe Illustrator 25.4.1, SVG Export Plug-In . SVG Version: 6.00 Build 0)  -->
<svg version="1.1" id="Layer_1" xmlns="http://www.w3.org/2000/svg" xmlns:xlink="http://www.w3.org/1999/xlink" x="0px" y="0px"
	 viewBox="0 0 364 419.2" style="enable-background:new 0 0 364 419.2;" xml:space="preserve">
<style type="text/css">
	.st0{fill:#8E949A;}
	.st1{clip-path:url(#SVGID_00000056406734934192729120000000091086604339921832_);}
	.st2{opacity:0.2;fill:#FFFFFF;enable-background:new    ;}
	.st3{fill:#FFFFFF;}
	.st4{fill:#FFFFFF;fill-opacity:0.2;}
	.st5{fill:#92A8B4;}
	.st6{fill:#FFF4D9;}
	.st7{opacity:0.14;fill:#000064;enable-background:new    ;}
	.st8{fill:#2E4369;}
</style>
<g>
	<circle class="st0" cx="182" cy="171" r="105.4"/>
	<g>
		<defs>
			<circle id="SVGID_1_" cx="182" cy="171" r="105.4"/>
		</defs>
		<clipPath id="SVGID_00000026142588695888602460000006981826405064773287_">
			<use xlink:href="#SVGID_1_"  style="overflow:visible;"/>
		</clipPath>
		<g style="clip-path:url(#SVGID_00000026142588695888602460000006981826405064773287_);">
			<path class="st2" d="M208.2,157.1c-1.3-10.8-2.2-37.8-24-44.7c-21.8-6.9-40.3-10-70.1-10s-48.3,3.1-70.1,10s-22.7,33.9-24,44.7
				c-1.3,10.8,9.8,10.4,9.8,10.4h168.8C198.5,167.5,209.6,167.9,208.2,157.1z"/>
			<path class="st3" d="M223.1,155v9.7l-2.9,1.9c0,0-6.2-38-12-48.8S168.7,89.9,114,89.9s-88.4,17-94.2,27.9
				c-5.8,10.8-12,48.8-12,48.8l-2.9-1.9V155c0-6.7-13.7-7.3-13.7,0.4v13.4c0,8.7,13.7,6.9,13.7,1.9l1.8,1.9c0,0,0.4,1.3,0,5.2
				s5.8,5.3,5.8,5.3h203c0,0,6.1-1.4,5.8-5.3c-0.4-3.9,0-5.2,0-5.2l1.8-1.9c0,5,13.7,6.8,13.7-1.9v-13.4
				C236.8,147.8,223.1,148.3,223.1,155z M202.1,171.3h-176c0,0-11.6,0.5-10.2-11.6s2.3-42.2,25-49.9S83,98.7,114.1,98.7
				s50.4,3.5,73.2,11.1s23.7,37.8,25,49.9C213.7,171.7,202.1,171.3,202.1,171.3L202.1,171.3z"/>
			<g>
				<path class="st3" d="M131.3,226c-0.6-0.2-1.1-0.4-1.7-0.5l0.3-1.2c1.3-6.3,0.4-11.3-2.4-13c-2.8-1.6-7.3,0.1-11.8,4
					c-0.4,0.4-0.9,0.8-1.3,1.2c-0.3-0.3-0.6-0.5-0.9-0.8c-4.8-4.2-9.6-6-12.4-4.4c-2.8,1.6-3.6,6.3-2.4,12.3
					c0.1,0.6,0.2,1.2,0.4,1.8c-0.7,0.2-1.3,0.4-2,0.6c-5.6,2-9.2,5-9.2,8.2c0,3.3,3.8,6.6,9.7,8.6c0.5,0.2,1,0.3,1.4,0.4
					c-0.2,0.6-0.3,1.3-0.4,1.9c-1.1,5.8-0.2,10.5,2.5,12c2.8,1.6,7.6,0,12.3-4.1c0.4-0.3,0.7-0.7,1.1-1c0.5,0.4,0.9,0.9,1.4,1.3
					c4.5,3.9,8.9,5.4,11.7,3.8c2.8-1.6,3.8-6.6,2.6-12.7c-0.1-0.5-0.2-0.9-0.3-1.4c0.3-0.1,0.7-0.2,1-0.3c6.1-2,10-5.3,10-8.6
					C140.7,231.1,137.1,228,131.3,226L131.3,226z M117.1,217.1c3.9-3.4,7.6-4.7,9.2-3.8c1.8,1,2.5,5.1,1.3,10.6
					c-0.1,0.4-0.2,0.7-0.2,1.1c-2.2-0.5-4.6-0.9-7.1-1.1c-1.5-2.1-3-4-4.5-5.6C116.3,217.8,116.7,217.4,117.1,217.1z M103.4,237
					l1.5,2.7c0.5,0.9,1.1,1.8,1.7,2.7c-1.7-0.2-3.4-0.5-4.9-0.8C102.2,240.1,102.8,238.6,103.4,237L103.4,237z M103.4,231.6
					c-0.7-1.6-1.2-3.1-1.7-4.6c1.5-0.3,3.1-0.6,4.8-0.8c-0.6,0.9-1.1,1.8-1.6,2.7L103.4,231.6L103.4,231.6z M104.6,234.3
					c0.7-1.5,1.4-2.9,2.3-4.3c0.8-1.4,1.7-2.8,2.6-4.1c1.6-0.1,3.2-0.2,4.8-0.2s3.3,0.1,4.8,0.2c0.9,1.3,1.7,2.7,2.6,4.1
					c0.8,1.4,1.6,2.8,2.3,4.2c-0.7,1.5-1.5,2.9-2.3,4.3c-0.8,1.4-1.6,2.8-2.5,4.1c-1.6,0.1-3.2,0.2-4.8,0.2s-3.2-0.1-4.8-0.2
					c-0.9-1.3-1.8-2.7-2.6-4.1C106.1,237.2,105.3,235.7,104.6,234.3L104.6,234.3z M123.6,239.7c0.5-0.9,1-1.9,1.5-2.8
					c0.7,1.6,1.3,3.2,1.8,4.7c-1.5,0.4-3.2,0.6-4.9,0.8C122.6,241.5,123.1,240.6,123.6,239.7L123.6,239.7z M125.1,231.6
					c-0.5-0.9-1-1.8-1.5-2.8c-0.5-0.9-1.1-1.8-1.6-2.6c1.7,0.2,3.3,0.5,4.8,0.8C126.4,228.5,125.8,230.1,125.1,231.6z M114.3,219.8
					c1,1.1,2.1,2.4,3.1,3.8c-2.1-0.1-4.2-0.1-6.3,0C112.2,222.2,113.2,221,114.3,219.8z M102.1,213.4c1.8-1,5.7,0.4,9.8,4.1
					c0.3,0.2,0.5,0.5,0.8,0.7c-1.5,1.7-3.1,3.5-4.5,5.6c-2.5,0.2-4.9,0.6-7.1,1.1c-0.1-0.5-0.3-1.1-0.4-1.6
					C99.8,218.2,100.4,214.3,102.1,213.4L102.1,213.4z M99.5,241.1c-0.4-0.1-0.9-0.3-1.3-0.4c-2.6-0.9-4.7-2-6.2-3.3
					c-1.3-1.1-2-2.2-2-3.1c0-1.9,2.9-4.4,7.7-6.1l1.8-0.6c0.7,2.2,1.5,4.4,2.6,6.7C101.1,236.6,100.2,238.9,99.5,241.1L99.5,241.1z
					 M111.8,251.4c-2.1,1.8-4.1,3.1-5.9,3.7c-1.6,0.6-2.9,0.6-3.7,0.1c-1.7-1-2.4-4.7-1.4-9.7c0.1-0.6,0.2-1.2,0.4-1.8
					c2.2,0.5,4.6,0.8,7.1,1c1.5,2.1,3,4,4.5,5.6C112.5,250.8,112.1,251.1,111.8,251.4L111.8,251.4z M114.4,248.8
					c-1.1-1.2-2.1-2.4-3.2-3.8c1,0,2,0.1,3.1,0.1s2.1,0,3.2-0.1C116.4,246.4,115.4,247.7,114.4,248.8z M128.1,252
					c-0.3,1.7-0.9,2.8-1.7,3.3c-1.7,1-5.2-0.3-9.1-3.6c-0.4-0.4-0.9-0.8-1.3-1.2c1.5-1.6,3-3.5,4.4-5.6c2.6-0.2,5-0.6,7.2-1.1
					c0.1,0.4,0.2,0.9,0.3,1.3C128.4,247.7,128.5,250.1,128.1,252L128.1,252z M130,240.7l-0.9,0.3c-0.7-2.1-1.6-4.4-2.7-6.7
					c1.1-2.3,1.9-4.5,2.6-6.6c0.5,0.2,1.1,0.3,1.6,0.5c4.9,1.7,7.9,4.2,7.9,6.1C138.5,236.3,135.3,238.9,130,240.7L130,240.7z"/>
				<circle class="st3" cx="114.3" cy="234.2" r="4.7"/>
			</g>
			<path class="st3" d="M182.3,207h13.6c2.2,0,4.1-1.8,4.1-4.1v-6c0-2.2-1.8-4.1-4.1-4.1h-13.6L182.3,207L182.3,207z"/>
			<g>
				<ellipse transform="matrix(0.6 -0.8 0.8 0.6 -112.433 246.3343)" class="st4" cx="190.1" cy="235.6" rx="16.7" ry="16.7"/>
				<path class="st3" d="M190.1,253.3c-2.8,0-5.6-0.6-8.2-2c-4.2-2.2-7.3-5.9-8.7-10.4c-1.4-4.5-1-9.3,1.2-13.5
					c4.5-8.6,15.2-12,23.9-7.5c4.2,2.2,7.3,5.9,8.7,10.4c1.4,4.5,1,9.3-1.2,13.5C202.6,249.8,196.5,253.3,190.1,253.3z M175.3,227.8
					l0.9,0.5c-1.9,3.7-2.3,8-1.1,12s4,7.3,7.7,9.2c7.7,4,17.2,1,21.2-6.6c1.9-3.7,2.3-8,1.1-12c-1.2-4-4-7.3-7.7-9.2
					c-7.7-4-17.2-1-21.2,6.6L175.3,227.8z"/>
			</g>
		</g>
	</g>
</g>
<g>
	<g>
		<g>
			<path class="st5" d="M124.9,322.3l2.6,3.4c0.4,0.7,0.9,0.7,1.6,0.7c0.5,2.1-0.4,2.8-1.9,2.8s-2.1-0.8-2.7-1.8l-3-4.5h-2.9
				c0,0.7-0.1,3.8,0,4.5c0.1,1.1-0.2,1.5-1.1,1.5h-1.3c-1.2,0-1.2-1.1-1.2-1.9c0.1-2.1,0.1-13.2,0.1-13.9c0-0.9-0.2-2.1,1.4-2.1h5.4
				c4.5,0,6.8,2.5,6.8,6C128.6,319.7,127,321.5,124.9,322.3z M121.6,313.6h-3.1c-0.1,1.5,0,5.8,0,6.8h3.1c2,0,3.4-1.2,3.4-3.4
				C125.1,315.4,124.1,313.6,121.6,313.6z"/>
			<path class="st5" d="M134,311h9.4c0.9,0,1.1,0.4,1.1,1.1v0.9c0,0.7-0.4,1-1.1,1h-6.9v4.6c1.9,0,5.3,0,5.9,0
				c0.5,0,0.9,0.2,0.9,0.8v1.1c0,0.7-0.2,0.8-0.8,0.8c-0.8,0-4,0-6,0c0,1.7,0,3.2,0.1,4.5c2,0,6.1,0,6.9-0.1
				c0.8-0.1,1.1,0.3,1.1,1.1v1.2c0,0.7-0.2,0.8-1.1,0.8h-9.3c-1.2,0-1.2-1.1-1.2-1.9c0.1-2.1-0.1-13.2-0.1-13.8
				C132.8,312.3,132.4,311,134,311z"/>
			<path class="st5" d="M154,311h2.4c1.1,0,1.5,0.6,1.8,1.5c0.2,0.9,4.2,13.5,4.6,14.9c0.2,0.9,0.1,1.5-0.8,1.5h-1.1
				c-1.2,0-1.3-0.9-1.5-1.3s-0.4-1.5-1-2.8h-6.6c-0.5,1.4-0.8,2.4-0.9,2.7c-0.2,0.9-0.4,1.4-1.3,1.4h-1.5c-0.7,0-1-0.6-0.7-1.4
				c0.6-2.2,4.7-14,4.9-15C152.5,311.6,152.8,311,154,311z M152.4,322.3h5.4c-1.1-3.5-2.3-7.6-2.6-8.7H155
				C154.7,314.8,153.5,318.9,152.4,322.3z"/>
			<path class="st5" d="M178,314.2c-0.4,0.7-0.8,0.9-0.8,0.9s-1.3-1.3-4-1.3c-3.4,0-4.9,2.8-4.9,6.1c0,3.4,1.8,6.2,4.9,6.2
				c1.6,0,2.6-0.5,3.2-0.9c0.4-0.3,0.8-0.5,1.2,0.2l0.7,1.2c0.2,0.4,0.4,0.7-0.1,1.1c-0.7,0.6-2.4,1.4-5,1.4c-5.6,0-8.4-3.9-8.4-9.2
				c0-5.2,2.7-9.2,8.3-9.2c2.8,0,4.3,0.9,4.8,1.2C178.3,312.3,178.9,313,178,314.2z"/>
			<path class="st5" d="M194.9,312.1v1.1c0,0.7-0.1,0.8-1.1,0.8h-4.3c-0.1,3.6-0.1,12.1-0.1,12.6c0,0.9,0.5,2.1-1.1,2.1H187
				c-1.2,0-1.3-1.1-1.2-1.9s0.2-9.9,0.1-12.9c-0.8,0-3.8,0-4.2,0c-0.8,0.1-1-0.3-1-1v-1.2c0-0.7,0.1-0.8,1.1-0.8
				c0,0,10.7,0.1,12.2,0C194.7,311,194.9,311.4,194.9,312.1z"/>
			<path class="st5" d="M204.2,329.2c-5.5,0-8.1-3.9-8.1-9.2c0-5.2,2.6-9.2,8-9.2c5.2,0,8,4,8,9.2
				C212.2,325.2,209.4,329.2,204.2,329.2z M204.2,313.8c-3.3,0-4.4,2.9-4.4,6.2c0,3.3,1.1,6.2,4.4,6.2c3.3,0,4.4-3,4.4-6.2
				C208.6,316.6,207.5,313.8,204.2,313.8z"/>
			<path class="st5" d="M223.2,329.2c-6,0-7.3-3.3-7.4-8.5c-0.1-3.5,0-7.1,0-7.8c0-0.9-0.3-1.8,1.1-1.8h1.3c1.2,0,1.3,0.8,1.2,1.6
				c-0.1,0.9-0.1,4.7-0.1,8c0,3.5,0.9,5.5,3.8,5.5c2.8,0,3.7-1.9,3.7-5.6c0-3.4,0-7,0-7.7c0-0.9-0.3-1.8,1.1-1.8h1.3
				c1.2,0,1.3,0.8,1.3,1.6c0,0.9-0.1,6.7-0.2,8C230.2,325.8,228.8,329.2,223.2,329.2z"/>
			<path class="st5" d="M244.7,322.3l2.6,3.4c0.4,0.7,0.9,0.7,1.6,0.7c0.5,2.1-0.4,2.8-1.9,2.8s-2.1-0.8-2.7-1.8l-3-4.5h-2.9
				c0,0.7-0.1,3.8,0,4.5c0.1,1.1-0.2,1.5-1.1,1.5H236c-1.2,0-1.2-1.1-1.2-1.9c0.1-2.1,0.1-13.2,0.1-13.9c0-0.9-0.2-2.1,1.4-2.1h5.4
				c4.5,0,6.8,2.5,6.8,6C248.4,319.7,246.7,321.5,244.7,322.3z M241.4,313.6h-3.1c-0.1,1.5,0,5.8,0,6.8h3.1c2,0,3.4-1.2,3.4-3.4
				C244.8,315.4,243.9,313.6,241.4,313.6z"/>
		</g>
		<g>
			<path class="st0" d="M171.2,335.4c-1.3,2.2-2.1,4.7-4,6.5c0,0,0,0.1,0,0.1c0,0.2-0.2,0.3-0.2,0.5c-0.8,1-1.6,1.9-2.2,3
				c-0.4,0.2-0.7,0.6-0.9,1c-0.2,0-0.3,0.2-0.4,0.2c-1,1.4-2.1,2.8-3.4,3.9c-0.5,0.4-1,0.8-1.4,1.2c-0.3,0.2-0.6,0.6-0.8,0.9
				c-0.9,1-1.8,1.6-3.1,2c-0.1,0.8,0.3,1.7,0,2.6l0,0.1c0,0.3,0.3,0.7,0.3,1c0,0.1,0,0.2-0.1,0.3l0.7-0.1c0,0.5,0.5,0.8,0.6,1
				c0.1,0.6,0.1,1.5-0.5,1.8l0,0.2c0,0.4,0,0.7-0.2,1c-0.2,0-0.4,0.1-0.6,0.1c-0.7,0.1-1.4,0-2-0.3c-0.5-0.9-0.7-1.9-0.7-2.8
				c-0.2-1.9,0.1-3.8,0-5.8l0.3-0.8c0-2,0.4-4,0.2-6c0.2-0.6,0.3-1.3,0.2-1.9c0-0.3-0.1-0.7-0.3-1c0.2-0.2,0.2-0.4,0.3-0.6
				c0-1.4-0.1-2.7-0.2-4c-0.1-0.7-0.2-1.4-0.3-2.2c-0.1-0.3-0.2-0.7-0.2-0.9c0-0.3,0-0.6,0-0.9c0-0.4-0.1-0.7-0.3-1
				c-1.6,0.6-2.8,1.6-4.1,2.8c-0.5,0.5-1.2,1.1-1.7,1.5c-0.1,0.1-0.3,0.1-0.4,0.1c-0.3,0-0.7,0-1,0c-0.3-0.2-0.6-0.4-0.9-0.5
				c-0.1-0.2-0.1-0.4-0.1-0.7c0-0.5,0-1,0.1-1.4c0.8-0.4,1.9-0.8,2.2-1.7c0.1,0,0.2,0.1,0.3,0.1c0.2,0,0.3-0.1,0.5-0.1
				c0.6-0.5,1.2-0.9,1.9-1.3c0.2-0.1,0.2-0.2,0.2-0.4c0.8-0.3,1.7-0.7,2.3-1.3l0.5,0c1-0.9,2.4-1.1,3.3-2c0.1,0,0.2-0.1,0.3-0.1
				c0.1,0,0.2,0,0.3,0c0.3-0.2,0.5-0.5,0.8-0.8c1.2-0.1,1.7-0.6,2.6-1.2c0.2,0,0.3,0.2,0.5,0.1c0.7-0.6,1.7-0.5,2.3-1
				c1.1-0.1,2.3-0.3,3.4-0.4c1.6-0.1,3.4-0.2,4.8,0.7c0.3,0.6,0.8,1.1,1.3,1.5c0.1,0.3,0.2,0.7,0.4,1c-0.1,0.3-0.1,0.6-0.1,0.9
				c0.1,0.6,0.3,1.2,0.4,1.8C171.8,333,171.3,334.2,171.2,335.4z M168.9,330.3c-0.5-0.3-0.7-1-1.2-1.2c-0.3-0.2-1-0.1-1.4-0.1
				c-0.4-0.1-0.5-0.3-1-0.2c-0.4,0-0.8,0.2-1.3,0.2c-0.3,0-0.7-0.1-1-0.1c-0.4,0-0.6,0.4-1.1,0.4c-0.4,0.4,0.1,0.4-0.7,0.4
				c-0.8,0.1-1.5,0.3-2.1,0.9c-0.1,0-0.2,0-0.3,0c-0.6,0.1-1.1,0.6-1.7,0.7c-0.8,0.9-2.5,1-2.9,2.2c0,0.3,0.3,0.2,0.3,0.5
				c0,0.2-0.1,0.6,0,1c0.1,0.8,0.4,1.6,0.6,2.3c-0.2,0.1-0.2,0.4-0.3,0.5c0.3,0.7,0.5,1.4,0.6,2.2c0.1,1.2-0.2,2.4-0.2,3.6
				c0,0.2,0.2,0.2,0.3,0.4c0,0.1,0,0.1,0,0.1c-0.2,2.4-0.3,4.8-0.4,7.2l0.2,0c0.9-0.1,1.6-0.8,2-1.5l0.4,0c2.3-2.4,4.5-5,6.3-7.8
				c0.3,0,0.3-0.2,0.5-0.3c0.6-1.1,1.3-2.2,2.2-3.2c0-0.8,0.6-1,0.6-1.8c0.2-0.1,0.4-0.2,0.5-0.3c0-0.4,0.3-0.6,0.2-1
				c0-0.1,0-0.2-0.1-0.2c1.1-0.6,0.9-2.5,1.1-3.6C169,331.1,168.9,330.7,168.9,330.3z"/>
			<path class="st0" d="M186.9,340.1c0,0.4,0.1,0.8,0.1,1.2l0,0.4c-0.1,0.2-0.2,0.5-0.3,0.8c-0.2,0.6-0.2,1.3-0.2,2l0,0.1
				c-0.2,0.9-0.6,1.3-0.5,2.3c-0.3,1.3-1.2,2.3-1.9,3.4c-0.7,0.4-1.3,0.9-1.8,1.5c-1,0.4-2.1,1-2.9,1.8c-0.7,0.1-1.3,0.3-1.9,0.7
				l-0.3,0c-0.1,0-0.3,0-0.4-0.1c-0.4,0.3-0.9,0.4-1.4,0.5c-0.6,0.1-1.2,0-1.9,0c-0.4-0.5-1.1-0.6-1.7-0.8c-1.1-1.3-1.6-2.5-2.2-4.1
				c0-0.5,0.2-1,0.2-1.5c0.5-1.9,1.4-3.4,2.6-4.9c0-0.2,0.1-0.3,0-0.6c0,0,0.1,0,0.1,0c0.3,0,0.3-0.2,0.2-0.4c1.2-0.9,2-2.2,3.2-3
				c0.1-0.3,0.4-0.5,0.5-0.8c1.1-0.4,1.9-1.2,2.8-1.8c0.5-0.3,1-0.5,1.6-0.7c0.2-0.1,0.3-0.1,0.6-0.2c0.6-0.1,1.2,0.2,1.9,0.2
				c0.1,0,0.3-0.1,0.4-0.1c0.4,0.3,0.8,0.6,1.2,0.7c0.5,1,1.5,1.3,1.8,2.5C186.8,339.4,186.9,339.8,186.9,340.1z M184.5,340.4
				c-0.3-0.1-0.7-0.3-1.1-0.3c-0.1,0-0.2,0-0.4,0.1c-0.1-0.5-0.7-0.3-1-0.6c-0.1-0.3-0.2-0.6-0.6-0.7c-0.6,0.7-1.7,0.8-2.2,1.6
				l-0.5,0c-0.2,0.4-0.6,0.5-0.9,0.9c-1.1,0.7-1.7,1.8-2.6,2.7c-0.7,2-2.1,2.8-1.9,5.3c0,0.2,0,0.3,0.1,0.5c0.5,0.4,0.7,1.1,1.4,1.3
				c0.7,0.2,1.5-0.1,2.3,0.1c1.6-0.4,3.2-1.4,4.4-2.5c0.2-0.2,0.5-0.4,0.7-0.6c0.1-0.2,0.2-0.5,0.3-0.6c0.3-0.5,0.6-1,0.9-1.4
				c0.2-1.5,1-2.9,0.9-4.5c0-0.2-0.1-0.4-0.1-0.6c0.1-0.2,0.2-0.4,0.2-0.7C184.5,340.5,184.5,340.5,184.5,340.4z"/>
			<path class="st0" d="M209.4,337.6c0,0.5,0,1,0,1.5c-0.2,0.3-0.4,0.6-0.5,1c-0.4,0.3-0.9,0.9-0.8,1.4l-0.4,0
				c-0.7,1.3-2.2,1.9-3.1,3.1c-0.3,0.1-0.4,0.2-0.7,0.2c-2,1.6-4.6,2.4-6.5,4.1c-0.1,0-0.2,0-0.2,0c-0.3,0-0.6,0.2-0.9,0.2
				c-0.1,0-0.4,0-0.5-0.1c-0.4-0.2-0.6-0.9-0.6-1.2c0-0.2,0-0.5,0-0.7c1-0.2,2-0.8,2.9-1.3c0.5-0.3,0.5-0.7,1.2-0.8l0.1,0
				c2.1-1.2,4.1-2.6,6.1-4.1c0.2-0.6,0.9-1.3,0.8-1.9c0-0.3-0.2-0.6-0.5-0.7l-0.1,0c-0.8,0.1-1.2-0.5-2.1-0.3
				c-0.2-0.1-0.7-0.2-0.9-0.2c-1.2,0.1-2.4,0.5-3.7,0.6c-0.3,0.2-0.6,0.4-0.9,0.4c-0.2,0-0.3,0-0.5,0c-1.3,0.7-3.5,1-4.1,2.4
				c0,0.2,0.1,0.3,0.1,0.4l0,0.1c-0.4,0.5-0.1,1.1-0.4,1.6c0.1,0.3,0.2,0.6,0.2,0.9c0.1,0.7,0,1.4,0.1,2.1c0,0.3,0.1,0.6,0.2,0.9
				c-0.2,0.2,0,0.7-0.2,1c0,0.3,0.3,0.3,0.3,0.5c-0.1,0.3,0,0.7,0,1c0.1,1,0.5,2.1,0.9,3c0.5-0.2,1.2-0.4,1.8-0.5c0.1,0,0.2,0,0.3,0
				c0.1,0.4,0.4,0.6,0.6,1c-0.1,0.3-0.3,0.4-0.2,0.7c-0.5,0.1-0.7,0.4-1.1,0.7l-0.1,0c-0.6,0.1-0.9,0.4-1.3,0.7
				c-0.2-0.1-0.4-0.1-0.6-0.1c-0.2,0-0.5,0.1-0.7,0.2c-1.2-0.4-1.5-2-2.1-3l0-0.4c-0.1-0.8-0.3-1.5-0.4-2.3c0-0.3,0-0.7,0.1-1
				c-0.1-0.3-0.1-0.6-0.1-0.9c-0.1-1-0.1-2.1-0.2-3.2c0-0.4-0.1-0.8-0.2-1.2c-0.2,0.1-0.3,0.2-0.5,0.2c-0.2,0-0.3,0-0.5,0
				c-0.4-0.3-0.5-0.8-0.8-1.1c-0.1-1.3,0.8-1.7,1.1-2.8l0.1,0c0.6-0.1,1-0.7,1.7-0.7c0.5-0.7,1.7-1,2.5-1.1c0.3-0.5,1.2-0.4,1.4-0.9
				c0.1,0,0.2,0,0.4,0c0.9-0.1,1.6-0.8,2.6-0.9c0.2,0,0.4,0,0.5,0c0.2,0,0.2-0.3,0.4-0.4c0.1,0,0.2,0,0.3,0c0.7-0.1,1.4-0.3,2-0.4
				c0.3,0,0.6,0,1,0.1c0-0.1,0.1-0.2,0.2-0.3c1.7,0,3.3,0.6,4.9,0.9c0.5,0.6,1.3,0.8,1.8,1.4L209.4,337.6z"/>
			<path class="st0" d="M226.7,336.5c0,0.4,0.1,0.8,0.1,1.2l0,0.4c-0.1,0.2-0.2,0.5-0.3,0.8c-0.2,0.6-0.2,1.3-0.2,2l0,0.1
				c-0.2,0.9-0.6,1.3-0.5,2.3c-0.3,1.3-1.2,2.3-1.9,3.4c-0.7,0.4-1.3,0.9-1.8,1.5c-1,0.4-2.1,1-2.9,1.8c-0.7,0.1-1.3,0.3-1.9,0.7
				l-0.3,0c-0.1,0-0.3,0-0.4-0.1c-0.4,0.3-0.9,0.4-1.4,0.5c-0.6,0.1-1.2,0-1.9,0c-0.4-0.5-1.1-0.6-1.7-0.8c-1.1-1.3-1.6-2.5-2.2-4.1
				c0-0.5,0.2-1,0.2-1.5c0.5-1.9,1.4-3.4,2.6-4.9c0-0.2,0.1-0.3,0-0.6c0,0,0.1,0,0.1,0c0.3,0,0.3-0.2,0.2-0.4c1.2-0.9,2-2.2,3.2-3
				c0.1-0.3,0.4-0.5,0.5-0.8c1.1-0.4,1.9-1.2,2.8-1.8c0.5-0.3,1-0.5,1.6-0.7c0.2-0.1,0.3-0.1,0.6-0.2c0.6-0.1,1.2,0.2,1.9,0.2
				c0.1,0,0.3-0.1,0.4-0.1c0.4,0.3,0.8,0.6,1.2,0.7c0.5,1,1.5,1.3,1.8,2.5C226.7,335.7,226.7,336.2,226.7,336.5z M224.3,336.8
				c-0.3-0.1-0.7-0.3-1.1-0.3c-0.1,0-0.2,0-0.4,0.1c-0.1-0.5-0.7-0.3-1-0.6c-0.1-0.3-0.2-0.6-0.6-0.7c-0.6,0.7-1.7,0.8-2.2,1.6
				l-0.5,0c-0.2,0.4-0.6,0.5-0.9,0.9c-1.1,0.7-1.7,1.8-2.6,2.7c-0.7,2-2.1,2.8-1.9,5.3c0,0.2,0,0.3,0.1,0.5c0.5,0.4,0.7,1.1,1.4,1.3
				c0.7,0.2,1.5-0.1,2.3,0.1c1.6-0.4,3.2-1.4,4.4-2.5c0.2-0.2,0.5-0.4,0.7-0.6c0.1-0.2,0.2-0.5,0.3-0.6c0.3-0.5,0.6-1,0.9-1.4
				c0.2-1.5,1-2.9,0.9-4.5c0-0.2-0.1-0.4-0.1-0.6c0.1-0.2,0.2-0.4,0.2-0.7C224.3,336.9,224.3,336.9,224.3,336.8z"/>
			<path class="st0" d="M242.7,332.2c-0.6,0.6-0.8,1.5-1.5,1.9c-0.2,1.5-0.7,3-0.8,4.5c-0.7,1.6-0.5,3.8-1.5,5.3
				c-0.2,0.9-0.3,2-0.9,2.7c0,0.1,0,0.1,0,0.2c0,0.4-0.2,0.8-0.2,1.2c-1,0.9-1.8,2.6-3.1,3c-0.5-0.3-1-0.8-1.5-1
				c-0.4-1.5-0.5-3.1-0.9-4.6c-0.2-0.8-0.7-1.6-0.8-2.5c0-0.2,0-0.4,0-0.5c-0.8-0.7-0.5-2.4-1.2-3.2c0.1-0.1,0.1-0.2,0.1-0.3
				c0-0.2-0.1-0.3-0.1-0.5c0-0.1,0-0.2,0.1-0.2c-0.6-0.7-0.4-1.2-0.7-1.8c-0.1-0.2-0.3-0.3-0.3-0.4c0-0.1,0-0.2,0.1-0.2
				c-0.5-0.7-0.9-1.4-1.3-2.2c0-0.4,0.3-0.5,0.4-0.9l0.8-0.1c1.8,2.8,2.8,6.1,3.7,9.3c0.3,0.9,0.5,1.9,0.8,2.8
				c0.1,0.2,0.3,0.4,0.3,0.7c0,0.1,0,0.2-0.1,0.3c0.5,0.3,0.5,1,0.8,1.4c0.9-0.1,1-1.8,1.6-2.3c0-0.4,0.1-0.8,0.1-1.1
				c0.3-0.6,0.6-1.1,0.6-1.9c0.2-0.2,0.1-0.3,0.4-0.2c-0.1-0.9,0.2-1.9,0.6-2.7c0-0.8,0.2-1.7,0.5-2.5c0.1-0.3,0.3-0.6,0.3-0.9
				c0-0.1-0.1-0.3-0.1-0.4c0-0.3,0.2-0.5,0.4-0.7c-0.1-0.8,0-1.7,0.5-2.3c0.1-1.2,0.2-2.4,0.6-3.5l0.9-0.1c0-0.3,0.1-0.5,0.4-0.6
				c0.2,0,0.4,0,0.6,0.1c0.4,0.7,0.6,1.8,0.6,2.6C242.8,331,242.8,331.6,242.7,332.2z"/>
			<path class="st0" d="M259.5,331c-0.1,0-0.2,0.2-0.2,0.3c-0.4,0.2-0.8,0.3-1.2,0.5c-0.4,0-0.8,0-1.2,0.1c-1,0.1-2.1,0.3-3.1,0.3
				c-0.5,0.3-1.1,0.6-1.6,0.6c-0.2,0-0.4,0-0.5,0c-1.6,1-4.1,1.3-5.4,2.6c0,0.5,0,1,0,1.4c0,0.5,0.1,0.9,0.3,1.3
				c0.2,0,0.4,0.1,0.6,0.1c0.2,0,0.4-0.1,0.4-0.3c0.5-0.1,1-0.1,1.6-0.2c0.5,0,1-0.1,1.5-0.3c1.1-0.4,2.1-0.2,3.3-0.9
				c0.5,0.1,1,0,1.4,0.1c0.3,0.1,0.5,0.3,0.5,0.6c0,0.5-0.4,1-0.6,1.5l-0.3,0c-1.7,0.2-3,1.4-4.7,1.6c-0.1,0-0.1,0.2-0.2,0.3
				c-0.1,0-0.3,0-0.4,0c-0.8,0.1-1.5,0.4-2.3,0.5c-0.2,0-0.4,0-0.6,0c-0.1,0.3-0.5,0.3-0.7,0.6c-0.1,0.7,0.2,1.9-0.2,2.5
				c0,0.2,0.4-0.1,0.4,0.2c0,0.3,0,0.7,0,1c0.1,1.3,0.8,3.3,2.5,3.1c0.5,0,1.1-0.3,1.3-0.8l0.1,0c0.1,0,0.3,0,0.4,0
				c0.4,0,1.3-1.4,2-1.7c0.2-0.5,0.3-1.1,0.7-1.4l-0.1-0.8c0.3-0.4,0.7-0.7,0.9-1.2c0.2,0,0.4,0.1,0.5,0.1c0.2,0,0.4-0.1,0.5-0.2
				c0.3,0.4,0.5,0.9,0.8,1.3c-0.5,1.3-1.4,3.9-2.4,4.9c-0.1,0.1-0.2,0.2-0.3,0.2c-0.4,0.3-0.7,0.6-0.9,1c-1,0.4-1.8,1.1-2.7,1.7
				c-0.2,0-0.5,0-0.7,0c-0.4,0-0.9,0.2-1.3,0.2c-0.1-0.1-0.6-0.1-0.5-0.4c-2.4,0.1-3-2.3-3.9-4l0-0.1c0-0.2,0.2-0.2,0.2-0.3
				c0,0,0-0.1,0-0.1c-0.1-0.3-0.2-0.6-0.3-1c0-0.5,0-1.1,0-1.6c0-0.2-0.1-0.5-0.2-0.7c0.3-0.4,0.1-1.2,0.2-1.7
				c-0.2-0.4-0.3-0.6-0.4-1l0-0.2c0.3-0.6,0.5-1.3,0.7-2l0-0.1c-0.1-1-0.3-2-0.4-3.1c0-0.3-0.1-0.7-0.1-1c0.3-0.2,0.3-0.5,0.6-0.6
				l0.9-0.1c0.1-0.2,0.2-0.4,0.2-0.6c0.4-0.1,0.7-0.4,1-0.6c0.9-0.7,1.5-1,2.6-1.2c0.2,0,0.3-0.2,0.4-0.3c0.4,0,0.8,0.1,1.3,0
				c0.4,0,0.8-0.2,1.2-0.3c1-0.1,2.1-0.2,3.1-0.3c0.9-0.1,1.8-0.1,2.7,0c0.2-0.1,0.3-0.1,0.5-0.1c0.4,0,0.9,0.1,1.3,0
				c0.1,0.3,0.3,0.6,0.4,0.9L259.5,331z"/>
			<path class="st0" d="M292.2,341.2c-0.2,0-0.3-0.1-0.5,0c-1.1,0-2,0.6-3,0.8c-0.3,0.1-0.6,0.1-0.9,0.1c-2.2,0.5-5.1,0.8-7.1,1.8
				c-0.1-0.1-0.2-0.1-0.4-0.1c-0.4,0-0.6,0.2-1,0.2c-0.7,0.5-1.6,0.4-2.2,1c-0.3-0.1-0.8,0-1-0.2c-0.8,0.5-1.7,0.6-2.6,0.7
				c-1.2,0.1-3.4-0.3-4.1-1.2c-0.3-0.3-0.3-0.8-0.7-1c0.1-0.8,0.1-1.6,0.2-2.4c0.6-0.7,1.2-1.4,1.7-2.2c1.3-0.8,2.1-2.1,3.3-2.9
				c0.2-0.5,0.8-0.6,0.9-1.2c1.1-0.8,2.1-2.1,2.2-3.5c-0.7-0.4-1.5-0.5-2.2-0.4c-0.7,0-1.5,0.2-2.2,0.2c-1.5,0.6-3.3,0.4-4.6,1.3
				c-0.1,0-0.3,0-0.4,0c-1.1,0-2,0.8-2.9,1.3c0,0.1,0,0.1,0,0.2c0,0.2,0.1,0.4,0.2,0.6c0,0,0,0.1,0,0.1c0,0.2-0.1,0.3-0.1,0.5
				c-0.1,0.6-0.2,1.1-0.2,1.7c0.1,0.9,0.2,1.8,0.2,2.7c0,0.5,0,1.1-0.1,1.6c0.5,1.7,0.8,3.7,1.9,5.1c0,0.2,0.3,0.1,0.4,0.1
				c0.1,0,0.1,0,0.1,0.1c0.1,0.1,0.1,0.2,0.2,0.3c0,0.1,0,0.1,0,0.2c0,0.7-0.4,1.3-0.4,2c-0.2,0.1-0.4,0.1-0.6,0.1
				c-1.2,0.1-1.9-1.2-2.7-1.8c-0.3-0.9-0.6-2.3-1.2-3c0.1-0.2,0.1-0.4,0.1-0.6c0-0.7-0.3-1.4-0.4-2.1c0-0.4,0.1-0.7,0.1-1.1
				c0-0.6-0.3-1.1-0.3-1.7c0-0.3,0.1-0.6,0.2-0.8c-0.1-0.2-0.1-0.4-0.1-0.6c0-0.6,0.1-1.1,0-1.6c0-0.3,0-0.5-0.2-0.8
				c-0.1,0-0.2-0.1-0.2-0.1c-0.4,0-0.7,0.6-0.8,0.6c-0.1,0-0.2,0-0.2,0c-0.1,0-0.9,0.7-1.1,0.8c-0.7,0-0.9-0.8-1.6-0.7
				c-0.1-0.2-0.1-0.5-0.1-0.7l0-0.4c0.4-1,1.6-1.2,2.3-1.9l0.2,0c1.2-0.1,1.7-1.5,2.7-1.9c0.4,0.1,0.8,0.2,1.3,0.2
				c0.5,0,1-0.2,1.2-0.6c0.2,0,0.3,0,0.5,0c0.5,0,1.1-0.3,1.5-0.6c1.4-0.1,2.7-0.8,4.1-0.9c1.2-0.1,2.2-0.5,3.4-0.6
				c0.8,0,1.6,0,2.4-0.1c0.5,0.2,0.8,0.3,1.4,0.3c0.6,0.4,1.2,0.9,1.7,1.5c0,0.2,0,0.3,0,0.4c0.1,1.6-0.8,3.2-1.3,4.7
				c-2.1,2.3-4.1,4.5-6.4,6.6c0,0.3-0.2,0.6-0.2,0.9c0,0.1,0,0.1,0,0.2c0.2,0.1,0.5,0.2,0.5,0.6l0.2,0c0.1,0,0.1,0,0.1,0.1l0.4,0
				c2.7-0.1,5.3-1.1,7.9-1.4c0.3-0.1,0.7-0.2,0.9-0.4c0,0,0.1,0,0.1,0c0.2,0,0.3,0.2,0.6,0.2c0.2,0,0.4-0.1,0.6-0.2
				c0.5-0.2,1-0.3,1.6-0.4c2-0.3,4-0.4,5.9-1.1c0.4,0.5,1.4,0.1,1.7,0.7C292.9,340.7,292.6,340.9,292.2,341.2z"/>
		</g>
	</g>
</g>
<path class="st6" d="M160.1,50.1V121H192v19.5l21.3-19.5h53.2V50.1H160.1z"/>
<path class="st7" d="M168.9,113.9V50.1h-8.9V121H192v19.5l21.3-19.5h53.2v-7.1H168.9z"/>
<path class="st8" d="M192,142.2c-0.2,0-0.5,0-0.7-0.2c-0.6-0.3-1.1-0.9-1.1-1.6v-17.7h-30.1c-1,0-1.8-0.8-1.8-1.8V50.1
	c0-1,0.8-1.8,1.8-1.8h106.4c1,0,1.8,0.8,1.8,1.8V121c0,1-0.8,1.8-1.8,1.8h-52.5l-20.8,19C192.8,142.1,192.4,142.2,192,142.2z
	 M161.8,119.2H192c1,0,1.8,0.8,1.8,1.8v15.5l18.3-16.8c0.3-0.3,0.8-0.5,1.2-0.5h51.4V51.8H161.8V119.2z M223.9,105h-42.5
	c-1,0-1.8-0.8-1.8-1.8s0.8-1.8,1.8-1.8h42.5c1,0,1.8,0.8,1.8,1.8S224.9,105,223.9,105z M245.2,87.3h-63.8c-1,0-1.8-0.8-1.8-1.8
	s0.8-1.8,1.8-1.8h63.8c1,0,1.8,0.8,1.8,1.8S246.1,87.3,245.2,87.3z M245.2,69.6h-63.8c-1,0-1.8-0.8-1.8-1.8s0.8-1.8,1.8-1.8h63.8
	c1,0,1.8,0.8,1.8,1.8S246.1,69.6,245.2,69.6z"/>
</svg>
