<?xml version="1.0" encoding="utf-8"?>
<!-- Generator: Adobe Illustrator 27.6.0, SVG Export Plug-In . SVG Version: 6.00 Build 0)  -->
<svg version="1.1" id="Layer_1" xmlns="http://www.w3.org/2000/svg" xmlns:xlink="http://www.w3.org/1999/xlink" x="0px" y="0px"
	 viewBox="0 0 700 320" style="enable-background:new 0 0 700 320;" xml:space="preserve">
<style type="text/css">
	.st0{fill:#090014;}
	.st1{opacity:0.2;}
	.st2{fill:#FFFFFF;}
	.st3{fill:url(#SVGID_1_);}
	.st4{opacity:0.2;fill:#FFFFFF;enable-background:new    ;}
	.st5{fill:#FFFFFF;fill-opacity:0.2;stroke:#FFFFFF;stroke-width:1.5294;stroke-miterlimit:10;}
	.st6{fill:#605F63;}
	.st7{fill:#FFFFFF;fill-opacity:0.2;stroke:#FFFFFF;stroke-width:1.5294;stroke-miterlimit:10.0005;}
	.st8{opacity:0.5;fill:#FFFFFF;}
</style>
<rect y="1.5" class="st0" width="700" height="318.5"/>
<g class="st1">
	<path class="st2" d="M97.5,271.6c-3.2-1.1-5.9-2.2-9.1-2.7l1.6-6.5c7-33.9,2.2-60.8-12.9-70C62,183.9,37.8,193,13.6,214
		c-2.2,2.2-4.8,4.3-7,6.5c-1.6-1.6-3.2-2.7-4.8-4.3c-25.8-22.6-51.7-32.3-66.7-23.7c-15.1,8.6-19.4,33.9-12.9,66.2
		c0.5,3.2,1.1,6.5,2.2,9.7c-3.8,1.1-7,2.2-10.8,3.2c-30.1,10.8-49.5,26.9-49.5,44.1c0,17.8,20.4,35.5,52.2,46.3
		c2.7,1.1,5.4,1.6,7.5,2.2c-1.1,3.2-1.6,7-2.2,10.2c-5.9,31.2-1.1,56.5,13.5,64.6c15.1,8.6,40.9,0,66.2-22.1
		c2.2-1.6,3.8-3.8,5.9-5.4c2.7,2.2,4.8,4.8,7.5,7c24.2,21,47.9,29.1,63,20.4c15.1-8.6,20.4-35.5,14-68.3c-0.5-2.7-1.1-4.8-1.6-7.5
		c1.6-0.5,3.8-1.1,5.4-1.6c32.8-10.8,53.8-28.5,53.8-46.3C148.1,299,128.7,282.3,97.5,271.6L97.5,271.6z M21.1,223.7
		c21-18.3,40.9-25.3,49.5-20.4c9.7,5.4,13.5,27.4,7,57c-0.5,2.2-1.1,3.8-1.1,5.9c-11.8-2.7-24.8-4.8-38.2-5.9
		c-8.1-11.3-16.1-21.5-24.2-30.1C16.8,227.4,19,225.3,21.1,223.7z M-52.6,330.8l8.1,14.5c2.7,4.8,5.9,9.7,9.1,14.5
		c-9.1-1.1-18.3-2.7-26.4-4.3C-59.1,347.4-55.8,339.4-52.6,330.8L-52.6,330.8z M-52.6,301.7c-3.8-8.6-6.5-16.7-9.1-24.8
		c8.1-1.6,16.7-3.2,25.8-4.3c-3.2,4.8-5.9,9.7-8.6,14.5L-52.6,301.7L-52.6,301.7z M-46.2,316.2c3.8-8.1,7.5-15.6,12.4-23.1
		c4.3-7.5,9.1-15.1,14-22.1c8.6-0.5,17.2-1.1,25.8-1.1s17.8,0.5,25.8,1.1c4.8,7,9.1,14.5,14,22.1c4.3,7.5,8.6,15.1,12.4,22.6
		c-3.8,8.1-8.1,15.6-12.4,23.1c-4.3,7.5-8.6,15.1-13.5,22.1c-8.6,0.5-17.2,1.1-25.8,1.1s-17.2-0.5-25.8-1.1c-4.8-7-9.7-14.5-14-22.1
		C-38.1,331.8-42.4,323.8-46.2,316.2L-46.2,316.2z M56.1,345.3c2.7-4.8,5.4-10.2,8.1-15.1c3.8,8.6,7,17.2,9.7,25.3
		c-8.1,2.2-17.2,3.2-26.4,4.3C50.7,355,53.4,350.1,56.1,345.3L56.1,345.3z M64.2,301.7c-2.7-4.8-5.4-9.7-8.1-15.1
		c-2.7-4.8-5.9-9.7-8.6-14c9.1,1.1,17.8,2.7,25.8,4.3C71.2,285,67.9,293.6,64.2,301.7z M6,238.2c5.4,5.9,11.3,12.9,16.7,20.4
		c-11.3-0.5-22.6-0.5-33.9,0C-5.3,251.1,0.1,244.7,6,238.2z M-59.6,203.8c9.7-5.4,30.7,2.2,52.7,22.1c1.6,1.1,2.7,2.7,4.3,3.8
		c-8.1,9.1-16.7,18.8-24.2,30.1c-13.5,1.1-26.4,3.2-38.2,5.9c-0.5-2.7-1.6-5.9-2.2-8.6C-72,229.6-68.8,208.6-59.6,203.8L-59.6,203.8
		z M-73.6,352.8c-2.2-0.5-4.8-1.6-7-2.2c-14-4.8-25.3-10.8-33.4-17.8c-7-5.9-10.8-11.8-10.8-16.7c0-10.2,15.6-23.7,41.4-32.8
		l9.7-3.2c3.8,11.8,8.1,23.7,14,36.1C-65,328.6-69.8,341-73.6,352.8L-73.6,352.8z M-7.4,408.3c-11.3,9.7-22.1,16.7-31.8,19.9
		c-8.6,3.2-15.6,3.2-19.9,0.5c-9.1-5.4-12.9-25.3-7.5-52.2c0.5-3.2,1.1-6.5,2.2-9.7c11.8,2.7,24.8,4.3,38.2,5.4
		c8.1,11.3,16.1,21.5,24.2,30.1C-3.6,405-5.8,406.6-7.4,408.3L-7.4,408.3z M6.6,394.3c-5.9-6.5-11.3-12.9-17.2-20.4
		c5.4,0,10.8,0.5,16.7,0.5s11.3,0,17.2-0.5C17.3,381.4,12,388.3,6.6,394.3z M80.3,411.5c-1.6,9.1-4.8,15.1-9.1,17.8
		c-9.1,5.4-28-1.6-49-19.4c-2.2-2.2-4.8-4.3-7-6.5c8.1-8.6,16.1-18.8,23.7-30.1c14-1.1,26.9-3.2,38.7-5.9c0.5,2.2,1.1,4.8,1.6,7
		C81.9,388.3,82.5,401.3,80.3,411.5L80.3,411.5z M90.5,350.7l-4.8,1.6c-3.8-11.3-8.6-23.7-14.5-36.1c5.9-12.4,10.2-24.2,14-35.5
		c2.7,1.1,5.9,1.6,8.6,2.7c26.4,9.1,42.5,22.6,42.5,32.8C136.3,327,119.1,341,90.5,350.7L90.5,350.7z"/>
	<circle class="st2" cx="6" cy="315.7" r="25.3"/>
</g>
<g class="st1">
	<path class="st2" d="M938.6,75.4c-6.2-2.1-11.4-4.2-17.7-5.2l3.1-12.5c13.5-65.4,4.2-117.3-24.9-135c-29.1-16.6-75.8,1-122.5,41.5
		c-4.2,4.2-9.3,8.3-13.5,12.5c-3.1-3.1-6.2-5.2-9.3-8.3C703.9-75.1,654.1-93.8,625-77.2C596-60.6,587.7-11.8,600.1,50.5
		c1,6.2,2.1,12.5,4.2,18.7c-7.3,2.1-13.5,4.2-20.8,6.2c-58.1,20.8-95.5,51.9-95.5,85.1c0,34.3,39.5,68.5,100.7,89.3
		c5.2,2.1,10.4,3.1,14.5,4.2c-2.1,6.2-3.1,13.5-4.2,19.7c-11.4,60.2-2.1,109,26,124.6c29.1,16.6,78.9,0,127.7-42.6
		c4.2-3.1,7.3-7.3,11.4-10.4c5.2,4.2,9.3,9.3,14.5,13.5c46.7,40.5,92.4,56.1,121.5,39.5c29.1-16.6,39.5-68.5,27-131.9
		c-1-5.2-2.1-9.3-3.1-14.5c3.1-1,7.3-2.1,10.4-3.1c63.3-20.8,103.8-55,103.8-89.3C1036.2,128.4,998.8,96.2,938.6,75.4L938.6,75.4z
		 M791.2-17c40.5-35.3,78.9-48.8,95.5-39.5c18.7,10.4,26,53,13.5,110.1c-1,4.2-2.1,7.3-2.1,11.4c-22.8-5.2-47.8-9.3-73.7-11.4
		c-15.6-21.8-31.1-41.5-46.7-58.1C782.9-9.7,787-13.9,791.2-17z M648.9,189.6l15.6,28c5.2,9.3,11.4,18.7,17.7,28
		c-17.7-2.1-35.3-5.2-50.9-8.3C636.5,221.8,642.7,206.2,648.9,189.6L648.9,189.6z M648.9,133.6c-7.3-16.6-12.5-32.2-17.7-47.8
		c15.6-3.1,32.2-6.2,49.8-8.3c-6.2,9.3-11.4,18.7-16.6,28L648.9,133.6L648.9,133.6z M661.4,161.6c7.3-15.6,14.5-30.1,23.9-44.6
		c8.3-14.5,17.7-29.1,27-42.6c16.6-1,33.2-2.1,49.8-2.1s34.3,1,49.8,2.1c9.3,13.5,17.7,28,27,42.6c8.3,14.5,16.6,29.1,23.9,43.6
		c-7.3,15.6-15.6,30.1-23.9,44.6c-8.3,14.5-16.6,29.1-26,42.6c-16.6,1-33.2,2.1-49.8,2.1c-16.6,0-33.2-1-49.8-2.1
		c-9.3-13.5-18.7-28-27-42.6C676.9,191.7,668.6,176.1,661.4,161.6L661.4,161.6z M858.6,217.7c5.2-9.3,10.4-19.7,15.6-29.1
		c7.3,16.6,13.5,33.2,18.7,48.8c-15.6,4.2-33.2,6.2-50.9,8.3C848.3,236.4,853.5,227,858.6,217.7L858.6,217.7z M874.2,133.6
		c-5.2-9.3-10.4-18.7-15.6-29.1c-5.2-9.3-11.4-18.7-16.6-27c17.7,2.1,34.3,5.2,49.8,8.3C887.7,101.4,881.5,118,874.2,133.6z
		 M762.1,11.1c10.4,11.4,21.8,24.9,32.2,39.5c-21.8-1-43.6-1-65.4,0C740.3,36,750.7,23.5,762.1,11.1z M635.4-55.4
		c18.7-10.4,59.2,4.2,101.7,42.6c3.1,2.1,5.2,5.2,8.3,7.3c-15.6,17.7-32.2,36.3-46.7,58.1c-26,2.1-50.9,6.2-73.7,11.4
		c-1-5.2-3.1-11.4-4.2-16.6C611.5-5.6,617.8-46,635.4-55.4L635.4-55.4z M608.4,232.2c-4.2-1-9.3-3.1-13.5-4.2
		c-27-9.3-48.8-20.8-64.4-34.3c-13.5-11.4-20.8-22.8-20.8-32.2c0-19.7,30.1-45.7,79.9-63.3l18.7-6.2c7.3,22.8,15.6,45.7,27,69.6
		C625,185.5,615.7,209.4,608.4,232.2L608.4,232.2z M736.1,339.1c-21.8,18.7-42.6,32.2-61.3,38.4c-16.6,6.2-30.1,6.2-38.4,1
		c-17.7-10.4-24.9-48.8-14.5-100.7c1-6.2,2.1-12.5,4.2-18.7c22.8,5.2,47.8,8.3,73.7,10.4c15.6,21.8,31.1,41.5,46.7,58.1
		C743.4,332.9,739.2,336,736.1,339.1L736.1,339.1z M763.1,312.1c-11.4-12.5-21.8-24.9-33.2-39.5c10.4,0,20.8,1,32.2,1
		c11.4,0,21.8,0,33.2-1C783.9,287.2,773.5,300.7,763.1,312.1z M905.4,345.4c-3.1,17.7-9.3,29.1-17.7,34.3
		c-17.7,10.4-54-3.1-94.5-37.4c-4.2-4.2-9.3-8.3-13.5-12.5c15.6-16.6,31.1-36.3,45.7-58.1c27-2.1,51.9-6.2,74.8-11.4
		c1,4.2,2.1,9.3,3.1,13.5C908.5,300.7,909.5,325.6,905.4,345.4L905.4,345.4z M925.1,228.1l-9.3,3.1c-7.3-21.8-16.6-45.7-28-69.6
		c11.4-23.9,19.7-46.7,27-68.5c5.2,2.1,11.4,3.1,16.6,5.2c50.9,17.7,82,43.6,82,63.3C1013.3,182.4,980.1,209.4,925.1,228.1
		L925.1,228.1z"/>
	<circle class="st2" cx="762.1" cy="160.6" r="48.8"/>
</g>
<g>
	<radialGradient id="SVGID_1_" cx="357.6802" cy="194.2289" r="259.1658" gradientUnits="userSpaceOnUse">
		<stop  offset="0" style="stop-color:#43C6AC;stop-opacity:0.5"/>
		<stop  offset="1" style="stop-color:#191654;stop-opacity:0.5"/>
	</radialGradient>
	<circle class="st3" cx="350" cy="160" r="111.7"/>
	<path class="st4" d="M422,138.7c-1-8.3-1.7-28.9-18.4-34.2c-16.7-5.3-30.8-7.6-53.6-7.6s-36.9,2.4-53.6,7.6
		c-16.7,5.3-17.4,25.9-18.4,34.2c-1,8.3,7.5,8,7.5,8h129.1C414.6,146.6,423.1,146.9,422,138.7z"/>
	<path class="st2" d="M433.4,137.1v7.4l-2.2,1.5c0,0-4.7-29.1-9.2-37.3c-4.4-8.3-30.2-21.3-72-21.3s-67.6,13-72,21.3
		c-4.4,8.3-9.2,37.3-9.2,37.3l-2.2-1.5v-7.4c0-5.1-10.5-5.6-10.5,0.3v10.2c0,6.7,10.5,5.3,10.5,1.5l1.4,1.5c0,0,0.3,1,0,4
		s4.4,4.1,4.4,4.1h155.2c0,0,4.7-1.1,4.4-4.1c-0.3-3,0-4,0-4l1.4-1.5c0,3.8,10.5,5.2,10.5-1.5v-10.2
		C443.9,131.6,433.4,131.9,433.4,137.1z M417.4,149.5H282.8c0,0-8.9,0.4-7.8-8.9c1.1-9.3,1.8-32.3,19.1-38.2
		c17.4-5.9,32.2-8.5,56-8.5c23.8,0,38.5,2.7,56,8.5c17.4,5.8,18.1,28.9,19.1,38.2C426.2,149.8,417.4,149.5,417.4,149.5L417.4,149.5z
		"/>
	<g>
		<path class="st2" d="M363.2,191.4c-0.5-0.2-0.8-0.3-1.3-0.4l0.2-0.9c1-4.8,0.3-8.6-1.8-9.9c-2.1-1.2-5.6,0.1-9,3.1
			c-0.3,0.3-0.7,0.6-1,0.9c-0.2-0.2-0.5-0.4-0.7-0.6c-3.7-3.2-7.3-4.6-9.5-3.4c-2.1,1.2-2.8,4.8-1.8,9.4c0.1,0.5,0.2,0.9,0.3,1.4
			c-0.5,0.2-1,0.3-1.5,0.5c-4.3,1.5-7,3.8-7,6.3c0,2.5,2.9,5,7.4,6.6c0.4,0.2,0.8,0.2,1.1,0.3c-0.2,0.5-0.2,1-0.3,1.5
			c-0.8,4.4-0.2,8,1.9,9.2c2.1,1.2,5.8,0,9.4-3.1c0.3-0.2,0.5-0.5,0.8-0.8c0.4,0.3,0.7,0.7,1.1,1c3.4,3,6.8,4.1,8.9,2.9
			c2.1-1.2,2.9-5,2-9.7c-0.1-0.4-0.2-0.7-0.2-1.1c0.2-0.1,0.5-0.2,0.8-0.2c4.7-1.5,7.6-4.1,7.6-6.6
			C370.4,195.3,367.7,192.9,363.2,191.4L363.2,191.4z M352.4,184.5c3-2.6,5.8-3.6,7-2.9c1.4,0.8,1.9,3.9,1,8.1
			c-0.1,0.3-0.2,0.5-0.2,0.8c-1.7-0.4-3.5-0.7-5.4-0.8c-1.1-1.6-2.3-3.1-3.4-4.3C351.8,185.1,352.1,184.8,352.4,184.5z M341.9,199.8
			l1.1,2.1c0.4,0.7,0.8,1.4,1.3,2.1c-1.3-0.2-2.6-0.4-3.7-0.6C341,202.1,341.4,201,341.9,199.8L341.9,199.8z M341.9,195.6
			c-0.5-1.2-0.9-2.4-1.3-3.5c1.1-0.2,2.4-0.5,3.7-0.6c-0.5,0.7-0.8,1.4-1.2,2.1L341.9,195.6L341.9,195.6z M342.8,197.7
			c0.5-1.1,1.1-2.2,1.8-3.3c0.6-1.1,1.3-2.1,2-3.1c1.2-0.1,2.4-0.2,3.7-0.2s2.5,0.1,3.7,0.2c0.7,1,1.3,2.1,2,3.1
			c0.6,1.1,1.2,2.1,1.8,3.2c-0.5,1.1-1.1,2.2-1.8,3.3c-0.6,1.1-1.2,2.1-1.9,3.1c-1.2,0.1-2.4,0.2-3.7,0.2s-2.4-0.1-3.7-0.2
			c-0.7-1-1.4-2.1-2-3.1C344,199.9,343.3,198.8,342.8,197.7L342.8,197.7z M357.3,201.8c0.4-0.7,0.8-1.5,1.1-2.1
			c0.5,1.2,1,2.4,1.4,3.6c-1.1,0.3-2.4,0.5-3.7,0.6C356.6,203.2,357,202.5,357.3,201.8L357.3,201.8z M358.5,195.6
			c-0.4-0.7-0.8-1.4-1.1-2.1c-0.4-0.7-0.8-1.4-1.2-2c1.3,0.2,2.5,0.4,3.7,0.6C359.5,193.3,359,194.5,358.5,195.6z M350.2,186.6
			c0.8,0.8,1.6,1.8,2.4,2.9c-1.6-0.1-3.2-0.1-4.8,0C348.6,188.4,349.4,187.5,350.2,186.6z M340.9,181.7c1.4-0.8,4.4,0.3,7.5,3.1
			c0.2,0.2,0.4,0.4,0.6,0.5c-1.1,1.3-2.4,2.7-3.4,4.3c-1.9,0.2-3.7,0.5-5.4,0.8c-0.1-0.4-0.2-0.8-0.3-1.2
			C339.1,185.4,339.6,182.4,340.9,181.7L340.9,181.7z M338.9,202.9c-0.3-0.1-0.7-0.2-1-0.3c-2-0.7-3.6-1.5-4.7-2.5
			c-1-0.8-1.5-1.7-1.5-2.4c0-1.5,2.2-3.4,5.9-4.7l1.4-0.5c0.5,1.7,1.1,3.4,2,5.1C340.1,199.5,339.4,201.2,338.9,202.9L338.9,202.9z
			 M348.3,210.8c-1.6,1.4-3.1,2.4-4.5,2.8c-1.2,0.5-2.2,0.5-2.8,0.1c-1.3-0.8-1.8-3.6-1.1-7.4c0.1-0.5,0.2-0.9,0.3-1.4
			c1.7,0.4,3.5,0.6,5.4,0.8c1.1,1.6,2.3,3.1,3.4,4.3C348.9,210.3,348.5,210.5,348.3,210.8L348.3,210.8z M350.3,208.8
			c-0.8-0.9-1.6-1.8-2.4-2.9c0.8,0,1.5,0.1,2.4,0.1c0.8,0,1.6,0,2.4-0.1C351.8,207,351.1,207.9,350.3,208.8z M360.8,211.2
			c-0.2,1.3-0.7,2.1-1.3,2.5c-1.3,0.8-4-0.2-7-2.8c-0.3-0.3-0.7-0.6-1-0.9c1.1-1.2,2.3-2.7,3.4-4.3c2-0.2,3.8-0.5,5.5-0.8
			c0.1,0.3,0.2,0.7,0.2,1C361,207.9,361.1,209.8,360.8,211.2L360.8,211.2z M362.2,202.6l-0.7,0.2c-0.5-1.6-1.2-3.4-2.1-5.1
			c0.8-1.8,1.5-3.4,2-5c0.4,0.2,0.8,0.2,1.2,0.4c3.7,1.3,6,3.2,6,4.7C368.7,199.2,366.3,201.2,362.2,202.6L362.2,202.6z"/>
		<circle class="st2" cx="350.2" cy="197.6" r="3.6"/>
	</g>
	<circle class="st5" cx="291.4" cy="198.7" r="12.8"/>
	<path class="st2" d="M297.5,176.8h-10.3c-1.7,0-3.1-1.4-3.1-3.1v-4.6c0-1.7,1.4-3.1,3.1-3.1h10.4L297.5,176.8L297.5,176.8z
		 M402.2,176.8h10.4c1.7,0,3.1-1.4,3.1-3.1v-4.6c0-1.7-1.4-3.1-3.1-3.1h-10.4V176.8L402.2,176.8z"/>
	<path class="st6" d="M293.2,268.5h-17.8c-2.1,0-3.7-1.6-3.7-3.7v-19.7c0-2.1,1.6-3.7,3.7-3.7h17.8c2.1,0,3.7,1.6,3.7,3.7v19.7
		C296.9,266.8,295.2,268.5,293.2,268.5z M424.5,268.5h-17.9c-2.1,0-3.7-1.6-3.7-3.7v-19.7c0-2.1,1.6-3.7,3.7-3.7h17.8
		c2.1,0,3.7,1.6,3.7,3.7v19.7C428.2,266.8,426.5,268.5,424.5,268.5L424.5,268.5z"/>
	<path class="st2" d="M435.3,244.7H264.6c-1.6,0-3-1.3-3-3v-7.6c0-1.6,1.3-3,3-3h170.6c1.6,0,3,1.3,3,3v7.6
		C438.2,243.4,436.9,244.7,435.3,244.7L435.3,244.7z"/>
	<ellipse transform="matrix(0.6 -0.8 0.8 0.6 4.3307 406.047)" class="st7" cx="408.2" cy="198.7" rx="12.8" ry="12.8"/>
</g>
<path class="st8" d="M36.1,38.1C36.2,38.1,36.2,38.1,36.1,38.1c2.1-0.9,3.7-2.2,4.8-3.9c1.1-1.7,1.7-3.7,1.7-6.1
	c0-2.4-0.6-4.4-1.7-6.1s-2.7-3-4.7-4c-2-0.9-4.5-1.4-7.3-1.4H15.2v6c1.4,2.9,4.6,4.7,7.8,4.2c1.3-0.2,2.6-0.3,4-0.5
	c-0.3-1.2-0.6-2.3-0.8-3.4c-0.3-1.1-0.5-2.2-0.8-3.4c1,0.2,2,0.1,2.6,1c1,1.6,2.2,3.1,3.2,4.6c0.2,0.4,0.5,0.5,0.9,0.5
	c2.2-0.1,4.3-0.2,6.5-0.3c1.1,0,1.7,0.5,1.7,1.4c0.1,0.7-0.6,1.4-1.5,1.6c-2.2,0.4-4.3,0.8-6.5,1.3c-0.2,0-0.4,0.4-0.5,0.6
	c-0.7,1.8-1.4,3.5-1.9,5.3c-0.4,1.3-1.4,1.5-2.5,1.8c0-0.3,0-0.5,0-0.7c0-1.9,0-3.8,0-5.7c0-0.5-0.1-0.8-0.7-0.7
	c-1.6,0.3-3.2,0.5-4.9,0.6c-3.3,0.2-5.7,2-6.8,4.6v12.9h7.3v-8.8h6.4c0.1,0,0.2,0,0.3,0l6.1,8.8h7.9L36.1,38.1z"/>
</svg>
