<?xml version="1.0" encoding="utf-8"?>
<!-- Generator: Adobe Illustrator 25.4.1, SVG Export Plug-In . SVG Version: 6.00 Build 0)  -->
<svg version="1.1" id="Layer_1" xmlns="http://www.w3.org/2000/svg" xmlns:xlink="http://www.w3.org/1999/xlink" x="0px" y="0px"
	 viewBox="0 0 364 419.2" style="enable-background:new 0 0 364 419.2;" xml:space="preserve">
<g>
	<circle style="fill:#92A8B4;" cx="182" cy="185" r="101.9"/>
	<path style="opacity:0.2;fill:#FFFFFF;enable-background:new    ;" d="M247.7,165.5c-0.9-7.5-1.5-26.4-16.7-31.2s-28.1-7-48.9-7
		s-33.7,2.2-48.9,7s-15.8,23.6-16.7,31.2c-0.9,7.5,6.8,7.3,6.8,7.3H241C240.9,172.8,248.7,173.1,247.7,165.5z"/>
	<path style="fill:#FFFFFF;" d="M258.1,164.1v6.8l-2,1.3c0,0-4.3-26.5-8.4-34c-4-7.5-27.5-19.5-65.7-19.5s-61.7,11.9-65.7,19.5
		c-4,7.5-8.4,34-8.4,34l-2-1.3v-6.8c0-4.7-9.6-5.1-9.6,0.3v9.3c0,6.1,9.6,4.8,9.6,1.3l1.3,1.3c0,0,0.3,0.9,0,3.6
		c-0.3,2.7,4,3.7,4,3.7h141.6c0,0,4.3-1,4-3.7s0-3.6,0-3.6l1.3-1.3c0,3.5,9.6,4.7,9.6-1.3v-9.3C267.6,159.1,258.1,159.4,258.1,164.1
		z M243.4,175.4H120.7c0,0-8.1,0.3-7.1-8.1c1-8.4,1.6-29.4,17.4-34.8s29.4-7.7,51.1-7.7s35.2,2.4,51.1,7.7
		c15.9,5.3,16.5,26.4,17.4,34.8S243.4,175.4,243.4,175.4L243.4,175.4z"/>
	
		<circle style="fill:#FFFFFF;fill-opacity:0.2;stroke:#FFFFFF;stroke-width:1.3949;stroke-miterlimit:10;" cx="128.6" cy="220.3" r="11.6"/>
	<path style="fill:#FFFFFF;" d="M134.2,200.3h-9.4c-1.5,0-2.9-1.3-2.9-2.9v-4.2c0-1.5,1.3-2.9,2.9-2.9h9.5L134.2,200.3L134.2,200.3z
		 M229.6,200.3h9.5c1.5,0,2.9-1.3,2.9-2.9v-4.2c0-1.5-1.3-2.9-2.9-2.9h-9.5V200.3L229.6,200.3z"/>
	<path style="fill:#8E949A;" d="M130.2,284h-16.3c-1.9,0-3.3-1.5-3.3-3.3v-17.9c0-1.9,1.5-3.3,3.3-3.3h16.3c1.9,0,3.3,1.5,3.3,3.3
		v17.9C133.5,282.4,132.1,284,130.2,284z M249.9,284h-16.3c-1.9,0-3.3-1.5-3.3-3.3v-17.9c0-1.9,1.5-3.3,3.3-3.3h16.3
		c1.9,0,3.3,1.5,3.3,3.3v17.9C253.3,282.4,251.7,284,249.9,284L249.9,284z"/>
	<path style="fill:#FFFFFF;" d="M259.8,262.3H104.1c-1.5,0-2.7-1.2-2.7-2.7v-7c0-1.5,1.2-2.7,2.7-2.7h155.6c1.5,0,2.7,1.2,2.7,2.7v7
		C262.4,261.1,261.2,262.3,259.8,262.3L259.8,262.3z"/>
	
		<ellipse style="fill:#FFFFFF;fill-opacity:0.2;stroke:#FFFFFF;stroke-width:1.395;stroke-miterlimit:10.0005;" cx="235.1" cy="220.29" rx="11.6" ry="11.6"/>
</g>
<g>
	<path style="fill:#92A8B4;" d="M206.1,201.2l-5.6,3.6c-0.4,0.2-0.9,0.2-1.2-0.1l-2.3-1.9c-0.2-0.1-0.3-0.3-0.3-0.5l-0.7-2.6
		c-0.1-0.5,0.1-1,0.5-1.2l6.4-3.7c-4-3.4-10-2.8-13.3,1.2c-1.7,2-2.5,4.6-2.1,7.2c0.1,1-0.2,2-0.9,2.7l-15.3,15.3
		c-0.7,0.7-1.7,1-2.7,0.9c-0.4-0.1-0.8-0.1-1.2-0.1c-5.2,0-9.4,4.1-9.5,9.3c0,0.5,0,1,0.1,1.6l6.4-4c0.4-0.2,0.9-0.2,1.2,0.1
		l2.3,1.9c0.2,0.1,0.3,0.3,0.3,0.5l0.7,2.6c0.1,0.5-0.1,1-0.5,1.2l-6.8,3.9c1.8,1.3,4,2,6.2,1.8c5.2-0.3,9.2-4.8,8.8-10
		c0-0.2,0-0.4-0.1-0.7c-0.1-1,0.2-2,0.9-2.7l15.2-15.2c0.7-0.7,1.7-1,2.7-0.9c5.2,0.7,9.9-2.9,10.6-8.1c0.1-0.4,0.1-0.8,0.1-1.3
		C206.2,201.8,206.2,201.5,206.1,201.2z"/>
	<path style="fill:#8E949A;" d="M181.9,223.1l4.5,4.5c0.7,0.7,1,1.7,0.9,2.7c-0.1,0.4-0.1,0.8-0.1,1.2c0,5.2,4.1,9.4,9.3,9.5
		c0.5,0,1,0,1.6-0.1l-4-6.4c-0.2-0.4-0.2-0.9,0.1-1.2l1.9-2.3c0.1-0.2,0.3-0.3,0.5-0.3l2.6-0.7c0.5-0.1,1,0.1,1.2,0.5l3.9,6.8
		c1.3-1.8,2-4,1.8-6.2c-0.3-5.2-4.8-9.2-10-8.8c-0.2,0-0.4,0-0.7,0.1c-1,0.1-2-0.2-2.7-0.9l-4.5-4.5L181.9,223.1z"/>
	<path style="opacity:0.2;fill:#000064;enable-background:new    ;" d="M181.9,223.1l6.4-6.4l4,4l-6.4,6.4L181.9,223.1z"/>
	<path style="fill:#8E949A;" d="M181.9,210.4l-4.4-4.4c-0.7-0.7-1-1.7-0.9-2.7c0.7-5.2-2.9-9.9-8.1-10.6c-0.4-0.1-0.8-0.1-1.3-0.1
		c-0.3,0-0.5,0-0.8,0l3.6,5.6c0.2,0.4,0.2,0.9-0.1,1.2l-1.9,2.3c-0.1,0.2-0.3,0.3-0.5,0.3l-2.6,0.7c-0.5,0.1-1-0.1-1.2-0.5L160,196
		c-3.4,4-2.9,10,1.1,13.3c1.2,1,2.5,1.7,4,2c1.1,0.2,2.2,0.3,3.2,0.2s2,0.2,2.7,0.9l4.4,4.4L181.9,210.4z"/>
	<path style="fill:none;stroke:#2E4369;stroke-width:1.6116;stroke-linecap:round;stroke-linejoin:round;stroke-miterlimit:10;" d="
		M206.1,201.2l-5.6,3.6c-0.4,0.2-0.9,0.2-1.2-0.1l-2.3-1.9c-0.2-0.1-0.3-0.3-0.3-0.5l-0.7-2.6c-0.1-0.5,0.1-1,0.5-1.2l6.4-3.7
		c-4-3.4-10-2.8-13.3,1.2c-1.7,2-2.5,4.6-2.1,7.2c0.1,1-0.2,2-0.9,2.7l-15.3,15.3c-0.7,0.7-1.7,1-2.7,0.9c-0.4-0.1-0.8-0.1-1.2-0.1
		c-5.2,0-9.4,4.1-9.5,9.3c0,0.5,0,1,0.1,1.6l6.4-4c0.4-0.2,0.9-0.2,1.2,0.1l2.3,1.9c0.2,0.1,0.3,0.3,0.3,0.5l0.7,2.6
		c0.1,0.5-0.1,1-0.5,1.2l-6.8,3.9c1.8,1.3,4,2,6.2,1.8c5.2-0.3,9.2-4.8,8.8-10c0-0.2,0-0.4-0.1-0.7c-0.1-1,0.2-2,0.9-2.7l15.2-15.2
		c0.7-0.7,1.7-1,2.7-0.9c5.2,0.7,9.9-2.9,10.6-8.1c0.1-0.4,0.1-0.8,0.1-1.3C206.2,201.8,206.2,201.5,206.1,201.2z"/>
	<path style="fill:none;stroke:#2E4369;stroke-width:1.6116;stroke-linecap:round;stroke-linejoin:round;stroke-miterlimit:10;" d="
		M181.9,223.1l4.5,4.5c0.7,0.7,1,1.7,0.9,2.7c-0.1,0.4-0.1,0.8-0.1,1.2c0,5.2,4.1,9.4,9.3,9.5c0.5,0,1,0,1.6-0.1l-4-6.4
		c-0.2-0.4-0.2-0.9,0.1-1.2l1.9-2.3c0.1-0.2,0.3-0.3,0.5-0.3l2.6-0.7c0.5-0.1,1,0.1,1.2,0.5l3.9,6.8c1.3-1.8,2-4,1.8-6.2
		c-0.3-5.2-4.8-9.2-10-8.8c-0.2,0-0.4,0-0.7,0.1c-1,0.1-2-0.2-2.7-0.9l-4.5-4.5 M181.9,210.4l-4.4-4.4c-0.7-0.7-1-1.7-0.9-2.7
		c0.7-5.2-2.9-9.9-8.1-10.6c-0.4-0.1-0.8-0.1-1.3-0.1c-0.3,0-0.5,0-0.8,0l3.6,5.6c0.2,0.4,0.2,0.9-0.1,1.2l-1.9,2.3
		c-0.1,0.2-0.3,0.3-0.5,0.3l-2.6,0.7c-0.5,0.1-1-0.1-1.2-0.5L160,196c-3.4,4-2.9,10,1.1,13.3c1.2,1,2.5,1.7,4,2
		c1.1,0.2,2.2,0.3,3.2,0.2s2,0.2,2.7,0.9l4.4,4.4"/>
</g>
<g>
	<g>
		<g>
			<path style="fill:#92A8B4;" d="M124.9,321.1l2.6,3.4c0.4,0.7,0.9,0.7,1.6,0.7c0.5,2.1-0.4,2.8-1.9,2.8c-1.5,0-2.1-0.8-2.7-1.8
				l-3-4.5h-2.9c0,0.7-0.1,3.8,0,4.5c0.1,1.1-0.2,1.5-1.1,1.5h-1.3c-1.2,0-1.2-1.1-1.2-1.9c0.1-2.1,0.1-13.2,0.1-13.9
				c0-0.9-0.2-2.1,1.4-2.1h5.4c4.5,0,6.8,2.5,6.8,6C128.6,318.5,127,320.3,124.9,321.1z M121.6,312.4h-3.1c-0.1,1.5,0,5.8,0,6.8h3.1
				c2,0,3.4-1.2,3.4-3.4C125.1,314.2,124.1,312.4,121.6,312.4z"/>
			<path style="fill:#92A8B4;" d="M134,309.8h9.4c0.9,0,1.1,0.4,1.1,1.1v0.9c0,0.7-0.4,1-1.1,1h-6.9v4.6c1.9,0,5.3,0,5.9,0
				c0.5,0,0.9,0.2,0.9,0.8v1.1c0,0.7-0.2,0.8-0.8,0.8c-0.8,0-4,0-6,0c0,1.7,0,3.2,0.1,4.5c2,0,6.1,0,6.9-0.1
				c0.8-0.1,1.1,0.3,1.1,1.1v1.2c0,0.7-0.2,0.8-1.1,0.8h-9.3c-1.2,0-1.2-1.1-1.2-1.9c0.1-2.1-0.1-13.2-0.1-13.8
				C132.8,311.1,132.4,309.8,134,309.8z"/>
			<path style="fill:#92A8B4;" d="M154,309.8h2.4c1.1,0,1.5,0.6,1.8,1.5c0.2,0.9,4.2,13.5,4.6,14.9c0.2,0.9,0.1,1.5-0.8,1.5h-1.1
				c-1.2,0-1.3-0.9-1.5-1.3s-0.4-1.5-1-2.8h-6.6c-0.5,1.4-0.8,2.4-0.9,2.7c-0.2,0.9-0.4,1.4-1.3,1.4h-1.5c-0.7,0-1-0.6-0.7-1.4
				c0.6-2.2,4.7-14,4.9-15C152.5,310.4,152.8,309.8,154,309.8z M152.4,321.1h5.4c-1.1-3.5-2.3-7.6-2.6-8.7H155
				C154.7,313.6,153.5,317.7,152.4,321.1z"/>
			<path style="fill:#92A8B4;" d="M178,313c-0.4,0.7-0.8,0.9-0.8,0.9s-1.3-1.3-4-1.3c-3.4,0-4.9,2.8-4.9,6.1c0,3.4,1.8,6.2,4.9,6.2
				c1.6,0,2.6-0.5,3.2-0.9c0.4-0.3,0.8-0.5,1.2,0.2l0.7,1.2c0.2,0.4,0.4,0.7-0.1,1.1c-0.7,0.6-2.4,1.4-5,1.4c-5.6,0-8.4-3.9-8.4-9.2
				c0-5.2,2.7-9.2,8.3-9.2c2.8,0,4.3,0.9,4.8,1.2C178.3,311.1,178.9,311.8,178,313z"/>
			<path style="fill:#92A8B4;" d="M194.9,310.9v1.1c0,0.7-0.1,0.8-1.1,0.8h-4.3c-0.1,3.6-0.1,12.1-0.1,12.6c0,0.9,0.5,2.1-1.1,2.1
				H187c-1.2,0-1.3-1.1-1.2-1.9s0.2-9.9,0.1-12.9c-0.8,0-3.8,0-4.2,0c-0.8,0.1-1-0.3-1-1v-1.2c0-0.7,0.1-0.8,1.1-0.8
				c0,0,10.7,0.1,12.2,0C194.7,309.8,194.9,310.2,194.9,310.9z"/>
			<path style="fill:#92A8B4;" d="M204.2,328c-5.5,0-8.1-3.9-8.1-9.2c0-5.2,2.6-9.2,8-9.2c5.2,0,8,4,8,9.2
				C212.2,324,209.4,328,204.2,328z M204.2,312.6c-3.3,0-4.4,2.9-4.4,6.2c0,3.3,1.1,6.2,4.4,6.2c3.3,0,4.4-3,4.4-6.2
				C208.6,315.4,207.5,312.6,204.2,312.6z"/>
			<path style="fill:#92A8B4;" d="M223.2,328c-6,0-7.3-3.3-7.4-8.5c-0.1-3.5,0-7.1,0-7.8c0-0.9-0.3-1.8,1.1-1.8h1.3
				c1.2,0,1.3,0.8,1.2,1.6c-0.1,0.9-0.1,4.7-0.1,8c0,3.5,0.9,5.5,3.8,5.5c2.8,0,3.7-1.9,3.7-5.6c0-3.4,0-7,0-7.7
				c0-0.9-0.3-1.8,1.1-1.8h1.3c1.2,0,1.3,0.8,1.3,1.6c0,0.9-0.1,6.7-0.2,8C230.2,324.6,228.8,328,223.2,328z"/>
			<path style="fill:#92A8B4;" d="M244.7,321.1l2.6,3.4c0.4,0.7,0.9,0.7,1.6,0.7c0.5,2.1-0.4,2.8-1.9,2.8s-2.1-0.8-2.7-1.8l-3-4.5
				h-2.9c0,0.7-0.1,3.8,0,4.5c0.1,1.1-0.2,1.5-1.1,1.5H236c-1.2,0-1.2-1.1-1.2-1.9c0.1-2.1,0.1-13.2,0.1-13.9c0-0.9-0.2-2.1,1.4-2.1
				h5.4c4.5,0,6.8,2.5,6.8,6C248.4,318.5,246.7,320.3,244.7,321.1z M241.4,312.4h-3.1c-0.1,1.5,0,5.8,0,6.8h3.1c2,0,3.4-1.2,3.4-3.4
				C244.8,314.2,243.9,312.4,241.4,312.4z"/>
		</g>
	</g>
	<g>
		<path style="fill:#8E949A;" d="M179.1,356.8c-0.8-0.1-1.8-0.1-2.5-0.4c-1.5-1.4-2.2-3.6-2.6-5.7c-0.1-0.6-0.1-1.2-0.3-1.8
			c0-0.2-0.3-0.4-0.5-0.4c0.9-0.2,0.4-1.7,0.5-2.3c-0.5,0.2-0.7,1.8-1,2.3c-1.3,2.7-3.2,4.8-5.1,7c-0.6,0.3-1.1,0.6-1.5,1.1
			c-0.6,0.2-1.3,0.4-1.9,0.5c-1.1,0.1-2.2-0.1-3.1-0.7l-1.2-2.2c-0.2-0.3-0.3-0.6-0.4-0.9c-0.1-0.3-0.1-0.7-0.1-1
			c-0.1-1.2-0.1-2.5,0-3.8c0-0.5,0.2-1.1,0.2-1.6v-0.3c0-0.2,0-0.5-0.2-0.6c0.3-1.1,0.5-2.1,0.4-3.3c0-0.4-0.1-0.7-0.1-1.1
			c0.5-0.5,0-1.4,0.3-2.1c-0.1-0.4-0.1-0.8-0.1-1.1c-0.2-2.4,0.2-4.7,0-7.1l-0.1-1.1c-0.1-1-0.1-2.2,0.7-2.9c0.1,0,0.1,0,0.2,0
			c0.3,0,0.5,0.2,0.8,0.2c0.7,0.8,1.2,1.9,1.3,3c0.1,0.8-0.2,1.7-0.2,2.6c0,0.4,0.1,0.7,0.1,1.1s0,0.7-0.3,1
			c0.1,0.7,0.2,1.4,0.3,2.1c0.3,4.1-0.6,8.2-0.3,12.3c0,0.5,0.1,1,0.2,1.5c-0.1,0.3-0.1,0.5-0.1,0.8c0.1,0.8,0.6,1.5,1.1,2.1
			c0.2,0,0.3,0,0.5,0c1.9-0.1,2.7-2,4.1-3c1-1.5,1.9-3.1,2.7-4.7c0-1.8,1.4-3.6,1.3-5.2c0-0.2-0.1-0.3-0.2-0.4
			c0.6-1.9,0.3-4,0.7-5.9c0-0.2-0.1-0.4-0.1-0.7c-0.1-1.6,0.2-3.2,0.1-4.9c0-0.4-0.1-0.7-0.2-1c0-0.3,0.3-0.2,0.3-0.6
			c0-0.3-0.1-0.6-0.2-0.9c-0.1-1.1,0.2-2.2,0.1-3.3c0-0.2,0-0.5-0.1-0.7c0.2-0.4,0.7-0.5,1.1-0.6c0.3,0,0.5,0,0.8,0
			c0.8,1.8,1.4,3.6,1.9,5.6c0.1,0.5,0.3,1,0.3,1.5c0,0.1,0,0.3,0,0.4c0,0.3,0,0.6,0,0.8c0.1,0.8,0.3,1.7,0.3,2.6
			c0.1,1-0.2,1.9-0.3,2.9s0.1,2,0.1,3.1c0,0.4-0.2,0.8-0.2,1.3c0,0.3,0.1,0.6,0.2,1c0,0.2,0,0.4-0.1,0.6c0.1,0.3,0.1,0.5,0.3,0.7
			c-0.2,0.2-0.2,0.5-0.2,0.8s0.1,0.6,0.1,1c0.1,0.7-0.2,1.4-0.2,2.1c0,0.5,0.1,1,0.1,1.5s0.1,1-0.2,1.5c0.1,0.2,0.2,0.5,0.4,0.5
			c0.1,1.1,0.5,2.2,1.1,3.2c0.3,0.4,0.9,0.3,0.8,1c0.1,0,0.1,0,0.2,0c0.3,0,0.4-0.3,0.7-0.3h0.2c0.4,0.3,0.8,0.7,0.9,1.2
			C180.7,356.1,179.6,356.4,179.1,356.8z"/>
		<path style="fill:#8E949A;" d="M203.4,333c-0.2,0.9-1.3,1.5-1.1,2.6c-0.1,0-0.2,0-0.3,0c-0.6,0-0.7,0.4-1.2,0.6
			c-0.1-0.2-0.2-0.4-0.4-0.5c-0.8,0.3-1.7,0.4-2.5,0.6c-0.4,0.1-0.8,0.3-1.2,0.4c-0.2,0.1-0.5,0.1-0.7,0.1c-0.8,0.1-1.9,0.2-2.7,0.7
			c-0.4-0.1-0.8,0-1.2,0c-0.9,0.1-2,0.3-2.7,0.8c-0.2,0-0.4-0.1-0.6-0.1c-0.1,0-0.1,0-0.2,0c0,0.3,0.1,0.6,0.4,0.8
			c-0.1,0.2-0.1,0.4-0.1,0.6c0,0.6,0.2,1.2,0.3,1.8c0,0.3,0,0.5-0.1,0.8c0.2,0.5,0.4,1.1,0.4,1.7c0,0.4,0,0.9,0,1.3s0.5,0.5,0.5,0.9
			c0,0.1,0,0.2,0,0.2c0.5-0.1,0.9-0.4,1.4-0.5c0.3,0,0.6,0.1,0.8,0.2c0,0.2,0,0.4,0,0.6c0,0.4,0.1,0.7,0.1,1.1
			c-0.2,0.5-0.7,0.9-0.8,1.5c-1.1,0.1-1.5,1.2-2.3,1.3c-1.1,0.1-0.7-0.7-1.3-0.6c-0.2-0.9-1.1-1.5-1.3-2.4c-0.3-0.9-0.2-1.9-0.6-2.8
			c0-0.5,0-1,0-1.5c-0.1-1-0.2-2-0.3-3c-0.2-0.3-0.3-0.7-0.4-1.1c-0.1-0.1-0.3-0.2-0.3-0.4c-0.1,0-0.2,0-0.3,0
			c-0.5,0-0.8,0.4-1.1,0.4s-0.5-0.1-0.8,0c-0.2,0-0.2,0.1-0.3,0.2c-0.2,0.2-1.8,0.4-2.1,0.5c-0.6,0-0.8-0.2-1.2-0.5
			c0-0.1,0-0.2,0-0.2c0-0.3-0.4-0.5-0.4-0.7c0-0.4,0.4-0.6,0.4-1c1.5-0.9,3.4-0.8,5.1-1.6c0.2,0,0.5,0,0.7,0
			c1.1-0.1,2.1-0.5,3.2-0.6c0.3,0,0.6,0,0.9,0c1.4-0.3,2.8-0.7,4.2-1c0.7-0.1,1.4-0.2,2.1-0.4c0.2,0,0.4-0.1,0.4-0.4
			c0.2,0.1,0.4,0.1,0.6,0.1c0.6,0,1.1-0.4,1.7-0.5c0.1,0,0.2,0,0.4,0c0.3,0,0.1-0.3,0.4-0.4c0.5-0.2,2.1-0.3,2.4-0.7l0.2-0.3
			c0.6,0,1,0.6,1.1,1.2C202.8,333.1,203.1,333,203.4,333L203.4,333z"/>
		<path style="fill:#8E949A;" d="M205.9,347.1c-0.5,0.3-1.2,0-1.5,0.3c-0.3-0.1-0.4-0.3-0.7-0.4c-0.1,0-0.1,0-0.2,0
			c-0.6-0.5-1.1-1.2-1.5-1.8c-0.1-0.7-0.2-1.3-0.3-2c-0.1-0.3-0.2-0.6-0.2-0.9s0-0.7,0-1c0.1-1,0.2-2,0.2-3.1c0-0.9,0-2-0.4-2.8
			v-0.1c0-0.3,0.1-0.5,0.1-0.8c0-0.2,0-0.3-0.2-0.4c0.1-0.3,0.4-0.3,0.4-0.6c0-0.1,0-0.1,0-0.2c0.3-0.1,0.6-0.3,0.9-0.2
			c0.4,0,0.8,0.3,1.2,0.5c1.4,3.3-0.4,7.9,1.1,10.9h0.1c0.2,0,0.2-0.2,0.4-0.2c0.1,0,0.1,0,0.1,0c0.2,0.7,0.6,1.3,1.1,1.9
			C206.3,346.6,206.1,346.9,205.9,347.1z"/>
		<path style="fill:#8E949A;" d="M222.9,342.6c0,0.1,0.1,0.2,0.1,0.3c-0.5,0-0.5,0.5-0.7,0.8c-0.6,0-0.6,0-0.8,0.6
			c-1.3,0.4-2.3,1.5-3.6,2c-0.1,0.3-0.4,0.5-0.6,0.7h-0.1c-0.2,0-0.3-0.1-0.5-0.1h-0.1c-0.5,0.4-1.1,0.6-1.7,0.7c-0.4,0-0.7,0-1,0
			c-0.2,0,0,0.3-0.4,0.3s-0.8-0.1-1.2,0c-0.8-0.4-1.3-0.7-1.7-1.5c-0.2-0.4-0.6-0.7-0.8-1.1c-0.1-0.3-0.5-1.7-0.5-2
			c0-0.4,0-0.9,0-1.3c0.1-1.4,0-2.8,0.4-4.1c-0.1-0.4-0.1-0.8-0.1-1.1c0-0.3-0.1-0.6-0.2-0.8c0.1-0.2,0.2-0.5,0.2-0.8
			s-0.2-0.5-0.5-0.5v-0.1c0-0.4-0.2-0.6-0.5-0.8c-0.1-1.2,0.5-1.8,1.5-2.3c0-0.1,0.1-0.2,0.1-0.3c0.2,0.1,0.4,0.1,0.7,0.1
			c0.2,0,0.4-0.1,0.5-0.1c0.1,0.4,0.7,0.4,1,0.5v0.3c0,0.6,0.2,1.1,0.5,1.6c-0.1,0.3-0.1,0.6-0.1,0.9c0,0.4,0.1,0.8,0.2,1.2
			c0,0.4,0,0.9-0.3,1.2c0,0.9,0.2,2.5-0.3,3.3c0,0.5,0,1.1,0.1,1.6c0.1,0.8,0.2,2,0.7,2.7c0.2,0.3,0.9,0.4,1.2,0.3
			c0.4,0,0.8-0.2,1-0.5c0.2,0,0.2,0.3,0.4,0.3c1.9-1,3.9-1.9,5.8-3.1c0.2,0.1,0.3,0.1,0.5,0.1c0.4,0,0.7-0.2,1.1-0.2h0.2
			c0,0.1,0.1,0.2,0.1,0.2C223.3,342.2,222.9,342.3,222.9,342.6z"/>
		<path style="fill:#8E949A;" d="M237.2,345.8c-0.5,0.3-0.7,0.9-1,1.3c-2.2,1.7-4.9,3-7.7,3.2c-0.4,0-0.6-0.7-1-0.7
			c-0.1,0-0.2,0-0.3,0.1c0-0.1,0-0.1,0-0.2c0-0.4-0.2-0.9-0.3-1.3c0-0.2,0-0.4,0.1-0.6h0.3c0.4,0,0.7-0.1,1.1-0.2
			c0.2,0,0.4,0,0.6,0.1c1.9-0.2,3.6-1.2,5.3-2c0.2-0.4,0.2-0.9,0.4-1.4c-1-0.7-1.9-1.1-3.1-0.9c-0.8-0.4-1.6-0.3-2.5-0.4
			c-0.2,0-0.5-0.1-0.7-0.1s-0.3,0.1-0.3,0.3c-0.2-0.2-0.5-0.2-0.8-0.4c-1.1,0-1.9-0.3-3-0.6c-0.3-0.1-0.6-0.1-0.8-0.2
			c-1.3-0.5-1.6-2.2-1.9-3.4c0.3-0.6,0.5-1.2,0.6-1.9c0.2-0.1,0.4-0.2,0.7-0.3c0-0.1,0-0.1,0-0.1c0-0.2,0.1-0.4,0.1-0.6
			c0.7-0.7,1.4-1.6,1.9-2.5c1-0.4,1-1.7,2.3-1.9c0.2-0.6,1-0.6,1.1-1.2c1.1-0.1,1.8-1.2,2.9-1.2c0.1,0,0.3,0,0.4,0
			c0.6,0.4,0.4,1.5,0.7,2.1c-0.3,0.6-0.5,1.3-1.1,1.7h-0.1c-0.2,0-0.5-0.2-0.7-0.1c-0.4,0-0.3,0.4-0.7,0.4c-0.2,0.1-0.3,0.3-0.2,0.5
			c-1.3,0.2-1.6,1.8-2.6,1.9c-0.5,1.1-1.5,1.9-2,3c0.1,0.3,0.2,0.6,0.3,0.9c0.4,0.4,0.8,0.7,1.3,0.9h0.1c0.7-0.1,1.3,0.3,2,0.3
			c0.2,0,0.3-0.1,0.5-0.1c0.9,0.1,1.9,0.2,2.8,0.2c0.5,0,1,0,1.4,0c0.4,0.1,0.8,0.2,1.2,0.3c1.7,0.6,3.2,1.5,3.3,3.4
			C237.5,344.8,237.1,345.1,237.2,345.8z"/>
	</g>
</g>
</svg>
