<?xml version="1.0" encoding="utf-8"?>
<!-- Generator: Adobe Illustrator 25.4.1, SVG Export Plug-In . SVG Version: 6.00 Build 0)  -->
<svg version="1.1" id="Layer_1" xmlns="http://www.w3.org/2000/svg" xmlns:xlink="http://www.w3.org/1999/xlink" x="0px" y="0px"
	 viewBox="0 0 364 419.2" style="enable-background:new 0 0 364 419.2;" xml:space="preserve">
<style type="text/css">
	.st0{fill:#92A8B4;}
	.st1{clip-path:url(#SVGID_00000033344799660639099680000014686502102107914905_);}
	.st2{opacity:0.2;fill:#FFFFFF;enable-background:new    ;}
	.st3{fill:#FFFFFF;}
	.st4{fill:#FFFFFF;fill-opacity:0.2;stroke:#FFFFFF;stroke-width:2.1061;stroke-miterlimit:10.0003;}
	.st5{opacity:0.13;enable-background:new    ;}
	.st6{fill:none;stroke:#8E949A;stroke-width:12.4247;stroke-miterlimit:10;}
	.st7{fill:#8E949A;}
</style>
<g>
	<g>
		<circle class="st0" cx="182" cy="171" r="104.2"/>
		<g>
			<defs>
				<circle id="SVGID_1_" cx="182" cy="171" r="104.2"/>
			</defs>
			<clipPath id="SVGID_00000115505575622089895580000012783451735802855073_">
				<use xlink:href="#SVGID_1_"  style="overflow:visible;"/>
			</clipPath>
			<g style="clip-path:url(#SVGID_00000115505575622089895580000012783451735802855073_);">
				<path class="st2" d="M242.4,177.5c-1.4-11.4-2.3-39.8-25.3-47.1c-23-7.3-42.4-10.5-73.8-10.5s-50.9,3.3-73.8,10.5
					s-23.9,35.7-25.3,47.1c-1.4,11.4,10.3,11,10.3,11h177.8C232.1,188.4,243.8,188.9,242.4,177.5z"/>
				<path class="st3" d="M258.1,175.3v10.2l-3.1,2c0,0-6.5-40-12.6-51.4c-6.1-11.4-41.6-29.4-99.2-29.4S50.1,124.6,44,136.1
					c-6.1,11.4-12.6,51.4-12.6,51.4l-3.1-2v-10.2c0-7.1-14.4-7.7-14.4,0.4v14.1c0,9.2,14.4,7.3,14.4,2l1.9,2c0,0,0.4,1.4,0,5.5
					c-0.4,4.1,6.1,5.6,6.1,5.6h213.8c0,0,6.4-1.5,6.1-5.6c-0.4-4.1,0-5.5,0-5.5l1.9-2c0,5.3,14.4,7.2,14.4-2v-14.1
					C272.5,167.7,258.1,168.2,258.1,175.3z M235.9,192.4H50.6c0,0-12.2,0.5-10.7-12.2s2.4-44.4,26.3-52.5s44.3-11.7,77.1-11.7
					s53.1,3.7,77.1,11.7s25,39.8,26.3,52.5C248.2,192.9,235.9,192.4,235.9,192.4L235.9,192.4z"/>
				<g>
					<path class="st3" d="M161.4,250c-0.6-0.2-1.2-0.4-1.8-0.5l0.3-1.3c1.4-6.6,0.4-11.9-2.5-13.7c-2.9-1.7-7.7,0.1-12.4,4.2
						c-0.4,0.4-0.9,0.8-1.4,1.3c-0.3-0.3-0.6-0.5-0.9-0.8c-5.1-4.4-10.1-6.3-13.1-4.6c-2.9,1.7-3.8,6.6-2.5,13
						c0.1,0.6,0.2,1.3,0.4,1.9c-0.7,0.2-1.4,0.4-2.1,0.6c-5.9,2.1-9.7,5.3-9.7,8.6c0,3.5,4,7,10.2,9.1c0.5,0.2,1.1,0.3,1.5,0.4
						c-0.2,0.6-0.3,1.4-0.4,2c-1.2,6.1-0.2,11.1,2.6,12.6c2.9,1.7,8,0,13-4.3c0.4-0.3,0.7-0.7,1.2-1.1c0.5,0.4,0.9,0.9,1.5,1.4
						c4.7,4.1,9.4,5.7,12.3,4c2.9-1.7,4-7,2.7-13.4c-0.1-0.5-0.2-0.9-0.3-1.5c0.3-0.1,0.7-0.2,1.1-0.3c6.4-2.1,10.5-5.6,10.5-9.1
						C171.3,255.4,167.5,252.1,161.4,250L161.4,250z M146.4,240.7c4.1-3.6,8-4.9,9.7-4c1.9,1.1,2.6,5.4,1.4,11.2
						c-0.1,0.4-0.2,0.7-0.2,1.2c-2.3-0.5-4.8-0.9-7.5-1.2c-1.6-2.2-3.2-4.2-4.7-5.9C145.6,241.4,146,241,146.4,240.7z M132,261.6
						l1.6,2.8c0.5,0.9,1.2,1.9,1.8,2.8c-1.8-0.2-3.6-0.5-5.2-0.8C130.7,264.9,131.4,263.3,132,261.6L132,261.6z M132,255.9
						c-0.7-1.7-1.3-3.3-1.8-4.8c1.6-0.3,3.3-0.6,5.1-0.8c-0.6,0.9-1.2,1.9-1.7,2.8L132,255.9L132,255.9z M133.3,258.8
						c0.7-1.6,1.5-3.1,2.4-4.5c0.8-1.5,1.8-2.9,2.7-4.3c1.7-0.1,3.4-0.2,5.1-0.2s3.5,0.1,5.1,0.2c0.9,1.4,1.8,2.8,2.7,4.3
						c0.8,1.5,1.7,2.9,2.4,4.4c-0.7,1.6-1.6,3.1-2.4,4.5c-0.8,1.5-1.7,2.9-2.6,4.3c-1.7,0.1-3.4,0.2-5.1,0.2c-1.7,0-3.4-0.1-5.1-0.2
						c-0.9-1.4-1.9-2.8-2.7-4.3C134.8,261.8,134,260.3,133.3,258.8L133.3,258.8z M153.3,264.5c0.5-0.9,1.1-2,1.6-2.9
						c0.7,1.7,1.4,3.4,1.9,4.9c-1.6,0.4-3.4,0.6-5.2,0.8C152.2,266.4,152.7,265.4,153.3,264.5L153.3,264.5z M154.9,255.9
						c-0.5-0.9-1.1-1.9-1.6-2.9c-0.5-0.9-1.2-1.9-1.7-2.7c1.8,0.2,3.5,0.5,5.1,0.8C156.2,252.7,155.6,254.4,154.9,255.9z
						 M143.5,243.5c1.1,1.2,2.2,2.5,3.3,4c-2.2-0.1-4.4-0.1-6.6,0C141.3,246,142.3,244.8,143.5,243.5z M130.6,236.8
						c1.9-1.1,6,0.4,10.3,4.3c0.3,0.2,0.5,0.5,0.8,0.7c-1.6,1.8-3.3,3.7-4.7,5.9c-2.6,0.2-5.2,0.6-7.5,1.2c-0.1-0.5-0.3-1.2-0.4-1.7
						C128.2,241.8,128.8,237.7,130.6,236.8L130.6,236.8z M127.9,265.9c-0.4-0.1-0.9-0.3-1.4-0.4c-2.7-0.9-4.9-2.1-6.5-3.5
						c-1.4-1.2-2.1-2.3-2.1-3.3c0-2,3.1-4.6,8.1-6.4l1.9-0.6c0.7,2.3,1.6,4.6,2.7,7.1C129.6,261.2,128.6,263.6,127.9,265.9
						L127.9,265.9z M140.9,276.8c-2.2,1.9-4.3,3.3-6.2,3.9c-1.7,0.6-3.1,0.6-3.9,0.1c-1.8-1.1-2.5-4.9-1.5-10.2
						c0.1-0.6,0.2-1.3,0.4-1.9c2.3,0.5,4.8,0.8,7.5,1.1c1.6,2.2,3.2,4.2,4.7,5.9C141.6,276.2,141.2,276.5,140.9,276.8L140.9,276.8z
						 M143.6,274c-1.2-1.3-2.2-2.5-3.4-4c1.1,0,2.1,0.1,3.3,0.1s2.2,0,3.4-0.1C145.7,271.5,144.6,272.9,143.6,274z M158,277.4
						c-0.3,1.8-0.9,2.9-1.8,3.5c-1.8,1.1-5.5-0.3-9.6-3.8c-0.4-0.4-0.9-0.8-1.4-1.3c1.6-1.7,3.2-3.7,4.6-5.9
						c2.7-0.2,5.3-0.6,7.6-1.2c0.1,0.4,0.2,0.9,0.3,1.4C158.3,272.9,158.4,275.4,158,277.4L158,277.4z M160,265.5l-0.9,0.3
						c-0.7-2.2-1.7-4.6-2.8-7.1c1.2-2.4,2-4.7,2.7-7c0.5,0.2,1.2,0.3,1.7,0.5c5.2,1.8,8.3,4.4,8.3,6.4
						C169,260.9,165.6,263.6,160,265.5L160,265.5z"/>
					<circle class="st3" cx="143.5" cy="258.7" r="4.9"/>
				</g>
				<path class="st3" d="M215.1,230h14.3c2.3,0,4.3-1.9,4.3-4.3v-6.3c0-2.3-1.9-4.3-4.3-4.3h-14.3L215.1,230L215.1,230z"/>
				
					<ellipse transform="matrix(0.4641 -0.8858 0.8858 0.4641 -110.7578 337.2141)" class="st4" cx="223.3" cy="260.1" rx="17.6" ry="17.6"/>
			</g>
		</g>
		<path class="st5" d="M182,66.8c-32.2,0-62.5,14.8-82.2,40.4c45.3-35.3,110.7-27.2,146,18.1c29.3,37.6,29.3,90.2,0,127.7
			c45.4-35.2,53.8-100.5,18.5-146C244.7,81.7,214.3,66.7,182,66.8z"/>
	</g>
	<circle class="st6" cx="182" cy="171" r="105.4"/>
</g>
<g>
	<g>
		<path class="st0" d="M124.9,321.1l2.6,3.4c0.4,0.7,0.9,0.7,1.6,0.7c0.5,2.1-0.4,2.8-1.9,2.8c-1.5,0-2.1-0.8-2.7-1.8l-3-4.5h-2.9
			c0,0.7-0.1,3.8,0,4.5c0.1,1.1-0.2,1.5-1.1,1.5h-1.3c-1.2,0-1.2-1.1-1.2-1.9c0.1-2.1,0.1-13.2,0.1-13.9c0-0.9-0.2-2.1,1.4-2.1h5.4
			c4.5,0,6.8,2.5,6.8,6C128.6,318.5,127,320.3,124.9,321.1z M121.6,312.4h-3.1c-0.1,1.5,0,5.8,0,6.8h3.1c2,0,3.4-1.2,3.4-3.4
			C125.1,314.2,124.1,312.4,121.6,312.4z"/>
		<path class="st0" d="M134,309.8h9.4c0.9,0,1.1,0.4,1.1,1.1v0.9c0,0.7-0.4,1-1.1,1h-6.9l0,4.6c1.9,0,5.3,0,5.9,0
			c0.5,0,0.9,0.2,0.9,0.8v1.1c0,0.7-0.2,0.8-0.8,0.8c-0.8,0-4,0-6,0c0,1.7,0,3.2,0.1,4.5c2,0,6.1,0,6.9-0.1c0.8-0.1,1.1,0.3,1.1,1.1
			v1.2c0,0.7-0.2,0.8-1.1,0.8h-9.3c-1.2,0-1.2-1.1-1.2-1.9c0.1-2.1-0.1-13.2-0.1-13.8C132.8,311.1,132.4,309.8,134,309.8z"/>
		<path class="st0" d="M154,309.8h2.4c1.1,0,1.5,0.6,1.8,1.5c0.2,0.9,4.2,13.5,4.6,14.9c0.2,0.9,0.1,1.5-0.8,1.5h-1.1
			c-1.2,0-1.3-0.9-1.5-1.3c-0.2-0.4-0.4-1.5-1-2.8h-6.6c-0.5,1.4-0.8,2.4-0.9,2.7c-0.2,0.9-0.4,1.4-1.3,1.4h-1.5
			c-0.7,0-1-0.6-0.7-1.4c0.6-2.2,4.7-14,4.9-15C152.5,310.4,152.8,309.8,154,309.8z M152.4,321.1h5.4c-1.1-3.5-2.3-7.6-2.6-8.7H155
			C154.7,313.6,153.5,317.7,152.4,321.1z"/>
		<path class="st0" d="M178,313c-0.4,0.7-0.8,0.9-0.8,0.9s-1.3-1.3-4-1.3c-3.4,0-4.9,2.8-4.9,6.1c0,3.4,1.8,6.2,4.9,6.2
			c1.6,0,2.6-0.5,3.2-0.9c0.4-0.3,0.8-0.5,1.2,0.2l0.7,1.2c0.2,0.4,0.4,0.7-0.1,1.1c-0.7,0.6-2.4,1.4-5,1.4c-5.6,0-8.4-3.9-8.4-9.2
			c0-5.2,2.7-9.2,8.3-9.2c2.8,0,4.3,0.9,4.8,1.2C178.3,311.1,178.9,311.8,178,313z"/>
		<path class="st0" d="M194.9,310.9l0,1.1c0,0.7-0.1,0.8-1.1,0.8l-4.3,0c-0.1,3.6-0.1,12.1-0.1,12.6c0,0.9,0.5,2.1-1.1,2.1H187
			c-1.2,0-1.3-1.1-1.2-1.9c0.1-0.8,0.2-9.9,0.1-12.9c-0.8,0-3.8,0-4.2,0c-0.8,0.1-1-0.3-1-1l0-1.2c0-0.7,0.1-0.8,1.1-0.8
			c0,0,10.7,0.1,12.2,0C194.7,309.8,194.9,310.2,194.9,310.9z"/>
		<path class="st0" d="M204.2,328c-5.5,0-8.1-3.9-8.1-9.2c0-5.2,2.6-9.2,8-9.2c5.2,0,8,4,8,9.2C212.2,324,209.4,328,204.2,328z
			 M204.2,312.6c-3.3,0-4.4,2.9-4.4,6.2c0,3.3,1.1,6.2,4.4,6.2c3.3,0,4.4-3,4.4-6.2C208.6,315.4,207.5,312.6,204.2,312.6z"/>
		<path class="st0" d="M223.2,328c-6,0-7.3-3.3-7.4-8.5c-0.1-3.5,0-7.1,0-7.8c0-0.9-0.3-1.8,1.1-1.8h1.3c1.2,0,1.3,0.8,1.2,1.6
			c-0.1,0.9-0.1,4.7-0.1,8c0,3.5,0.9,5.5,3.8,5.5c2.8,0,3.7-1.9,3.7-5.6c0-3.4,0-7,0-7.7c0-0.9-0.3-1.8,1.1-1.8h1.3
			c1.2,0,1.3,0.8,1.3,1.6c0,0.9-0.1,6.7-0.2,8C230.2,324.6,228.8,328,223.2,328z"/>
		<path class="st0" d="M244.7,321.1l2.6,3.4c0.4,0.7,0.9,0.7,1.6,0.7c0.5,2.1-0.4,2.8-1.9,2.8c-1.5,0-2.1-0.8-2.7-1.8l-3-4.5h-2.9
			c0,0.7-0.1,3.8,0,4.5c0.1,1.1-0.2,1.5-1.1,1.5H236c-1.2,0-1.2-1.1-1.2-1.9c0.1-2.1,0.1-13.2,0.1-13.9c0-0.9-0.2-2.1,1.4-2.1h5.4
			c4.5,0,6.8,2.5,6.8,6C248.4,318.5,246.7,320.3,244.7,321.1z M241.4,312.4h-3.1c-0.1,1.5,0,5.8,0,6.8h3.1c2,0,3.4-1.2,3.4-3.4
			C244.8,314.2,243.9,312.4,241.4,312.4z"/>
	</g>
	<g>
		<path class="st7" d="M178.5,363.8c-0.4-0.2-0.9-0.1-1.3-0.4l-0.2,0c-0.2,0-0.5,0.1-0.7,0.2c-1.1-0.3-1.5-1.4-2.4-1.8
			c-0.9-1.9-1.7-3.8-2.2-5.8c0-0.2,0.1-0.5,0-0.7c0-0.1-0.1-0.4-0.3-0.4c0.2-0.3,0.1-0.8,0.1-1.2c0-0.3-0.1-0.7-0.2-0.9
			c0.2-0.2,0-0.8,0.2-1c-0.1-0.3-0.2-0.6-0.3-0.9c-0.1-0.9,0.1-1.7,0-2.5c0-0.2-0.1-0.4-0.1-0.6c0.1-0.6,0.2-1.3,0.2-2
			c0-0.2-0.1-0.4-0.2-0.6c0.3-1.8,0.2-3.6,0.2-5.4c0-0.1-0.1-0.1-0.1-0.2c0-0.2,0.3-0.3,0.2-0.6c-0.8,1.1-0.7,2.7-1.6,3.7
			c0,0.5-0.2,0.8-0.2,1.3c0,0-0.1,0-0.2,0c-0.1,0-0.1,0.3-0.3,0.3c-0.7,1.9-1.5,3.8-3,5c-0.2,0-0.3-0.1-0.5,0
			c-0.5,0.1-1,0.5-1.2,0.6c-0.4,0-1.1-0.5-1.7-0.4c-0.6-0.4-1-0.9-1.8-0.9c-1.2-1.6-2.6-2.5-3.2-4.5c0,0,0-0.1,0-0.1
			c0-0.2-0.3,0-0.4-0.3l0-0.2c0-0.3-0.2-0.5-0.2-0.8c-0.3-0.4-0.5-0.9-0.9-1.2c-0.1-0.3,0-1-0.4-1c-0.2-1.4-1-2.8-1.6-4.1
			c-0.2,1-0.2,2.1-0.1,3.1c0,0.3,0.1,0.7,0.2,1c-0.1,0.2-0.4,0.3-0.4,0.5c0,0.2,0,0.4,0,0.6c0,0.5,0,0.9,0,1.4
			c-0.1,1.3-0.4,2.7-0.2,4c0,0.1,0.1,0.2,0.1,0.3c-0.5,0.6-0.3,1.5-0.4,2.3c-0.1,1.1-0.3,2.2-0.3,3.3c0,0.6,0,1.2,0,1.9
			c0,0.3-0.3,0.6-0.3,0.9c0,0.3,0.1,0.6,0.1,0.9c0.1,0.5,0.1,0.9-0.3,1.2c0.2,1,0.6,1.6,1,2.4l0.7-0.1l0,0.1c0,0.4,0.2,0.7,0.6,0.7
			c0,0.1,0,0.2,0,0.3c0,0.4,0.3,0.6,0.3,0.9c-0.6,1.4-1.3,2.1-2.9,2.3l-0.5,0.1c-0.5-1.2-1.5-2.2-1.6-3.5c0-0.1,0-0.3,0-0.5
			c0-0.2-0.3-0.1-0.3-0.4c0-0.3-0.1-0.5-0.1-0.8c-0.1-1.3,0-2.6-0.1-3.9c0.2-0.2,0-0.5,0.2-0.8l0-0.2c-0.2-1.4,0.4-2.8,0.3-4.2
			l-0.1-0.4c0-0.3,0.4-0.2,0.4-0.5c0-0.5-0.1-1.1,0-1.6c0.1-1.1,0.2-2.2,0.1-3.2l0-0.1c0-0.1,0.2-0.6,0.2-0.9c0-0.1-0.1-0.3-0.1-0.4
			c0,0,0.1,0,0.1,0c0.1,0,0.2-0.2,0.3-0.2c-0.1-0.1-0.1-0.1-0.1-0.2c0-0.2,0-0.4,0-0.5c0-0.1-0.1-0.2-0.2-0.3c0.8-1.8,0.2-4,0.5-6
			c-0.1-0.2-0.2-0.5-0.2-0.8c0-0.1-0.1-0.3-0.1-0.5c0-0.1,0-0.2,0.1-0.3c0-0.3,0-0.6,0-0.9c0-0.9-0.2-1.8-0.2-2.8
			c-0.1-0.1-0.3-0.2-0.3-0.4c0.3-0.5,0.5-1.1,1.1-1.5c0.1,0.2,0.3,0.3,0.5,0.3c0.2,0,0.6-0.2,0.7-0.4c0.7,0.2,1.4-0.1,2,0.2
			c0.2,0.6,0.4,1.2,0.8,1.7c0.3,1,0.6,3.1,1.2,3.8c0.2,1.4,1.3,2.8,1.3,3.5c0,0.3-0.1,0.3-0.1,0.6c0.2,0.4,0.6,0.6,0.9,1
			c0.8,2.1,2,4.2,3.5,5.9c0.4,0,0.5,0.2,0.9,0.1l0,0.2c0,0.1,0,0.3,0.2,0.4c0.2,0.1,0.4,0.1,0.6,0.1c1-0.1,0.9-1.5,1.8-1.8l0-0.1
			c0-0.3,0.2-0.5,0.1-0.8c0.8-0.7,0.6-2.1,1.4-2.7c0.3-1.7,1-3.2,1.7-4.8c0-0.1-0.1-0.3-0.1-0.4c0-0.1,0-0.2,0-0.2
			c0.1-0.4,0.3-0.8,0.3-1.2c0.3-1.2,0.4-2.5,0.9-3.6l-0.1-0.7c0.5-1.5,0.5-3.1,0.7-4.6c0.1-0.4,0.2-1,0.5-1.2
			c-0.1-0.1-0.1-0.2-0.1-0.3c0-0.3,0.1-0.6,0.1-0.9c-0.1-0.1-0.1-0.3-0.1-0.5c-0.1-0.6,0.2-1.1,0.8-1.4c0.9,0.1,1.1,1.2,2,0.9
			c0.4,0.5,0.5,1.2,0.6,1.8c0.1,0.9,0,1.9,0.1,2.9c-0.5,1.3-0.1,3-0.7,4.3c0.1,1.7,0.2,3.4,0.1,5.1l-0.1,1.7c0,0.3-0.1,0.7-0.1,0.9
			c0,0.2,0.1,0.5,0.3,0.6c-0.5,0.8-0.1,2.3-0.5,3.3l0,0.3c0.1,0.8,0,1.6-0.1,2.4l0,0.1c0,0.2,0,0.3,0,0.5c0,0.1,0.1,0.2,0.2,0.3
			c-0.2,1.1-0.4,2.2-0.3,3.3c0,1.5,0.5,3.1,0.2,4.6c0.6,1.3,0.4,3.4,1.6,4.4c0,0.1,0,0.1,0,0.1c0,0.1,0,0.3-0.1,0.4
			c0.3,0.8,0.9,0.9,1.1,1.8c0.8,0.8,3.1,0.3,3.2,1.7C180.1,363.1,179,363.5,178.5,363.8z"/>
		<path class="st7" d="M199.8,351.6c-0.2,0-0.4,0-0.5,0c-0.2,0-0.1,0.3-0.3,0.4c-0.2,0-0.4,0-0.6,0c-0.2,0-0.5,0.1-0.7,0.1
			c-0.6,0.1-0.5-0.2-0.9-0.4c-0.3-0.1-0.4,0.1-0.8-0.1c-1-0.6-1.5-2.2-2.6-3.1l-0.2,0c-0.3,0-0.6,0.2-0.7,0.5
			c-0.2-0.1-0.4-0.3-0.7-0.3c-0.9,0.4-1.8,0.7-2.8,0.8c-0.3,0-0.5,0.1-0.8,0c-0.3,0.2-0.6,0.5-1,0.6c-0.1,0-0.3,0-0.4-0.1
			c-0.2,0,0,0.3-0.3,0.3l-0.3,0c-0.5,0.1-1.1,0.2-1.6,0.2c-0.4,0-0.8,0-1.1,0c-0.1,0.1-0.2,0.1-0.3,0.1c-0.3,0.2-0.1,0.7-0.6,0.7
			c0,0.5-0.5,0.7-0.4,1.2c-0.8,0.5-0.8,1.7-1.7,2.2c-0.1,0.2-0.1,0.4,0,0.5c-0.4,0.4-1,0.8-1.6,0.9c-0.6,0.1-1-0.2-1.3-0.8
			c-0.1-0.8-0.1-1.9,0.7-2.3c0-0.3-0.4-0.3-0.4-0.7c2-1.3,2.4-3.8,3.9-5.4l-0.1-0.6c0.5-0.6,0.8-1.4,0.9-2.2
			c0.4-0.1,0.5-0.5,0.4-0.9c0.2,0,0.1-0.3,0.4-0.3c0.5-1.9,1.5-3.3,1.6-5.4c0.5-0.1,0.4-0.7,0.4-1.1c1-1.2,0.6-3.2,1.6-4.6l0-0.1
			c0-0.2-0.3-0.1-0.3-0.3c0,0,0,0,0-0.1c0.4-0.3,0.5-0.8,0.9-1.1c0.9,0.5,1.4,0.5,2.4,0.5c0.6,0.5,0.6,1.3,0.9,2
			c0.4,1.2,1,2.3,1.3,3.5c0.2,0.7,0.7,1.3,0.9,2c0.2,0.5,0.1,1.3,0.3,1.8l0.3,0.5c0.2,0.4,0.4,0.9,0.6,1.3c0.4,1.1,0.8,2.5,1.4,3.6
			c0.5,0.7,1.9,0.4,2.6,0.3c0.2,0,0.4,0,0.6,0c0.1,0.1,0.2,0.3,0.2,0.4c0.1,0.5-0.4,0.7-0.3,1.1c0,0.1,0.1,0.2,0.2,0.3
			c-0.1,0-0.2,0-0.4,0c-0.4,0-0.9,0.2-1.3,0.4c0.4,0.6,1,1,1.6,1.3c0.2-0.2,0.4-0.3,0.6-0.3c0.5-0.1,0.9,0.2,1.3,0.1
			c0.1,0,0.3,0,0.4-0.1c0.3,0.3,0.5,0.7,0.9,1C202,351.1,200.6,351.5,199.8,351.6z M191.9,345.2c-0.2-0.5-0.3-1.2-0.5-1.7
			c-0.4-1.3-0.9-2.6-1.5-3.8c0-0.1,0.1-0.2,0.1-0.3l0-0.1c-0.8-0.7-0.7-2.3-1.7-2.8c0,0.1-0.1,0.2,0,0.4c0,0.3,0.1,0.5,0.2,0.8
			c-0.4,0.2-0.4,0.7-0.7,1c-0.4,2.5-2,4.6-2.4,7.2c-0.4,0.4-0.5,1-0.5,1.5c0.8,0.3,1.8-0.3,2.4,0.3c0.5-0.2,1.2-0.3,1.5-0.6
			c0.4,0.1,0.8,0.1,1.3,0.1c0.4-0.1,0.9-0.2,1.3-0.4c0.3,0.1,0.5,0.3,0.9,0.2c0.2-0.2,0.1-0.4,0.3-0.5
			C192.4,345.8,192.1,345.6,191.9,345.2z"/>
		<path class="st7" d="M216.9,348.6c-0.5,0.3-0.8,1-1,1.5c-2.3,2-5.3,3.4-8.3,3.8c-0.4,0-0.7-0.7-1.2-0.7c-0.1,0-0.2,0.1-0.3,0.1
			c0-0.1,0-0.2,0-0.2c-0.1-0.5-0.3-0.9-0.3-1.4c0-0.2,0-0.5,0.1-0.7l0.3,0c0.4,0,0.8-0.2,1.2-0.2c0.2,0,0.4,0,0.6,0.1
			c2.1-0.3,3.9-1.4,5.8-2.3c0.3-0.5,0.2-1,0.3-1.5c-1.1-0.7-2.2-1.2-3.5-0.9c-0.9-0.4-1.8-0.2-2.7-0.3c-0.2,0-0.5-0.1-0.8,0
			c-0.2,0-0.4,0.1-0.3,0.3c-0.2-0.3-0.6-0.2-0.9-0.4c-1.3,0.1-2.1-0.3-3.3-0.6c-0.3-0.1-0.6-0.1-0.9-0.2c-1.4-0.5-1.9-2.4-2.2-3.7
			c0.3-0.7,0.5-1.4,0.6-2.1c0.2-0.1,0.5-0.2,0.7-0.4c0-0.1,0-0.1,0-0.1c0-0.2,0.1-0.4,0.1-0.6c0.8-0.8,1.5-1.8,2-2.9
			c1.1-0.5,1.1-1.9,2.4-2.2c0.2-0.6,1.1-0.7,1.2-1.4c1.2-0.2,1.9-1.3,3.2-1.5c0.1,0,0.3,0,0.5,0c0.7,0.4,0.5,1.6,0.8,2.2
			c-0.3,0.7-0.5,1.5-1.2,1.9l-0.1,0c-0.3,0.1-0.5-0.2-0.8-0.1c-0.4,0-0.3,0.5-0.8,0.4c-0.2,0.1-0.3,0.3-0.2,0.5
			c-1.4,0.3-1.7,2-2.8,2.2c-0.5,1.2-1.5,2.1-2,3.3c0.2,0.3,0.2,0.7,0.3,1c0.4,0.4,1,0.7,1.5,1l0.1,0c0.7-0.1,1.5,0.3,2.2,0.2
			c0.2,0,0.4-0.1,0.5-0.2c1,0.1,2,0.2,3,0.1c0.5,0,1-0.1,1.5,0c0.5,0.1,0.9,0.2,1.3,0.3c1.9,0.6,3.5,1.5,3.8,3.6
			C217.2,347.4,216.7,347.9,216.9,348.6z"/>
		<path class="st7" d="M240.7,347.6c-0.4-0.1-0.9-0.1-1.2,0c-0.5,0.1-1.1,0.2-1.3,0.6c-0.2,0-0.3,0-0.5,0c-0.6,0.1-1.2,0.3-1.8,0.4
			c-0.3,0-0.6,0-0.9-0.1c-0.2,0.1-0.4,0.1-0.6,0.2c-1,0.1-1.9-0.5-2.9-0.6l-0.3-0.4c-1.2-0.1-2.2-1-3.3-1.1
			c-0.2-0.1-0.4-0.2-0.5-0.5c-1-0.1-1.6-0.8-3-0.7c-0.3-0.3-0.8-0.6-1.2-0.6c-0.1,0-0.2,0.1-0.3,0.1l0,0.1c0.1,0.4,0.4,1,0.9,1.1
			c0,0.1,0,0.1,0,0.2c0,0.2,0.1,0.5,0.4,0.5c-0.2,0.9-0.8,2.1-1.7,2.2c-0.3,0.2-0.1,0.7-0.3,0.9c-0.1,0-0.2,0.1-0.3,0.1
			c-0.4,0-0.7,0-1-0.2l0-0.1c-0.1-0.9-0.9-0.9-1-1.8c-0.1,0.1-0.3,0.1-0.3,0.2c0-0.1-0.1-0.3-0.1-0.5c-0.1-0.7,0.2-1.5,0.1-2.2
			l-0.1-0.4c-0.1-0.9-0.3-1.7-0.4-2.6c-0.1-0.7-0.1-1.5-0.1-2.2c0.1-2.6,0-5.2,0.4-7.8c0-0.2-0.2-0.3-0.2-0.6c0,0,0-0.1,0-0.2
			c0.1-0.8,0.6-1.5,1.4-1.6l0.1,0c0.5,0.2,0.7,0.6,1.2,0.5c0,0.1,0,0.2,0,0.2c0.1,0.4,0.3,0.5,0.7,0.7c-0.3,0.8,0.1,2.1-0.3,2.8
			c0.2,0.4,0.3,0.8,0.3,1.2c0.1,0.4,0,0.9,0.1,1.3c0,0.2,0.1,0.4,0.2,0.6c0.4,0,0.6-0.3,0.6-0.7c2-0.7,2.8-2.4,4.5-3.5l0-0.1
			c0-0.2,0.2-0.2,0.1-0.5c1.1-0.5,1.4-1.6,2.3-2.4c0.2-0.7,0.4-1.5,0.7-2.2c0.7-0.1,1.7-0.1,2.4,0.2c0,0.2,0.1,0.3,0.2,0.3
			c-0.2,1.7-0.9,3.1-2.2,4.1c-0.3,0.9-1.2,1.3-1.4,2.2c-0.9,0.2-1.1,1.1-2,1.4c-0.5,0.9-1.6,1.1-1.9,2.1l-0.7,0.1
			c-0.4,0.8-1,1.3-1.7,1.8c0.4,0.9,1.5,0.9,2.1,1.6c1.7,0.4,3.3,1,4.8,2c0.1,0,0.1,0,0.1,0c0.3,0,0.5,0.2,0.8,0.1
			c0.4,0.7,1.3,0.2,1.6,1c0.6,0,1.1,0.1,1.5,0.5l0.4,0c1.2-0.1,2.4,0.1,3.6,0c0.6-0.1,1.2-0.2,1.7-0.6c0.2,0.1,0.5,0.2,0.7,0.2
			c0.1,0,0.3-0.1,0.4-0.1c0.1,0.4,0.5,0.8,0.6,1.2C242.2,346.8,240.9,347,240.7,347.6z"/>
	</g>
</g>
</svg>
